<mxfile host="Electron" modified="2023-10-06T09:36:55.617Z" agent="Mozilla/5.0 (Windows NT 10.0; Win64; x64) AppleWebKit/537.36 (KHTML, like Gecko) draw.io/22.0.2 Chrome/114.0.5735.289 Electron/25.8.4 Safari/537.36" etag="LjqEBFNAkqBE9y-UxRlC" version="22.0.2" type="device">
  <diagram name="Page-1" id="OQPtKQBK8VR3Cjnx42kW">
    <mxGraphModel dx="1434" dy="837" grid="1" gridSize="7.874" guides="1" tooltips="1" connect="1" arrows="1" fold="1" page="1" pageScale="1" pageWidth="850" pageHeight="1100" math="0" shadow="0">
      <root>
        <mxCell id="0" />
        <mxCell id="1" parent="0" />
        <mxCell id="P-BTsnygXm_hFObz8tvr-110" value="&lt;p style=&quot;margin-top: 0pt; margin-bottom: 0pt; margin-left: 0in; direction: ltr; unicode-bidi: embed; word-break: normal; font-size: 12px;&quot;&gt;&lt;br style=&quot;font-size: 12px;&quot;&gt;&lt;/p&gt;" style="rounded=0;whiteSpace=wrap;html=1;strokeWidth=2;align=left;verticalAlign=middle;fontSize=12;fontFamily=Arial;container=0;recursiveResize=0;collapsible=0;strokeColor=#595959;fillColor=#FFFFFF;" parent="1" vertex="1">
          <mxGeometry x="1450.218" y="554.0215000000001" width="157.48" height="98.425" as="geometry" />
        </mxCell>
        <mxCell id="P-BTsnygXm_hFObz8tvr-109" value="&lt;p style=&quot;margin-top: 0pt; margin-bottom: 0pt; margin-left: 0in; direction: ltr; unicode-bidi: embed; word-break: normal; font-size: 12px;&quot;&gt;&lt;br style=&quot;font-size: 12px;&quot;&gt;&lt;/p&gt;" style="rounded=0;whiteSpace=wrap;html=1;strokeWidth=2;align=left;verticalAlign=middle;fontSize=12;fontFamily=Arial;container=0;recursiveResize=0;collapsible=0;strokeColor=#595959;fillColor=#FFFFFF;" parent="1" vertex="1">
          <mxGeometry x="1450.218" y="420.39099999999996" width="157.48" height="98.425" as="geometry" />
        </mxCell>
        <mxCell id="P-BTsnygXm_hFObz8tvr-105" value="" style="group" parent="1" vertex="1" connectable="0">
          <mxGeometry x="230.87200000000004" y="422.39099999999996" width="157.48000000000002" height="98.42499999999998" as="geometry" />
        </mxCell>
        <mxCell id="P-BTsnygXm_hFObz8tvr-106" value="&lt;p style=&quot;margin-top: 0pt; margin-bottom: 0pt; margin-left: 0in; direction: ltr; unicode-bidi: embed; word-break: normal; font-size: 12px;&quot;&gt;&lt;br style=&quot;font-size: 12px;&quot;&gt;&lt;/p&gt;" style="rounded=0;whiteSpace=wrap;html=1;strokeWidth=2;align=left;verticalAlign=middle;fontSize=12;fontFamily=Arial;container=0;recursiveResize=0;collapsible=0;strokeColor=#595959;fillColor=#FFFFFF;" parent="P-BTsnygXm_hFObz8tvr-105" vertex="1">
          <mxGeometry width="157.48" height="98.425" as="geometry" />
        </mxCell>
        <mxCell id="zU_sP0cB1sATBuBRFiv1-2" value="&lt;p style=&quot;margin-top: 6pt ; margin-bottom: 0pt ; margin-left: 0in ; direction: ltr ; unicode-bidi: embed ; vertical-align: baseline ; word-break: normal ; font-size: 14px&quot;&gt;&lt;br&gt;&lt;/p&gt;" style="rounded=0;whiteSpace=wrap;html=1;align=left;fontStyle=1;verticalAlign=top;strokeColor=#0A6ED1;fillColor=none;strokeWidth=2;fontSize=14;fontFamily=Arial;container=0;recursiveResize=0;collapsible=0;fontColor=#595959;" parent="1" vertex="1">
          <mxGeometry x="622.04" y="265.35" width="653.55" height="805.51" as="geometry" />
        </mxCell>
        <mxCell id="P-BTsnygXm_hFObz8tvr-28" value="&lt;p style=&quot;margin-top: 0pt; margin-bottom: 0pt; margin-left: 0in; direction: ltr; unicode-bidi: embed; word-break: normal; font-size: 14px;&quot;&gt;&lt;br&gt;&lt;/p&gt;" style="rounded=0;whiteSpace=wrap;html=1;strokeColor=#074D92;strokeWidth=2;fillColor=none;align=left;verticalAlign=top;fontSize=14;fontFamily=Arial;container=0;recursiveResize=0;collapsible=0;fontColor=#053B70;spacingLeft=7;" parent="1" vertex="1">
          <mxGeometry x="709.1" y="889.9" width="503.5" height="116.72" as="geometry" />
        </mxCell>
        <mxCell id="zU_sP0cB1sATBuBRFiv1-3" value="&lt;p style=&quot;margin-top: 0pt; margin-bottom: 0pt; margin-left: 0in; direction: ltr; unicode-bidi: embed; word-break: normal; font-size: 14px;&quot;&gt;&lt;b style=&quot;font-size: 14px;&quot;&gt;Subaccount&lt;/b&gt;&lt;/p&gt;" style="rounded=0;whiteSpace=wrap;html=1;strokeColor=#074D92;strokeWidth=2;fillColor=none;align=left;verticalAlign=top;fontSize=14;fontFamily=Arial;container=0;recursiveResize=0;collapsible=0;fontColor=#053B70;spacingLeft=7;" parent="1" vertex="1">
          <mxGeometry x="709.6" y="314.41" width="502.5" height="512.36" as="geometry" />
        </mxCell>
        <mxCell id="P-BTsnygXm_hFObz8tvr-18" value="&lt;p style=&quot;margin-top: 0pt; margin-bottom: 0pt; margin-left: 0in; direction: ltr; unicode-bidi: embed; word-break: normal; font-size: 14px;&quot;&gt;&lt;br&gt;&lt;/p&gt;" style="rounded=0;whiteSpace=wrap;html=1;strokeColor=#053b70;strokeWidth=2;fillColor=none;align=left;verticalAlign=top;fontSize=14;fontFamily=Arial;container=0;recursiveResize=0;collapsible=0;fontColor=#053B70;spacingLeft=7;" parent="1" vertex="1">
          <mxGeometry x="816.4" y="367.2" width="251.97" height="173.23" as="geometry" />
        </mxCell>
        <mxCell id="E51u0FYAALTfA-zhzbv9-44" value="" style="group" parent="1" vertex="1" connectable="0">
          <mxGeometry x="222.99500000000012" y="414.51699999999994" width="157.48000000000002" height="98.42499999999998" as="geometry" />
        </mxCell>
        <mxCell id="E51u0FYAALTfA-zhzbv9-31" value="&lt;p style=&quot;margin-top: 0pt; margin-bottom: 0pt; margin-left: 0in; direction: ltr; unicode-bidi: embed; word-break: normal; font-size: 12px;&quot;&gt;&lt;br style=&quot;font-size: 12px;&quot;&gt;&lt;/p&gt;" style="rounded=0;whiteSpace=wrap;html=1;strokeWidth=2;align=left;verticalAlign=middle;fontSize=12;fontFamily=Arial;container=0;recursiveResize=0;collapsible=0;strokeColor=#595959;fillColor=#FFFFFF;" parent="E51u0FYAALTfA-zhzbv9-44" vertex="1">
          <mxGeometry width="157.48" height="98.425" as="geometry" />
        </mxCell>
        <mxCell id="E51u0FYAALTfA-zhzbv9-32" value="&lt;span style=&quot;font-family: arial; font-style: normal; letter-spacing: normal; text-indent: 0px; text-transform: none; word-spacing: 0px; display: inline; float: none; background-color: rgb(255, 255, 255);&quot;&gt;&lt;font color=&quot;#074d92&quot; style=&quot;&quot;&gt;SAP Solution&lt;br&gt;&lt;span style=&quot;font-weight: normal;&quot;&gt;&lt;font style=&quot;font-size: 12px;&quot;&gt;(incl. SAP Master Data Governance)&lt;/font&gt;&lt;/span&gt;&lt;br style=&quot;font-size: 16px;&quot;&gt;&lt;/font&gt;&lt;/span&gt;" style="text;whiteSpace=wrap;html=1;fillColor=none;fontStyle=1;fontSize=16;fontColor=#0F828F;align=center;verticalAlign=middle;container=0;" parent="E51u0FYAALTfA-zhzbv9-44" vertex="1">
          <mxGeometry x="12" y="39.712500000000006" width="123.48" height="29" as="geometry" />
        </mxCell>
        <mxCell id="P-BTsnygXm_hFObz8tvr-11" value="&lt;span style=&quot;color: rgb(15, 130, 143); font-family: Arial; font-size: 12px; font-style: normal; font-variant-ligatures: normal; font-variant-caps: normal; font-weight: 700; letter-spacing: normal; orphans: 2; text-align: left; text-indent: 0px; text-transform: none; widows: 2; word-spacing: 0px; -webkit-text-stroke-width: 0px; background-color: rgb(251, 251, 251); text-decoration-thickness: initial; text-decoration-style: initial; text-decoration-color: initial; float: none; display: inline !important;&quot;&gt;Cloud&lt;/span&gt;" style="text;whiteSpace=wrap;html=1;fontSize=12;container=0;" parent="E51u0FYAALTfA-zhzbv9-44" vertex="1">
          <mxGeometry x="4.998000000000047" y="-0.0020000000001232365" width="70.87" height="23.62" as="geometry" />
        </mxCell>
        <mxCell id="zU_sP0cB1sATBuBRFiv1-65" value="&lt;p style=&quot;margin-top: 0pt; margin-bottom: 0pt; margin-left: 0in; direction: ltr; unicode-bidi: embed; word-break: normal; font-size: 14px;&quot;&gt;&lt;br&gt;&lt;/p&gt;" style="rounded=0;whiteSpace=wrap;html=1;strokeColor=#053b70;strokeWidth=2;fillColor=none;align=left;verticalAlign=top;fontSize=14;fontFamily=Arial;container=0;recursiveResize=0;collapsible=0;fontColor=#053B70;spacingLeft=7;" parent="1" vertex="1">
          <mxGeometry x="820.33" y="577.96" width="251.97" height="233.06" as="geometry" />
        </mxCell>
        <mxCell id="zU_sP0cB1sATBuBRFiv1-55" value="SAP Business Technology Platform" style="text;html=1;strokeColor=none;fillColor=none;align=left;verticalAlign=middle;whiteSpace=wrap;rounded=0;fontStyle=1;fontSize=16;container=0;" parent="1" vertex="1">
          <mxGeometry x="678.27" y="269.44999999999993" width="303" height="30" as="geometry" />
        </mxCell>
        <mxCell id="zU_sP0cB1sATBuBRFiv1-13" value="&lt;span style=&quot;color: rgba(0, 0, 0, 0); font-family: monospace; font-size: 0px; text-align: start;&quot;&gt;%3CmxGraphModel%3E%3Croot%3E%3CmxCell%20id%3D%220%22%2F%3E%3CmxCell%20id%3D%221%22%20parent%3D%220%22%2F%3E%3CmxCell%20id%3D%222%22%20value%3D%22%26lt%3Bb%26gt%3B%26amp%3Bnbsp%3B%26lt%3B%2Fb%26gt%3B%26lt%3Bspan%20style%3D%26quot%3Bfont-weight%3A%20bold%26quot%3B%26gt%3BSubaccount%26lt%3B%2Fspan%26gt%3B%26lt%3Bb%26gt%3B%26lt%3Bbr%26gt%3B%26lt%3B%2Fb%26gt%3B%22%20style%3D%22rounded%3D0%3BwhiteSpace%3Dwrap%3Bhtml%3D1%3BstrokeColor%3D%23074D92%3BstrokeWidth%3D2%3BfillColor%3Dnone%3Balign%3Dleft%3BverticalAlign%3Dtop%3BfontSize%3D11%3BfontFamily%3DArial%3Bcontainer%3D0%3BrecursiveResize%3D0%3Bcollapsible%3D0%3BfontColor%3D%23595959%3B%22%20vertex%3D%221%22%20parent%3D%221%22%3E%3CmxGeometry%20x%3D%22170%22%20y%3D%22186%22%20width%3D%22910%22%20height%3D%22520%22%20as%3D%22geometry%22%2F%3E%3C%2FmxCell%3E%3CmxCell%20id%3D%223%22%20value%3D%22%22%20style%3D%22shape%3Dimage%3BverticalLabelPosition%3Dbottom%3BlabelBackgroundColor%3D%23ffffff%3BverticalAlign%3Dtop%3Baspect%3Dfixed%3BimageAspect%3D0%3Bimage%3Ddata%3Aimage%2Fpng%2CiVBORw0KGgoAAAANSUhEUgAAANYAAAAeCAYAAABQWOD3AAAQuUlEQVR4Ae1cC7RVxXk%2B%2BKiRtDaJbZJiTEmkQC964dx99p7%2FMftw5D4Ag7Y20nfTpImmqzElUZtlUmzq0lRqFKJBDC5RqaJI1NgFwZVYpVpDtEHlYZSHKK%2BgEsFC8BFBd9d33HPdZ9%2B9zzn3wpV11zpnrVmzZ%2Baff2b%2BPd88%2Fv%2Ffp1Bo%2FVoSaEngvZGAMeYjzHw2M88QkQuCIPgLZh6V17ox5oRSqXRGXnl%2F8plZmPl8Zr5CRL5ljDnP9%2F0JzfAQkQkdHR3tzdCWSqUKM5%2BUpg2CgJl5SjKUSqWpvu%2BXPc%2F7eJq%2BUXrUqFHH%2Bb4vfhM%2FVS1NnTr1uEY8gyCYLCI3MPMeEYmY%2BTUiuiMIgumFQuHoRvWJqAPdMcZ49WjPO%2B%2B8Y123S6XSmCxazBXf9yeqqs0qd3mq%2BnFjzOmg9X3%2Fky7fxZ7nDY%2FLy5B1Ikxk5kBEft%2FRNoqNMW14vwkevfyYeSLGr6q%2FlcenWCz%2BLhFV66NPY8aMyaUFjyAISq4tEZnUh2%2BxWGwTkYfCMIzCMFzLzEtF5D%2BttT8VkbdFZIPv%2B53pihj4xIkTo3R%2Bf9LxRN6uqq%2BJyMNEdCczf99a%2B6i1NlLVHR0dHZPr8TTGLFfV2%2BrRuDIi2m2M%2BTuXdrG19nFVfdVai77sSITdkIuI7PZ9f0ahUBjm6tSLsSB1dnZCnk2FIAhG5%2FHzPM8y8y8gDwAqHeL8V0ul0qfzeCBfVd8CrbX24PTp03OB2N7e%2FjHXb1V9NIsnEX2hXC5Xx0ZE87JokOf7%2FqWYI%2BDHzN9N06nquEqlUldGzPwqEV3d3t7%2B4XT9ZFpElro%2Buf4nY5TFsvpxEASfSNbFs%2Bd5x4rILtSJaX%2BSpnFpLBKON2iZ%2BVJXVo2NMX%2BOAiK6vq2t7TdqCuMEEV2gqm8GQXB1shwrbblcPpDM68fzMCL6V2vt28aYy%2FLqEdFlGAB2sTwaZr5bVW%2FOK0%2FmG2O2BUHwmWQenjGBVLVWODER5GKM%2BQeATkRexGqdrp9Oi8gpmDBpEGSlwzB8HfRpHkjjRJAEFDNjsfklMz%2Bnqi8w81uOJ%2BiI6NosPshT1V%2FFtHvrAatYLI5wPFV1RRY%2FIvqsqvaOz%2Ff9M3Po%2Fhn9Ai0zz07TENEfxu%2B3l5drOyN%2BEztSmodLqyrmQS8fPCdDkh%2Fa9DzvNFc3joeJiB9vJlUQ5o1LRHY6fkT00xo%2B2O4AqmKx2FVTkJHwPO%2F3mLlm5zgUYBlj%2FqZcLr%2BB7TmjuZosHKkgIGPM52oK4sThAhYzX5nFP5lHRP%2BDIxgzH5%2FMTz8ngcXMe3FkI6IlOeGOLLDiqJEElarez8w1kwHHVOzyInIALxpyIqKZ6f4gPZjAwm6YtQsQUdPAIqJdxpg5RHSNMQZhgYjg1ISFpwoYtDN%2B%2FPhxOeOrAgsywJwQkcuxILtARDdhYUzw2o0je5oXEc0Cj5hub5rGGHNlgsdBHCFreIjIviAIvlGT2Y%2FEQIEVBMGJqvrrIAjOb7Y5HD3CMNyLe126znsJLLSNnYuIbkn3I5lOAktVNyTLmnlub29%2FPzO%2FEL%2FAt4Mg%2BOI79aJhPHv78Wffs%2BPEM%2BfvHF4oRNWjKe6DzPxr0OMU4Hne2HQ7gwmsuJ%2Bvp%2B8l%2FQEWMz%2BR7jPS48ePPwnXETeZReSpLDq3Y2GzCMPwnCyaQqFwFDO%2FAl6gK5VKQRadMeZ50MQgvd3RYAF0ixgWvSAIprmyamyM%2BbS19pWazH4mBgos3HGstS%2F2pzmsGtZaHH363I%2Fea2AFQTAekxcLRN4YksCy1gJYTd3NHD%2Ff9%2F%2FarZqqegXyOxfuOPGMe3Z854y7tr1%2B1tJd0bQfbD9w5r0v3TxtyfaqMgaLj5t8RHR%2Fus1BBBbux26FfzJ5zOwPsEQkE1gYO3YFZn4D7eCOCCWDk5WLmwRWgZmxw7vd%2Fc9c%2FWTs%2B%2F44VYV%2BAXRvqSqUOMNw102M9fvJOtVnZl5ERIv6FPQjY6DAUlUciW7qR1NVUiK6jplXpuu918DCqofd0%2FO809N9cekMYLmihjEmJjOvcC%2FV87zfNtduOuFTd%2B%2FcOWXxlmjK4ueiqXc%2B%2F05YsiU6a%2BmufVMXbzoFd0ER2Yp6AP6ECRM%2BkGxssIDFzN9R1d1uwuEY59o9XMACPyL6pltsmHm%2Ba8PFzQKLiJbHMsJi8EeufjoWkZluTBifMeZCl2bm%2FW1tbb%2BZroPz9v5Yy9WnrNmMgQALL99a%2BxQR%2FWOz7Tg6qJWxa7m0i48AsLDqbe6jCXIdKhQKSWCp6laouKFFTQciMqBNVIV2arg71jHzRpR13%2FrsnVNufy7quXVT1HPbs9UwedHmaPLtm6Mq2JZsrWqwoITC5MPlHKtuku9gAYuIZp966qknq%2BpBN%2FF83%2F9TtH2YgVXB8Q1tMPN%2FJ8eG5ySwiOhP0uVI447KzNU7G7SVaRml6mCB2%2BTG5GLI1xiTbd7B%2BTBPGZBinpscCLBGjhz5PlV9HseWXMY5BaVSqTsMw13p4iMBLCJahR003ReXTgIrfiHQ3vUJ8QpcYyqArSXOxySqAqZn4XMbu2%2FZGHXfsqEaehZujHr%2B490w7d4XX5i6PDqOmb%2BEurHSw3f9QTyYwAJ%2FTGY3%2BUTkIDMXjTFfR1%2FQpya0grlHQfCHXdMBK8sM4IAVyw5mIyh7%2FisO9%2BOdufsR%2BsnMjyaPrUlZuWfY4ZKa17jev7nyPrGqvnQoigswHAiwYlvBz7CS9elUgwyoeJl5e5rsSABLRH7BzBen%2B%2BLSaWDhZWcFTDpm7r0coz6OGFCrx5N0NfJ6btq4suvG9VHXjU9H3QueeSfctD7qRrh5QzRl0dbNoCOiy9FOvGPVGNgdsFR1X70JBaOsA4iqPujGlIyT6nbsWK5MROYl6u4KguDfDxewYCB3qnmAxbXpYgcs135eDPkw89N9tHmOUSr2fT95BHwZczhF8m7SGPM9Irrv3Zz%2BPw0EWGhFROaLyLL%2BtigidxHRPel6xpi7mrVjEREWlEw7VjPqdrRdqVSOKZfLrxljKN0Xl04CC%2FYmKGyI6Nx0YOYvBkFQY7WP70rr44nxGl7kxOvWnNm9YP2Bzu%2Bti7puQPh5b5i8cHPUteCZc9G2iDyJepiA0Ka5%2FiBm5pfdZMPJIVmWfIaXhKNT1cx7eB6wYq0bdga3MFQ1lfFk7gWgay9lx6q7Y6nqXPAFLxiMHQ8Xp4D1srV2GwIz9x5RjTE7jTHn1Bu%2F4%2BdiY8wfoE20HSuFXFHf2Pf9LhDjJfYtbS5noMCCt0UYhm%2FUcy9J94CZP2St3W%2BM6UmXwXCNCYWXmi5LpuP73etEpMl8PONo0SywiOhvcZ%2Bo1%2F8ksKy169PtNUoz87%2B4SQQNLugnzX3qC53z1h7ovG5N1DlvbdQ5b03UdcPTUdf8p6u7f6lUKjrjJnb29K7EzKvwzgE6Y0zupd0Yc68DBgzjWX2tA6zCqFGjTlDVXnuRG8ehHAWhFk9o6Q5k3Y0csHBchJ20Uql8AAoc3%2Fc%2F54ChqrCdZhqzs8aJPGgEXf2snbJPPVyMYVzsU9BkxiEA63gReYaZFzbZFI4416rqpkKh0Gcbhp8ghOn7%2Fsn1%2BDHzWGvtW7ARpemaBVZbW9tHwzDcn2eEdXxTwBqIuv3kxH3gV84uNemaJ2d3zV0bdV77RNR9%2Fbro9Lmrq%2Fcz2FeYudf2knV5N8Zc4iaIqm72ff%2Bjrr8u9jyvQ0TeBBgg046Ojkxf0XrAAi8oa1S1arRuFlhZdiwsqABJcrfNm9xJYKXtWLjrubFbawGuPourk0E67jewoNmIBw93oVzfMTQEjRzUnclGBwqsmB9j12Lmf0ryzHqGmhM7RD1hiMj%2Fwlcs7%2FwLw6WIbMRxMquNZoAFAEPDx8xQKNSV16ECC300xlzkJgOMotAW9nx7zfu7vrvm5UlzVkVdc1cfKF%2F2WNXnjYh%2B7GhV9ZH0bgV%2B2LFVdZub6CICQ%2Fc3YeTEDkZEV0FbjHIEXP6zZIW8RsCKac5N9An86h4FiWhfSuGwEvJ2%2FYl57UwfcV0f6wELNMxcPUrG49%2BXtes5Xsm438BC5fg8Dd%2Bzx4IgOBsuMjjixF7HWAXhwQxXkT1BEHw%2B2SBcbsrl8kG4O8GdJS%2Fk7SRBEPyxqv4f7luxBgleFZiwR1lrPwhXJhG5FzSxB3ey%2BZrn0aNHn4SXoKoPwFM9HsOx4APXLVVdJyLrRowYMbymYpyIgXU9xu%2FGAUdL3AFE5FNEdDMchYno7qwdL83zcACrUCgcE7db1fIRUdWY2XnVqmVds1dF3desrvqoxbuD07yt9zzvd9L9cWl4rcOtJznh8exCPOkArA3jxo37kKuXjpsBFurAG9%2B11QhYDkDp2PUNc9Tt3On%2BIN0IWLGB9weOP3wui8ViQ%2B%2F5AQELHcKRwFp7NazK8QrxDBH93Fq7GauaiCzI8r6Gnx%2F8%2FVR1i7V2a17AbpIlCOThswRr7SLYp%2BD6Y4x5nJkfF5FnMQGstXfUE2aSL7yfVXUheInIeiJaLSKbYt5z0u42ybrQfllrf5kaAzzdYWnfAYDjbpisU%2B%2BZiEbGstljrf1ZPdoGZUfBe1xVYXupWvo7Z%2F3k6p7ZT0STZq2sKhaYuXrMwcQaO3ZsrjeIayfW%2Bt2mqrsSQAKY3oaixVp7HYzSjj4rJqK%2FgueOqr4C37osGuThBKGqD4vIXmbuo6bG%2By%2BXy%2BCzJyPswtxi5h8x82cqlUquwgVticitWITDMIQnSOYdEh48ULO7tph5TZabXHI8UF7EY91DREuTZU09YyXGNy34xsRaW4HrzmmnnfbBvMr4hggrOoRTL2R9h5PmiZUDOwtWZQRjjMVOmKZrJq2qI7ATM%2FM0fHIRhmGtk2QGE9grssYAgOAynlGlUdYx%2BHQEu1%2Fejt2IQbIcx24i%2BjJW3cqlD83qunJVNOnyR6oe%2FdZafDdX4yCdrJv3jCMVXIOgJTXGwIUqzLp3ZdWHSSAe2ydxD8qicXlY0DzPOyWLDsDD7u5OCS7GnDHGfKwRwF0biHHPRD3IHSeuZFnyGX0HHdoCaBoBFn109M3KJ9le63mISMDOXDFr0hWPRZVLH6rrCDxEhtPqZksCR1YCOMZMLxSOtjNXXHX6ZSsjO%2FOB6lEw%2FVnDke1lq%2FWWBIaABHDcxlElVlCsM177ReElj8wJZz4UlS95eIkUx5xjrV0NnQTuCrFipa49bwgMu9XFlgQGTwJBEPx9GIZQ6uA%2FLuBneFf7KR%2F5sF78wK168YNR%2BPUHfzSiUBiuqrDxwXSxP3Zb6vUuH7zetTi3JDA0JYC%2FLlgMrZ0xBuaG0YXC9KN1xn2fl68u36IX3hfJhfe9JBf88ILKZ1e8Dyp2Zl4LeiLaBkXM0Bx2q9ctCQySBIjoG0mXIGPMVWiqPGPpNZWL7o%2FCGcsi%2B5V3wsSvPRjpV5cvQTk%2B1Yi92qE6fxPGYPg1DlI3W2xbEhhSEhgGUwMz35gwrO4vFosljEK%2B9MNyZcayWeUvL10cfmX5nPD8ZZO9%2BdGx8Y61xRk%2F4TEPA34j%2F8khJZlWZ1sSOFQJwCUJrlMOKLHfID63ubxEpbMC1RCfURDR1%2BKvjV91tPE%2FX2V%2FiHeoHWvVb0lgKEsg9mqp%2BuzheAePdLeDpWMACuUugJ6I1rR2q6E8A1p9HzQJxN4js%2FGJD9Tp8EjBp%2BIOWAAUQIQ7GHwtJ0yYMBK%2BgMz8l42chAet0y3GLQkMVQmICHwg3Q6W%2B0emQ3V8rX63JNCSQEsCNRL4f826WDz1IoxRAAAAAElFTkSuQmCC%3B%22%20vertex%3D%221%22%20parent%3D%221%22%3E%3CmxGeometry%20x%3D%22175.5%22%20y%3D%22211%22%20width%3D%22120%22%20height%3D%2216.82%22%20as%3D%22geometry%22%2F%3E%3C%2FmxCell%3E%3C%2Froot%3E%3C%2FmxGraphModel%3E&lt;/span&gt;" style="edgeLabel;html=1;align=center;verticalAlign=middle;resizable=0;points=[];fontSize=12.5;fontColor=#808080;labelBackgroundColor=none;container=0;" parent="1" vertex="1" connectable="0">
          <mxGeometry x="448.3700000000001" y="488.32000000000005" as="geometry">
            <mxPoint x="6" y="6" as="offset" />
          </mxGeometry>
        </mxCell>
        <mxCell id="zU_sP0cB1sATBuBRFiv1-66" style="edgeStyle=none;rounded=0;orthogonalLoop=1;jettySize=auto;html=1;entryX=0;entryY=0.5;entryDx=0;entryDy=0;dashed=1;startArrow=classic;startFill=1;endArrow=classic;endFill=1;strokeColor=#C0399F;strokeWidth=1;fontSize=16;" parent="1" edge="1">
          <mxGeometry relative="1" as="geometry">
            <mxPoint x="1034.37" y="638.4300000000001" as="sourcePoint" />
            <mxPoint x="1034.37" y="638.4300000000001" as="targetPoint" />
          </mxGeometry>
        </mxCell>
        <mxCell id="zU_sP0cB1sATBuBRFiv1-75" value="&lt;span style=&quot;color: rgba(0, 0, 0, 0); font-family: monospace; font-size: 0px; text-align: start;&quot;&gt;%3CmxGraphModel%3E%3Croot%3E%3CmxCell%20id%3D%220%22%2F%3E%3CmxCell%20id%3D%221%22%20parent%3D%220%22%2F%3E%3CmxCell%20id%3D%222%22%20value%3D%22%26lt%3Bb%26gt%3B%26amp%3Bnbsp%3B%26lt%3B%2Fb%26gt%3B%26lt%3Bspan%20style%3D%26quot%3Bfont-weight%3A%20bold%26quot%3B%26gt%3BSubaccount%26lt%3B%2Fspan%26gt%3B%26lt%3Bb%26gt%3B%26lt%3Bbr%26gt%3B%26lt%3B%2Fb%26gt%3B%22%20style%3D%22rounded%3D0%3BwhiteSpace%3Dwrap%3Bhtml%3D1%3BstrokeColor%3D%23074D92%3BstrokeWidth%3D2%3BfillColor%3Dnone%3Balign%3Dleft%3BverticalAlign%3Dtop%3BfontSize%3D11%3BfontFamily%3DArial%3Bcontainer%3D0%3BrecursiveResize%3D0%3Bcollapsible%3D0%3BfontColor%3D%23595959%3B%22%20vertex%3D%221%22%20parent%3D%221%22%3E%3CmxGeometry%20x%3D%22170%22%20y%3D%22186%22%20width%3D%22910%22%20height%3D%22520%22%20as%3D%22geometry%22%2F%3E%3C%2FmxCell%3E%3CmxCell%20id%3D%223%22%20value%3D%22%22%20style%3D%22shape%3Dimage%3BverticalLabelPosition%3Dbottom%3BlabelBackgroundColor%3D%23ffffff%3BverticalAlign%3Dtop%3Baspect%3Dfixed%3BimageAspect%3D0%3Bimage%3Ddata%3Aimage%2Fpng%2CiVBORw0KGgoAAAANSUhEUgAAANYAAAAeCAYAAABQWOD3AAAQuUlEQVR4Ae1cC7RVxXk%2B%2BKiRtDaJbZJiTEmkQC964dx99p7%2FMftw5D4Ag7Y20nfTpImmqzElUZtlUmzq0lRqFKJBDC5RqaJI1NgFwZVYpVpDtEHlYZSHKK%2BgEsFC8BFBd9d33HPdZ9%2B9zzn3wpV11zpnrVmzZ%2Baff2b%2BPd88%2Fv%2Ffp1Bo%2FVoSaEngvZGAMeYjzHw2M88QkQuCIPgLZh6V17ox5oRSqXRGXnl%2F8plZmPl8Zr5CRL5ljDnP9%2F0JzfAQkQkdHR3tzdCWSqUKM5%2BUpg2CgJl5SjKUSqWpvu%2BXPc%2F7eJq%2BUXrUqFHH%2Bb4vfhM%2FVS1NnTr1uEY8gyCYLCI3MPMeEYmY%2BTUiuiMIgumFQuHoRvWJqAPdMcZ49WjPO%2B%2B8Y123S6XSmCxazBXf9yeqqs0qd3mq%2BnFjzOmg9X3%2Fky7fxZ7nDY%2FLy5B1Ikxk5kBEft%2FRNoqNMW14vwkevfyYeSLGr6q%2FlcenWCz%2BLhFV66NPY8aMyaUFjyAISq4tEZnUh2%2BxWGwTkYfCMIzCMFzLzEtF5D%2BttT8VkbdFZIPv%2B53pihj4xIkTo3R%2Bf9LxRN6uqq%2BJyMNEdCczf99a%2B6i1NlLVHR0dHZPr8TTGLFfV2%2BrRuDIi2m2M%2BTuXdrG19nFVfdVai77sSITdkIuI7PZ9f0ahUBjm6tSLsSB1dnZCnk2FIAhG5%2FHzPM8y8y8gDwAqHeL8V0ul0qfzeCBfVd8CrbX24PTp03OB2N7e%2FjHXb1V9NIsnEX2hXC5Xx0ZE87JokOf7%2FqWYI%2BDHzN9N06nquEqlUldGzPwqEV3d3t7%2B4XT9ZFpElro%2Buf4nY5TFsvpxEASfSNbFs%2Bd5x4rILtSJaX%2BSpnFpLBKON2iZ%2BVJXVo2NMX%2BOAiK6vq2t7TdqCuMEEV2gqm8GQXB1shwrbblcPpDM68fzMCL6V2vt28aYy%2FLqEdFlGAB2sTwaZr5bVW%2FOK0%2FmG2O2BUHwmWQenjGBVLVWODER5GKM%2BQeATkRexGqdrp9Oi8gpmDBpEGSlwzB8HfRpHkjjRJAEFDNjsfklMz%2Bnqi8w81uOJ%2BiI6NosPshT1V%2FFtHvrAatYLI5wPFV1RRY%2FIvqsqvaOz%2Ff9M3Po%2Fhn9Ai0zz07TENEfxu%2B3l5drOyN%2BEztSmodLqyrmQS8fPCdDkh%2Fa9DzvNFc3joeJiB9vJlUQ5o1LRHY6fkT00xo%2B2O4AqmKx2FVTkJHwPO%2F3mLlm5zgUYBlj%2FqZcLr%2BB7TmjuZosHKkgIGPM52oK4sThAhYzX5nFP5lHRP%2BDIxgzH5%2FMTz8ngcXMe3FkI6IlOeGOLLDiqJEElarez8w1kwHHVOzyInIALxpyIqKZ6f4gPZjAwm6YtQsQUdPAIqJdxpg5RHSNMQZhgYjg1ISFpwoYtDN%2B%2FPhxOeOrAgsywJwQkcuxILtARDdhYUzw2o0je5oXEc0Cj5hub5rGGHNlgsdBHCFreIjIviAIvlGT2Y%2FEQIEVBMGJqvrrIAjOb7Y5HD3CMNyLe126znsJLLSNnYuIbkn3I5lOAktVNyTLmnlub29%2FPzO%2FEL%2FAt4Mg%2BOI79aJhPHv78Wffs%2BPEM%2BfvHF4oRNWjKe6DzPxr0OMU4Hne2HQ7gwmsuJ%2Bvp%2B8l%2FQEWMz%2BR7jPS48ePPwnXETeZReSpLDq3Y2GzCMPwnCyaQqFwFDO%2FAl6gK5VKQRadMeZ50MQgvd3RYAF0ixgWvSAIprmyamyM%2BbS19pWazH4mBgos3HGstS%2F2pzmsGtZaHH363I%2Fea2AFQTAekxcLRN4YksCy1gJYTd3NHD%2Ff9%2F%2FarZqqegXyOxfuOPGMe3Z854y7tr1%2B1tJd0bQfbD9w5r0v3TxtyfaqMgaLj5t8RHR%2Fus1BBBbux26FfzJ5zOwPsEQkE1gYO3YFZn4D7eCOCCWDk5WLmwRWgZmxw7vd%2Fc9c%2FWTs%2B%2F44VYV%2BAXRvqSqUOMNw102M9fvJOtVnZl5ERIv6FPQjY6DAUlUciW7qR1NVUiK6jplXpuu918DCqofd0%2FO809N9cekMYLmihjEmJjOvcC%2FV87zfNtduOuFTd%2B%2FcOWXxlmjK4ueiqXc%2B%2F05YsiU6a%2BmufVMXbzoFd0ER2Yp6AP6ECRM%2BkGxssIDFzN9R1d1uwuEY59o9XMACPyL6pltsmHm%2Ba8PFzQKLiJbHMsJi8EeufjoWkZluTBifMeZCl2bm%2FW1tbb%2BZroPz9v5Yy9WnrNmMgQALL99a%2BxQR%2FWOz7Tg6qJWxa7m0i48AsLDqbe6jCXIdKhQKSWCp6laouKFFTQciMqBNVIV2arg71jHzRpR13%2FrsnVNufy7quXVT1HPbs9UwedHmaPLtm6Mq2JZsrWqwoITC5MPlHKtuku9gAYuIZp966qknq%2BpBN%2FF83%2F9TtH2YgVXB8Q1tMPN%2FJ8eG5ySwiOhP0uVI447KzNU7G7SVaRml6mCB2%2BTG5GLI1xiTbd7B%2BTBPGZBinpscCLBGjhz5PlV9HseWXMY5BaVSqTsMw13p4iMBLCJahR003ReXTgIrfiHQ3vUJ8QpcYyqArSXOxySqAqZn4XMbu2%2FZGHXfsqEaehZujHr%2B490w7d4XX5i6PDqOmb%2BEurHSw3f9QTyYwAJ%2FTGY3%2BUTkIDMXjTFfR1%2FQpya0grlHQfCHXdMBK8sM4IAVyw5mIyh7%2FisO9%2BOdufsR%2BsnMjyaPrUlZuWfY4ZKa17jev7nyPrGqvnQoigswHAiwYlvBz7CS9elUgwyoeJl5e5rsSABLRH7BzBen%2B%2BLSaWDhZWcFTDpm7r0coz6OGFCrx5N0NfJ6btq4suvG9VHXjU9H3QueeSfctD7qRrh5QzRl0dbNoCOiy9FOvGPVGNgdsFR1X70JBaOsA4iqPujGlIyT6nbsWK5MROYl6u4KguDfDxewYCB3qnmAxbXpYgcs135eDPkw89N9tHmOUSr2fT95BHwZczhF8m7SGPM9Irrv3Zz%2BPw0EWGhFROaLyLL%2BtigidxHRPel6xpi7mrVjEREWlEw7VjPqdrRdqVSOKZfLrxljKN0Xl04CC%2FYmKGyI6Nx0YOYvBkFQY7WP70rr44nxGl7kxOvWnNm9YP2Bzu%2Bti7puQPh5b5i8cHPUteCZc9G2iDyJepiA0Ka5%2FiBm5pfdZMPJIVmWfIaXhKNT1cx7eB6wYq0bdga3MFQ1lfFk7gWgay9lx6q7Y6nqXPAFLxiMHQ8Xp4D1srV2GwIz9x5RjTE7jTHn1Bu%2F4%2BdiY8wfoE20HSuFXFHf2Pf9LhDjJfYtbS5noMCCt0UYhm%2FUcy9J94CZP2St3W%2BM6UmXwXCNCYWXmi5LpuP73etEpMl8PONo0SywiOhvcZ%2Bo1%2F8ksKy169PtNUoz87%2B4SQQNLugnzX3qC53z1h7ovG5N1DlvbdQ5b03UdcPTUdf8p6u7f6lUKjrjJnb29K7EzKvwzgE6Y0zupd0Yc68DBgzjWX2tA6zCqFGjTlDVXnuRG8ehHAWhFk9o6Q5k3Y0csHBchJ20Uql8AAoc3%2Fc%2F54ChqrCdZhqzs8aJPGgEXf2snbJPPVyMYVzsU9BkxiEA63gReYaZFzbZFI4416rqpkKh0Gcbhp8ghOn7%2Fsn1%2BDHzWGvtW7ARpemaBVZbW9tHwzDcn2eEdXxTwBqIuv3kxH3gV84uNemaJ2d3zV0bdV77RNR9%2Fbro9Lmrq%2Fcz2FeYudf2knV5N8Zc4iaIqm72ff%2Bjrr8u9jyvQ0TeBBgg046Ojkxf0XrAAi8oa1S1arRuFlhZdiwsqABJcrfNm9xJYKXtWLjrubFbawGuPourk0E67jewoNmIBw93oVzfMTQEjRzUnclGBwqsmB9j12Lmf0ryzHqGmhM7RD1hiMj%2Fwlcs7%2FwLw6WIbMRxMquNZoAFAEPDx8xQKNSV16ECC300xlzkJgOMotAW9nx7zfu7vrvm5UlzVkVdc1cfKF%2F2WNXnjYh%2B7GhV9ZH0bgV%2B2LFVdZub6CICQ%2Fc3YeTEDkZEV0FbjHIEXP6zZIW8RsCKac5N9An86h4FiWhfSuGwEvJ2%2FYl57UwfcV0f6wELNMxcPUrG49%2BXtes5Xsm438BC5fg8Dd%2Bzx4IgOBsuMjjixF7HWAXhwQxXkT1BEHw%2B2SBcbsrl8kG4O8GdJS%2Fk7SRBEPyxqv4f7luxBgleFZiwR1lrPwhXJhG5FzSxB3ey%2BZrn0aNHn4SXoKoPwFM9HsOx4APXLVVdJyLrRowYMbymYpyIgXU9xu%2FGAUdL3AFE5FNEdDMchYno7qwdL83zcACrUCgcE7db1fIRUdWY2XnVqmVds1dF3desrvqoxbuD07yt9zzvd9L9cWl4rcOtJznh8exCPOkArA3jxo37kKuXjpsBFurAG9%2B11QhYDkDp2PUNc9Tt3On%2BIN0IWLGB9weOP3wui8ViQ%2B%2F5AQELHcKRwFp7NazK8QrxDBH93Fq7GauaiCzI8r6Gnx%2F8%2FVR1i7V2a17AbpIlCOThswRr7SLYp%2BD6Y4x5nJkfF5FnMQGstXfUE2aSL7yfVXUheInIeiJaLSKbYt5z0u42ybrQfllrf5kaAzzdYWnfAYDjbpisU%2B%2BZiEbGstljrf1ZPdoGZUfBe1xVYXupWvo7Z%2F3k6p7ZT0STZq2sKhaYuXrMwcQaO3ZsrjeIayfW%2Bt2mqrsSQAKY3oaixVp7HYzSjj4rJqK%2FgueOqr4C37osGuThBKGqD4vIXmbuo6bG%2By%2BXy%2BCzJyPswtxi5h8x82cqlUquwgVticitWITDMIQnSOYdEh48ULO7tph5TZabXHI8UF7EY91DREuTZU09YyXGNy34xsRaW4HrzmmnnfbBvMr4hggrOoRTL2R9h5PmiZUDOwtWZQRjjMVOmKZrJq2qI7ATM%2FM0fHIRhmGtk2QGE9grssYAgOAynlGlUdYx%2BHQEu1%2Fejt2IQbIcx24i%2BjJW3cqlD83qunJVNOnyR6oe%2FdZafDdX4yCdrJv3jCMVXIOgJTXGwIUqzLp3ZdWHSSAe2ydxD8qicXlY0DzPOyWLDsDD7u5OCS7GnDHGfKwRwF0biHHPRD3IHSeuZFnyGX0HHdoCaBoBFn109M3KJ9le63mISMDOXDFr0hWPRZVLH6rrCDxEhtPqZksCR1YCOMZMLxSOtjNXXHX6ZSsjO%2FOB6lEw%2FVnDke1lq%2FWWBIaABHDcxlElVlCsM177ReElj8wJZz4UlS95eIkUx5xjrV0NnQTuCrFipa49bwgMu9XFlgQGTwJBEPx9GIZQ6uA%2FLuBneFf7KR%2F5sF78wK168YNR%2BPUHfzSiUBiuqrDxwXSxP3Zb6vUuH7zetTi3JDA0JYC%2FLlgMrZ0xBuaG0YXC9KN1xn2fl68u36IX3hfJhfe9JBf88ILKZ1e8Dyp2Zl4LeiLaBkXM0Bx2q9ctCQySBIjoG0mXIGPMVWiqPGPpNZWL7o%2FCGcsi%2B5V3wsSvPRjpV5cvQTk%2B1Yi92qE6fxPGYPg1DlI3W2xbEhhSEhgGUwMz35gwrO4vFosljEK%2B9MNyZcayWeUvL10cfmX5nPD8ZZO9%2BdGx8Y61xRk%2F4TEPA34j%2F8khJZlWZ1sSOFQJwCUJrlMOKLHfID63ubxEpbMC1RCfURDR1%2BKvjV91tPE%2FX2V%2FiHeoHWvVb0lgKEsg9mqp%2BuzheAePdLeDpWMACuUugJ6I1rR2q6E8A1p9HzQJxN4js%2FGJD9Tp8EjBp%2BIOWAAUQIQ7GHwtJ0yYMBK%2BgMz8l42chAet0y3GLQkMVQmICHwg3Q6W%2B0emQ3V8rX63JNCSQEsCNRL4f826WDz1IoxRAAAAAElFTkSuQmCC%3B%22%20vertex%3D%221%22%20parent%3D%221%22%3E%3CmxGeometry%20x%3D%22175.5%22%20y%3D%22211%22%20width%3D%22120%22%20height%3D%2216.82%22%20as%3D%22geometry%22%2F%3E%3C%2FmxCell%3E%3C%2Froot%3E%3C%2FmxGraphModel%3E&lt;/span&gt;" style="edgeLabel;html=1;align=center;verticalAlign=middle;resizable=0;points=[];fontSize=12.5;fontColor=#808080;labelBackgroundColor=none;container=0;" parent="1" vertex="1" connectable="0">
          <mxGeometry x="656.3700000000001" y="593.4300000000001" as="geometry">
            <mxPoint x="6" y="6" as="offset" />
          </mxGeometry>
        </mxCell>
        <mxCell id="zU_sP0cB1sATBuBRFiv1-71" value="&lt;span style=&quot;font-family: Helvetica; font-size: 11px; font-style: normal; font-variant-ligatures: normal; font-variant-caps: normal; font-weight: 700; letter-spacing: normal; orphans: 2; text-indent: 0px; text-transform: none; widows: 2; word-spacing: 0px; -webkit-text-stroke-width: 0px; background-color: rgb(248, 249, 250); text-decoration-thickness: initial; text-decoration-style: initial; text-decoration-color: initial; float: none; display: inline !important;&quot;&gt;SAP Business Accelerator Hub&lt;/span&gt;" style="text;whiteSpace=wrap;html=1;align=center;container=0;fontSize=11;verticalAlign=middle;fontColor=#074d92;" parent="1" vertex="1">
          <mxGeometry x="857.99" y="903.2900000000001" width="205.72" height="40" as="geometry" />
        </mxCell>
        <mxCell id="zU_sP0cB1sATBuBRFiv1-84" value="&lt;font style=&quot;font-size: 11px;&quot;&gt;&lt;span style=&quot;font-size: 11px;&quot;&gt;&lt;b style=&quot;font-size: 11px;&quot;&gt;SAP Integration Suite&lt;/b&gt;&lt;/span&gt;&lt;/font&gt;" style="text;whiteSpace=wrap;html=1;align=center;container=0;fontSize=11;fontColor=#074d92;" parent="1" vertex="1">
          <mxGeometry x="879.76" y="599.06" width="133.12" height="27.52" as="geometry" />
        </mxCell>
        <mxCell id="zU_sP0cB1sATBuBRFiv1-83" value="" style="shape=image;verticalLabelPosition=bottom;verticalAlign=top;imageAspect=0;aspect=fixed;image=data:image/svg+xml,PHN2ZyB4bWxucz0iaHR0cDovL3d3dy53My5vcmcvMjAwMC9zdmciIGlkPSJpbnRlZ3JhdGlvbi1zdWl0ZSIgdmlld0JveD0iNC4wMDAwMDE5MDczNDg2MzMgMy45OTk5OTkwNDYzMjU2ODM2IDQ4IDQ3Ljk5OTk5NjE4NTMwMjczNCIgd2lkdGg9IjQ4IiBoZWlnaHQ9IjQ3Ljk5OTk5NjE4NTMwMjczNCI+PGRlZnM+PHN0eWxlPi5jbHMtMXtmaWxsOiMwNzRkOTI7fS5jbHMtMntmaWxsOiMwYTZlY2Y7fS5jbHMtM3tmaWxsOiMwMDNiNzQ7fTwvc3R5bGU+PC9kZWZzPjxwYXRoIGNsYXNzPSJjbHMtMSIgZD0iTTI4LDZBMjIsMjIsMCwxLDEsNiwyOCwyMi4wMjUsMjIuMDI1LDAsMCwxLDI4LDZtMC0yQTI0LDI0LDAsMSwwLDUyLDI4LDI0LDI0LDAsMCwwLDI4LDRaIi8+PHBhdGggY2xhc3M9ImNscy0yIiBkPSJNMjEuMzU0LDI5LjM2NGgxLjQ3NWExLjQ3OCwxLjQ3OCwwLDAsMCwxLjQ3Ny0xLjQ3M2wxLjQ3OC41NzR2LjlhMS40NDUsMS40NDUsMCwwLDAsLjI3NS44MTFsLTEuNjQxLDIuMTY3Yy0uMDM5LDAtLjA3Mi0uMDIzLS4xMTItLjAyM0gyMi44MzFBMS40NzksMS40NzksMCwwLDAsMjEuMzUyLDMzLjh2MS40NzVhMS40NzksMS40NzksMCwwLDAsMS40NzksMS40NzhoMS40NzVhMS40NzgsMS40NzgsMCwwLDAsMS40NzgtMS40NzhWMzMuOGExLjQ0OCwxLjQ0OCwwLDAsMC0uNjQzLTEuMTg3bDEuNDY4LTEuOTM4YTEuNDQzLDEuNDQzLDAsMCwwLC42NTQuMTY5aDEuNDc1YTEuNDM1LDEuNDM1LDAsMCwwLC43MzMtLjIyM2wuOTY4Ljk2OGExLjQzNSwxLjQzNSwwLDAsMC0uMjIzLjczM3YxLjQ3NWExLjQ3OSwxLjQ3OSwwLDAsMCwxLjQ3OCwxLjQ3OWgxLjQ3NWExLjQ3OSwxLjQ3OSwwLDAsMCwxLjQ3OS0xLjQ3OVYzMi4zMTlhMS40NzksMS40NzksMCwwLDAtMS40NzktMS40NzhIMzEuNjk0YTEuNDM1LDEuNDM1LDAsMCwwLS43MzMuMjIzbC0uOTY4LS45NjhhMS40MzUsMS40MzUsMCwwLDAsLjIyMy0uNzMzdi0xLjRsMS43LS44MjZhMS40NTcsMS40NTcsMCwwLDAsMS4yNjEuNzUzaDEuNDc1YTEuNDc4LDEuNDc4LDAsMCwwLDEuNDc4LTEuNDc4VjI0LjkzM2ExLjQ3OCwxLjQ3OCwwLDAsMC0xLjQ3OC0xLjQ3OEgzMy4xNzJhMS40NzgsMS40NzgsMCwwLDAtMS40NzksMS40Nzh2MS40NzVsMCwuMDA5LTEuNjU1LjgwNmExLjQ2NSwxLjQ2NSwwLDAsMC0xLjMtLjgxNGgtLjg4NGwtLjU4MS0xLjQ4YTEuNDc3LDEuNDc3LDAsMCwwLDEuNDY2LTEuNDc2VjIxLjk3OEExLjQ3OSwxLjQ3OSwwLDAsMCwyNy4yNiwyMC41SDI1Ljc4NWExLjQ3OCwxLjQ3OCwwLDAsMC0xLjQ3OCwxLjQ3OHYxLjQ3NWExLjQ3OSwxLjQ3OSwwLDAsMCwxLjQ3OCwxLjQ3OWguN2wuNTk0LDEuNTEyYTEuNDUyLDEuNDUyLDAsMCwwLTEuMjUsMS4yNDRMMjQuMzA3LDI3LjFWMjYuNDFhMS40NzgsMS40NzgsMCwwLDAtMS40NzgtMS40NzhIMjEuMzU0YTEuNDc5LDEuNDc5LDAsMCwwLTEuNDc5LDEuNDc4djEuNDc1QTEuNDc5LDEuNDc5LDAsMCwwLDIxLjM1NCwyOS4zNjRabTIuOTUyLDUuOTA5SDIyLjgzVjMzLjhsMS40NzYsMFptNy4zODgtMi45NTVoMS40NzdsMCwxLjQ3NkgzMS42OTNabTEuNDc4LTcuMzg2aDEuNDc2djEuNDc2SDMzLjE3MVptLTQuNDMzLDIuOTU1djEuNDc3SDI3LjI2MWwwLTEuNDc3Wm0tMi45NTQtNC40MzJWMjEuOTc3aDEuNDc2djEuNDc3Wm0tNC40MzEsMi45NTRIMjIuODN2MS40NzZIMjEuMzUyWiIvPjxwYXRoIGNsYXNzPSJjbHMtMiIgZD0iTTM3Ljc0NCwzMy41SDM2LjEyNXYxLjYyNWgxLjYxOWwuMDA2LjAwNi0uMDA2LDMuMjQ0TDE4LjI1LDM4LjM2M2wuMDA2LTMuMjQ0LDEuNjE5LjAwNlYzMy41bC0xLjYxOS0uMDA2YTEuNjMxLDEuNjMxLDAsMCwwLTEuNjMxLDEuNjMxdjMuMjM4YTEuNjMxLDEuNjMxLDAsMCwwLDEuNjMxLDEuNjMxTDM3Ljc0NCw0MGExLjYzMSwxLjYzMSwwLDAsMCwxLjYzMS0xLjYzMVYzNS4xMzFBMS42MzEsMS42MzEsMCwwLDAsMzcuNzQ0LDMzLjVaIi8+PGNpcmNsZSBjbGFzcz0iY2xzLTIiIGN4PSIzMi44NzUiIGN5PSIzNi43NSIgcj0iMC44MTMiLz48Y2lyY2xlIGNsYXNzPSJjbHMtMiIgY3g9IjM1LjMxMyIgY3k9IjM2Ljc1IiByPSIwLjgxMyIvPjxwYXRoIGNsYXNzPSJjbHMtMyIgZD0iTTM3LjY2MywyMS4wMjFhNC42LDQuNiwwLDAsMC02LjkyNC0zLjA5NEE1Ljk2OCw1Ljk2OCwwLDAsMCwyNC45NzIsMTRjLTYuNTM0LDAtNi4xMzEsNy4wMzUtNi4xMzEsNy4wMzVhNS41MzgsNS41MzgsMCwwLDAsMS4wMzQsMTAuNzdWMzAuMThhMy45NDYsMy45NDYsMCwwLDEtMy4yNS0zLjg3Niw0LjAxMyw0LjAxMywwLDAsMSwyLjcyMy0zLjcyNWwxLjIzNC0uNDE2LS4xMjUtMS4yOTRhNC45NDYsNC45NDYsMCwwLDEsMS4wODktMy44QTQuMTkyLDQuMTkyLDAsMCwxLDI1LDE1LjYyNmE0Ljk4OCw0Ljk4OCwwLDAsMSw0LjMzLDIuODkybC42MzcsMS41NTUsMS4zMTMtLjcxNGE0LjExNSw0LjExNSwwLDAsMSwxLjgzNi0uNDg0LDMsMywwLDAsMSwyLjk0OCwyLjQ0N2wuMTU2LjgyOC43NjcuMzVhNC4wNTQsNC4wNTQsMCwwLDEtLjg2NCw3LjY2OHYxLjYyNWE1LjY2NCw1LjY2NCwwLDAsMCwxLjUzOC0xMC43NzJaIi8+PC9zdmc+;strokeColor=#053b70;imageBackground=default;" parent="1" vertex="1">
          <mxGeometry x="922.3199999999999" y="553.73" width="48" height="48" as="geometry" />
        </mxCell>
        <mxCell id="zU_sP0cB1sATBuBRFiv1-85" value="" style="shape=image;verticalLabelPosition=bottom;verticalAlign=top;imageAspect=0;aspect=fixed;image=data:image/svg+xml,PHN2ZyB4bWxucz0iaHR0cDovL3d3dy53My5vcmcvMjAwMC9zdmciIGlkPSJhcGktbWFuYWdlbWVudCIgdmlld0JveD0iNC4wMDAwMDE5MDczNDg2MzMgMy45OTk5OTkwNDYzMjU2ODM2IDQ4IDQ3Ljk5OTk5NjE4NTMwMjczNCIgd2lkdGg9IjQ4IiBoZWlnaHQ9IjQ3Ljk5OTk5NjE4NTMwMjczNCI+PGRlZnM+PHN0eWxlPi5jbHMtMXtmaWxsOiMwNzRkOTI7fS5jbHMtMntmaWxsOiMwNTNiNzA7fS5jbHMtM3tmaWxsOiMwYTZlZDE7fTwvc3R5bGU+PC9kZWZzPjx0aXRsZT5hcGktbWFuYWdlbWVudF9jaXJjbGU8L3RpdGxlPjxwYXRoIGNsYXNzPSJjbHMtMSIgZD0iTTI4LDZBMjIsMjIsMCwxLDEsNiwyOCwyMi4wMjUsMjIuMDI1LDAsMCwxLDI4LDZtMC0yQTI0LDI0LDAsMSwwLDUyLDI4LDI0LDI0LDAsMCwwLDI4LDRaIi8+PHBhdGggY2xhc3M9ImNscy0yIiBkPSJNMjguMjI1LDI5Ljk3OGE4LjM1Miw4LjM1MiwwLDAsMS0xLjUyLS44ODlsLTMuMzg5LDQuNDgyYTQuNDYzLDQuNDYzLDAsMCwwLTEuNjk0LS4zMjhBNC4zNzQsNC4zNzQsMCwxLDAsMjYsMzcuNjE2YTQuMTIsNC4xMiwwLDAsMC0xLjI1Ny0zLjA2MVptLTYuNiwxMC4yNjNhMi42MjUsMi42MjUsMCwxLDEsMi42MjQtMi42MjVBMi41OTEsMi41OTEsMCwwLDEsMjEuNjIyLDQwLjI0MVoiLz48cGF0aCBjbGFzcz0iY2xzLTIiIGQ9Ik0yMC43NDcsMjcuMjNjMC0uMTY0LDAtLjMyOC0uMDU1LS4zODNsMy41LS43MTEtLjAyLS4wNTFjLS4yMzItLjQ2NS0uNC0xLjE5Mi0uNTg0LTEuNjYybC0uMDUyLjAxOS0zLjMzNS43MUE0LjMxNyw0LjMxNywwLDAsMCwxNi4zNzMsMjIuOCw0LjQsNC40LDAsMCwwLDEyLDI3LjIzYTQuMzc0LDQuMzc0LDAsMCwwLDguNzQ3LDBaTTE2LjM3MywyOS44YTIuNTQ1LDIuNTQ1LDAsMCwxLTIuNjI0LTIuNTY5LDIuNjI1LDIuNjI1LDAsMSwxLDUuMjQ5LDBBMi41NDYsMi41NDYsMCwwLDEsMTYuMzczLDI5LjhaIi8+PHBhdGggY2xhc3M9ImNscy0yIiBkPSJNMzUuODksMzMuMjQzaC0uNTQ3TDM0LjUxOCwzMC4yYTguMjgxLDguMjgxLDAsMCwxLTEuNy40MjZsLjgyOSwzLjExM2E0LjM2LDQuMzYsMCwwLDAsMS42OTQsOC4yNTUsNC4zODIsNC4zODIsMCwwLDAsLjU0Ny04Ljc0N1ptMi4zNTEsNC41MzhhMi42NjYsMi42NjYsMCwwLDEtMi43ODksMi40NiwyLjYzLDIuNjMsMCwxLDEsMi43ODktMi40NloiLz48cGF0aCBjbGFzcz0iY2xzLTMiIGQ9Ik0yOC4yMzYsMjkuOTYzYTguMjc3LDguMjc3LDAsMCwwLDMuMzkuNzY1LDguMTMxLDguMTMxLDAsMCwwLDEuMi0uMTA5aDBhOC4zNTQsOC4zNTQsMCwxLDAtOS41NjgtOC4yNTYsOS40NDUsOS40NDUsMCwwLDAsLjI3NCwyLjA3OGwuMDYzLjI1OWE3LjU0LDcuNTQsMCwwLDAsLjU3MywxLjM4NGwuMDIuMDUxYTguMjM0LDguMjM0LDAsMCwwLDIuNTE1LDIuOTUyaDBBOC4zNzUsOC4zNzUsMCwwLDAsMjguMjM2LDI5Ljk2M1ptMS43NS0zLjk5MUgzMy4zMmE2LjgxMiw2LjgxMiwwLDAsMS0xLjY5NCwyLjU3QTYuNSw2LjUsMCwwLDEsMjkuOTg2LDI1Ljk3MlptLS40MzgtMS42OTRhNy4zNDcsNy4zNDcsMCwwLDEtLjIxOC0xLjkxNCw4LjQ0Nyw4LjQ0NywwLDAsMSwuMTY0LTEuN2g0LjMxOWMuMDU0LjYuMTA5LDEuMDk0LjEwOSwxLjdhMTAuNDM5LDEwLjQzOSwwLDAsMS0uMTY0LDEuOTE0Wm0zLjIyNiw0LjY0NmE4LjYxNiw4LjYxNiwwLDAsMCwxLjY0LTIuOTUyaDIuODQyQTYuOTMyLDYuOTMyLDAsMCwxLDMyLjc3NCwyOC45MjRabTUuMy04LjI1NWE1LjMxNyw1LjMxNywwLDAsMSwuMjE4LDEuNyw4LjA4Miw4LjA4MiwwLDAsMS0uMjczLDEuOTE0SDM0LjhhMTAuMzUyLDEwLjM1MiwwLDAsMCwuMTY0LTEuOTE0YzAtLjYtLjA1NC0xLjA5My0uMTA5LTEuN1ptLS43MTEtMS42MzloLTIuOUE3LjM0MSw3LjM0MSwwLDAsMCwzMi43MTksMTUuOCw2LjgxNiw2LjgxNiwwLDAsMSwzNy4zNjYsMTkuMDNabS0zLjk5MSwwSDI5LjkzMWE3LjI2Miw3LjI2MiwwLDAsMSwxLjctMi45QTYuNjY0LDYuNjY0LDAsMCwxLDMzLjM3NSwxOS4wM1pNMzAuNTMyLDE1LjhhOS40LDkuNCwwLDAsMC0xLjc0OSwzLjIyNmgtMi45QTYuOTMzLDYuOTMzLDAsMCwxLDMwLjUzMiwxNS44Wm0tNS4yNDgsOC40NzRhNS40MjgsNS40MjgsMCwwLDEtLjMyOC0xLjkxNCw2LjAyMSw2LjAyMSwwLDAsMSwuMjE5LTEuN2gzLjI4YTguNTIsOC41MiwwLDAsMC0uMTY0LDEuNywxMC40MzksMTAuNDM5LDAsMCwwLC4xNjQsMS45MTRabS43NjYsMS42OTRoMi43ODhhOS42LDkuNiwwLDAsMCwxLjY0LDIuOTUyQTYuODE2LDYuODE2LDAsMCwxLDI2LjA1LDI1Ljk3MloiLz48L3N2Zz4=;strokeColor=#053b70;imageBackground=default;" parent="1" vertex="1">
          <mxGeometry x="936.85" y="865.7800000000001" width="48" height="48" as="geometry" />
        </mxCell>
        <mxCell id="iHJWS2E2XfHQ0dYjlzIA-8" value="HTTPS" style="rounded=1;whiteSpace=wrap;html=1;arcSize=50;fillColor=#595959;fontColor=#FFFFFF;strokeColor=#595959;fontFamily=Helvetica;fontSize=11;autosize=1;absoluteArcSize=1;strokeWidth=2;labelBackgroundColor=#595959;" parent="1" vertex="1">
          <mxGeometry x="1246.874" y="587.5175" width="55.117999999999995" height="19.685" as="geometry" />
        </mxCell>
        <mxCell id="Mxk8btfSiK8cYpv8Hb3W-129" value="" style="rounded=0;orthogonalLoop=1;jettySize=auto;html=1;fontSize=12;fontColor=#808080;startArrow=none;startFill=0;endArrow=block;endFill=1;strokeWidth=2;strokeColor=#4f4f4f;exitX=1;exitY=0.5;exitDx=0;exitDy=0;entryX=0;entryY=0.5;entryDx=0;entryDy=0;" parent="1" edge="1">
          <mxGeometry relative="1" as="geometry">
            <mxPoint x="1362.598" y="592.3599999999999" as="targetPoint" />
            <mxPoint x="1302" y="592.3820000000001" as="sourcePoint" />
          </mxGeometry>
        </mxCell>
        <mxCell id="E51u0FYAALTfA-zhzbv9-1" value="" style="shape=image;verticalLabelPosition=bottom;verticalAlign=top;imageAspect=0;aspect=fixed;image=data:image/svg+xml,PHN2ZyB4bWxucz0iaHR0cDovL3d3dy53My5vcmcvMjAwMC9zdmciIGlkPSJwbGFjZWhvbGRlciIgdmlld0JveD0iNC4wMDAwMDE5MDczNDg2MzMgMy45OTk5OTkwNDYzMjU2ODM2IDQ4IDQ3Ljk5OTk5NjE4NTMwMjczNCIgd2lkdGg9IjQ4IiBoZWlnaHQ9IjQ3Ljk5OTk5NjE4NTMwMjczNCI+PGRlZnM+PHN0eWxlPi5jbHMtMXtmaWxsOiMwNzRkOTI7fS5jbHMtMntmaWxsOiMwNTNiNzA7fS5jbHMtM3tmaWxsOiMwYTZlZDE7fTwvc3R5bGU+PC9kZWZzPjx0aXRsZT5wbGFjZWhvbGRlcl9jaXJjbGU8L3RpdGxlPjxwYXRoIGNsYXNzPSJjbHMtMSIgZD0iTTI4LDZBMjIsMjIsMCwxLDEsNiwyOCwyMi4wMjUsMjIuMDI1LDAsMCwxLDI4LDZtMC0yQTI0LDI0LDAsMSwwLDUyLDI4LDI0LDI0LDAsMCwwLDI4LDRaIi8+PHBhdGggY2xhc3M9ImNscy0yIiBkPSJNMzguMjY2LDIzLjk4NWEyLjM0NywyLjM0NywwLDAsMC0uOTk1LS4yNDgsMS43ODEsMS43ODEsMCwwLDAtMS44MzksMS44MjgsMi4yMTIsMi4yMTIsMCwwLDAsLjQ4NSwxLjQyMiwxLjYzMywxLjYzMywwLDAsMCwxLjM1NC42MSwxLjY3NiwxLjY3NiwwLDAsMCwuNzkyLS4yLDQuMDQzLDQuMDQzLDAsMCwwLC43MTUtLjQ4Myw1LjM2NSw1LjM2NSwwLDAsMSwuNjY0LS40ODIsMS4yMzEsMS4yMzEsMCwwLDEsLjYzOS0uMkEuODEuODEsMCwwLDEsNDEsMjcuMTRWMzRhMS41MzgsMS41MzgsMCwwLDEtLjMxMiwxLjA4MywxLjU4MywxLjU4MywwLDAsMS0xLjE2OS4zMzlxLTEuNTg0LDAtMi4zNzYuMDI2dC0xLjE0OS4wMjVoLS40NmExLjgxLDEuODEsMCwwLDAsLjMyNy4zNDlBMy4xLDMuMSwwLDAsMSwzNi45ODUsMzguMWEyLjc0MSwyLjc0MSwwLDAsMS0uODk0LDIuMDMyQTIuODkyLDIuODkyLDAsMCwxLDM0LjAyMiw0MWEzLjAzMSwzLjAzMSwwLDAsMS0yLjItLjgzOCwyLjc0NiwyLjc0NiwwLDAsMS0uODY5LTIuMDU3LDIuNjQsMi42NCwwLDAsMSwuMjgxLTEuMjQ1LDYuMjQ5LDYuMjQ5LDAsMCwxLC44MjEtMS4wNjcsMS4yNTgsMS4yNTgsMCwwLDAsLjI1Ny0uMzc0SDI4LjE3OWEuNzU2Ljc1NiwwLDAsMS0uNTg4LS4yNTQsMS4wOTEsMS4wOTEsMCwwLDEtLjI4MS0uNTU5VjIxLjQ1MWEuOTczLjk3MywwLDAsMSwuMjMtLjYzNS43ODMuNzgzLDAsMCwxLC42MzktLjI3OWg0LjE4OGExLjAzLDEuMDMsMCwwLDAtLjItLjNsLS40MzUtLjYzNGE0Ljc2Niw0Ljc2NiwwLDAsMS0uNDU5LS44MTMsMi42LDIuNiwwLDAsMS0uMjItLjkwOEEyLjksMi45LDAsMCwxLDM0LDE1YTMuMDA5LDMuMDA5LDAsMCwxLDIuMDUzLjg0MSwyLjUxMSwyLjUxMSwwLDAsMSwuOTEsMi4wNTQsNS4yLDUuMiwwLDAsMS0xLjIxNCwyLjM3Ljg2Ny44NjcsMCwwLDAtLjE2Ni4yNzJoMy45MzRBMS40MzUsMS40MzUsMCwwLDEsNDEsMjEuOTU5djIuMjM1cTAsLjk2NS0uOTE5Ljk2NWEuOTQ0Ljk0NCwwLDAsMS0uNzE1LS4zQTcuMDc0LDcuMDc0LDAsMCwwLDM4LjI2NiwyMy45ODVaTTI4LjE3OSwzNGEuMzE1LjMxNSwwLDAsMCwuMzU3LjM1NWgzLjg4MmEuODU3Ljg1NywwLDAsMSwuOTcxLjk2NiwxLjIxNSwxLjIxNSwwLDAsMS0uMjEuNjc5cS0uMjMuMzMtLjQ4NS42NmMtLjE3MS4yMjEtLjMzMi40NDktLjQ4NS42ODZhMS4zNzIsMS4zNzIsMCwwLDAtLjIzLjc2MiwxLjY4NSwxLjY4NSwwLDAsMCwuNjEzLDEuMzcxLDIuMTc1LDIuMTc1LDAsMCwwLDEuNDMuNTA4LDIuMDQyLDIuMDQyLDAsMCwwLDEuMzI4LS41MDgsMS42ODUsMS42ODUsMCwwLDAsLjYxMy0xLjM3MSwxLjM4LDEuMzgsMCwwLDAtLjIzLS43NjIsNi42Myw2LjYzLDAsMCwwLS41MTEtLjY4NnEtLjI4MS0uMzMtLjUxLS42MzVhMS4yMTgsMS4yMTgsMCwwLDEtLjI1LS43Ljg3NS44NzUsMCwwLDEsLjMwNi0uNzEyLDEuMDg3LDEuMDg3LDAsMCwxLC43MTUtLjI1NGg0LjAzNnEuNTEsMCwuNTEtLjM1NVYyNy4xOTFhLjg3OC44NzgsMCwwLDAtLjM4My4yMjhjLS4xODcuMTUyLS40LjMxNC0uNjM4LjQ4M2E2LjE2MSw2LjE2MSwwLDAsMS0uODE3LjQ4MiwyLjA0NCwyLjA0NCwwLDAsMS0uOTIuMjI5LDIuOTUzLDIuOTUzLDAsMCwxLTEuOTkyLS44MTMsMi4zLDIuMywwLDAsMS0uNjY0LTEuMDE2LDMuODIxLDMuODIxLDAsMCwxLS4yLTEuMjE5LDIuOCwyLjgsMCwwLDEsLjg2OC0yLjAwNiwyLjcxMywyLjcxMywwLDAsMSwxLjk5Mi0uODg5LDIuNjQ5LDIuNjQ5LDAsMCwxLDEuMjc3LjI3OSw0LjExMiw0LjExMiwwLDAsMSwxLjEwNy44MjZjLjI3NC4zMTkuNDI2LjMzOC40MjYuMzM4VjIxLjk1OWEuMy4zLDAsMCwwLS4xNzktLjI1NC43NjYuNzY2LDAsMCwwLS4zODMtLjFIMzUuNDgzYTEuMTYzLDEuMTYzLDAsMCwxLS43MTUtLjIyOC44Ni44NiwwLDAsMS0uMzA2LS43MzcsMS4xMTYsMS4xMTYsMCwwLDEsLjIzLS42MzVjLjE1My0uMjIuMzIzLS40MzkuNTEtLjY2YTYuNTI0LDYuNTI0LDAsMCwwLC41MTEtLjY4NiwxLjM3NSwxLjM3NSwwLDAsMCwuMjMtLjc2MiwxLjY4OCwxLjY4OCwwLDAsMC0uNjEzLTEuMzcxQTIuMDQ0LDIuMDQ0LDAsMCwwLDM0LDE2LjAxNmEyLjA3OSwyLjA3OSwwLDAsMC0xLjQwNS41MDhBMS43MjIsMS43MjIsMCwwLDAsMzIuMDEsMTcuOWExLjUsMS41LDAsMCwwLC4yMy43ODgsNS4zMjEsNS4zMjEsMCwwLDAsLjQ4NS42ODVsLjQ2LjY2MWExLjU3LDEuNTcsMCwwLDEsLjI1NS42MDkuODc4Ljg3OCwwLDAsMS0uMjgxLjczNywxLjA1OCwxLjA1OCwwLDAsMS0uNjg5LjIyOEgyOC41ODdjLS4yNzMsMC0uNDA4LjExOS0uNDA4LjM1NlpNNDEsMzRhMS40NjMsMS40NjMsMCwwLDEtLjMxMiwxLjA4MywxLjQ0OCwxLjQ0OCwwLDAsMS0xLjE2OS4zMzkiLz48cGF0aCBjbGFzcz0iY2xzLTMiIGQ9Ik0zMi45NTUsMjkuNjY1YTEuOCwxLjgsMCwwLDAtMS41NTktLjczNiwyLjM5NCwyLjM5NCwwLDAsMC0xLjE0OC4yMjgsMy4zNDMsMy4zNDMsMCwwLDAtLjYzOS40ODNjLS4yLjE2OS0uNDA5LjMzLS42MTMuNDgycy0uNDM4LjQxOS0uNzA2LjQyMWgtLjk4VjIxLjc0OWExLjgsMS44LDAsMCwwLS4yLS44MTMuNzc3Ljc3NywwLDAsMC0uNzY2LS40MDZIMjMuMjc1Yy0uMjczLDAtLjQwOS4xMzYtLjQwOS40NTdhMS4wMzUsMS4wMzUsMCwwLDAsLjIwNS42MSw0LjksNC45LDAsMCwwLC41MTEuNjA5LDIuODgxLDIuODgxLDAsMCwxLC41MS42ODYsMS43NDcsMS43NDcsMCwwLDEsLjIwNS44MzgsMi40MTQsMi40MTQsMCwwLDEtLjY5LDEuNywyLjE5NSwyLjE5NSwwLDAsMS0xLjY2LjczNiwyLjExNiwyLjExNiwwLDAsMS0xLjYzNS0uNzM2LDIuNDY4LDIuNDY4LDAsMCwxLS42NjQtMS43LDEuNTkzLDEuNTkzLDAsMCwxLC4yMy0uODM4LDcuNDQxLDcuNDQxLDAsMCwxLC40ODUtLjcxMWMuMTcxLS4yMi4zNC0uNDIzLjUxMS0uNjFhLjg1NS44NTUsMCwwLDAsLjI1Ni0uNTg0YzAtLjMtLjE4OC0uNDU3LS41NjItLjQ1N0gxNS45MTlhLjg2Mi44NjIsMCwwLDAtLjY2NC4yNzlBLjk4My45ODMsMCwwLDAsMTUsMjEuNVYzNC40NDhhLjk3Ni45NzYsMCwwLDAsLjI1NS42ODUuODU2Ljg1NiwwLDAsMCwuNjY0LjI4aDQuNmMuMzc0LDAsLjU2MS4xMjkuNTYyLjQwNmEuODQ4Ljg0OCwwLDAsMS0uMjI5LjUxMmwtLjUzOC42MDZhMy41MzYsMy41MzYsMCwwLDAtLjUzNi42ODUsMS42OTEsMS42OTEsMCwwLDAtLjIzLjg4OSwyLjI5MSwyLjI5MSwwLDAsMCwuNzQxLDEuODc5LDIuNTkzLDIuNTkzLDAsMCwwLDMuMzcxLS4wMjUsMi40NDgsMi40NDgsMCwwLDAsLjc4My0xLjc3OCwxLjk2MSwxLjk2MSwwLDAsMC0uMjc5LTEuMDIzYy0uMTE2LS4xNjYtLjUyOS0uNjI3LS41MjktLjYyN2wtLjU2Mi0uNjFhLjgwNS44MDUsMCwwLDEtLjIwNS0uNTA4YzAtLjI3MS4xNTQtLjQwNi40Ni0uNDA2aDMuMDY1cS42NjMsMCwuOTE5LS44MTNWMzEuOTc2aC44NzljLjMsMCwuNTcxLjI4MS44MDcuNDMyYTYuNjU4LDYuNjU4LDAsMCwxLC42NjQuNDgycS4zMDYuMjU1LjYzOS40ODNhMi4wNiwyLjA2LDAsMCwwLC45ODQuMjI5LDEuNzY0LDEuNzY0LDAsMCwwLDEuNjcyLS43NjIsMi43NzgsMi43NzgsMCwwLDAsLjUzNi0xLjYyNkEyLjYsMi42LDAsMCwwLDMyLjk1NSwyOS42NjVaIi8+PC9zdmc+;imageBackground=default;" parent="1" vertex="1">
          <mxGeometry x="919.4000000000001" y="343.3899999999999" width="48" height="48" as="geometry" />
        </mxCell>
        <mxCell id="E51u0FYAALTfA-zhzbv9-14" value="HTTPS" style="rounded=1;whiteSpace=wrap;html=1;arcSize=55;fillColor=#595959;fontColor=#FFFFFF;strokeColor=#595959;fontFamily=Helvetica;fontSize=11;autosize=1;absoluteArcSize=1;strokeWidth=2;labelBackgroundColor=#595959;" parent="1" vertex="1">
          <mxGeometry x="1250.122" y="443.02149999999995" width="55.117999999999995" height="19.685" as="geometry" />
        </mxCell>
        <mxCell id="E51u0FYAALTfA-zhzbv9-16" value="" style="rounded=0;orthogonalLoop=1;jettySize=auto;html=1;fontSize=12;fontColor=#c0399f;startArrow=block;startFill=1;endArrow=none;endFill=0;strokeWidth=2;strokeColor=#c0399f;entryX=0;entryY=0.5;entryDx=0;entryDy=0;exitX=1;exitY=0.5;exitDx=0;exitDy=0;fillColor=#c0399f;" parent="1" source="E51u0FYAALTfA-zhzbv9-14" target="E51u0FYAALTfA-zhzbv9-17" edge="1">
          <mxGeometry relative="1" as="geometry">
            <mxPoint x="1324.222" y="431.36643717596144" as="targetPoint" />
            <mxPoint x="1306" y="429" as="sourcePoint" />
          </mxGeometry>
        </mxCell>
        <mxCell id="E51u0FYAALTfA-zhzbv9-25" value="HTTPS" style="rounded=1;whiteSpace=wrap;html=1;arcSize=55;fillColor=#595959;fontColor=#FFFFFF;strokeColor=#595959;fontFamily=Helvetica;fontSize=11;autosize=1;absoluteArcSize=1;strokeWidth=2;labelBackgroundColor=#595959;" parent="1" vertex="1">
          <mxGeometry x="1250.122" y="477.4775000000001" width="55.117999999999995" height="19.685" as="geometry" />
        </mxCell>
        <mxCell id="E51u0FYAALTfA-zhzbv9-26" value="" style="rounded=0;orthogonalLoop=1;jettySize=auto;html=1;fontSize=12;fontColor=#808080;startArrow=none;startFill=0;endArrow=block;endFill=1;strokeWidth=2;strokeColor=#595959;entryX=0;entryY=0.5;entryDx=0;entryDy=0;exitX=1;exitY=0.5;exitDx=0;exitDy=0;" parent="1" source="E51u0FYAALTfA-zhzbv9-25" target="E51u0FYAALTfA-zhzbv9-27" edge="1">
          <mxGeometry relative="1" as="geometry">
            <mxPoint x="1326.846" y="491.7104371759615" as="targetPoint" />
            <mxPoint x="1308.624" y="489.34400000000005" as="sourcePoint" />
          </mxGeometry>
        </mxCell>
        <mxCell id="E51u0FYAALTfA-zhzbv9-38" value="HTTPS" style="rounded=1;whiteSpace=wrap;html=1;arcSize=55;fillColor=#595959;fontColor=#FFFFFF;strokeColor=#595959;fontFamily=Helvetica;fontSize=11;autosize=1;absoluteArcSize=1;strokeWidth=2;labelBackgroundColor=#595959;" parent="1" vertex="1">
          <mxGeometry x="591.5260000000001" y="444.02149999999995" width="55.117999999999995" height="19.685" as="geometry" />
        </mxCell>
        <mxCell id="E51u0FYAALTfA-zhzbv9-41" value="HTTPS" style="rounded=1;whiteSpace=wrap;html=1;arcSize=55;fillColor=#595959;fontColor=#FFFFFF;strokeColor=#595959;fontFamily=Helvetica;fontSize=11;autosize=1;absoluteArcSize=1;strokeWidth=2;labelBackgroundColor=#595959;" parent="1" vertex="1">
          <mxGeometry x="591.5260000000001" y="478.4775000000001" width="55.117999999999995" height="19.685" as="geometry" />
        </mxCell>
        <mxCell id="E51u0FYAALTfA-zhzbv9-40" value="REST / SOAP" style="rounded=1;whiteSpace=wrap;html=1;arcSize=50;fillColor=#FFFFFF;fontColor=#000000;strokeColor=#595959;fontFamily=Helvetica;fontSize=11;autosize=1;absoluteArcSize=1;strokeWidth=2;labelBackgroundColor=default;" parent="1" vertex="1">
          <mxGeometry x="356.28600000000023" y="444.02149999999995" width="86.61399999999999" height="19.685" as="geometry" />
        </mxCell>
        <mxCell id="E51u0FYAALTfA-zhzbv9-43" value="REST / OData / SOAP" style="rounded=1;whiteSpace=wrap;html=1;arcSize=50;fillColor=#FFFFFF;fontColor=#000000;strokeColor=#595959;fontFamily=Helvetica;fontSize=11;autosize=1;absoluteArcSize=1;strokeWidth=2;labelBackgroundColor=default;" parent="1" vertex="1">
          <mxGeometry x="356.28600000000023" y="478.4775000000001" width="125.984" height="19.685" as="geometry" />
        </mxCell>
        <mxCell id="E51u0FYAALTfA-zhzbv9-48" value="" style="rounded=0;orthogonalLoop=1;jettySize=auto;html=1;fontSize=12;fontColor=#808080;startArrow=none;startFill=0;endArrow=block;endFill=1;strokeWidth=2;strokeColor=#c0399f;entryX=0;entryY=0.5;entryDx=0;entryDy=0;exitX=1;exitY=0.5;exitDx=0;exitDy=0;" parent="1" source="E51u0FYAALTfA-zhzbv9-40" target="E51u0FYAALTfA-zhzbv9-38" edge="1">
          <mxGeometry relative="1" as="geometry">
            <mxPoint x="526.904" y="453.36400000000003" as="targetPoint" />
            <mxPoint x="476.904" y="453.36400000000003" as="sourcePoint" />
          </mxGeometry>
        </mxCell>
        <mxCell id="E51u0FYAALTfA-zhzbv9-49" value="" style="rounded=0;orthogonalLoop=1;jettySize=auto;html=1;fontSize=12;fontColor=#808080;startArrow=none;startFill=0;endArrow=block;endFill=1;strokeWidth=2;strokeColor=#595959;exitX=1;exitY=0.5;exitDx=0;exitDy=0;" parent="1" source="E51u0FYAALTfA-zhzbv9-43" target="E51u0FYAALTfA-zhzbv9-41" edge="1">
          <mxGeometry relative="1" as="geometry">
            <mxPoint x="583" y="488" as="targetPoint" />
            <mxPoint x="496" y="490" as="sourcePoint" />
          </mxGeometry>
        </mxCell>
        <mxCell id="E51u0FYAALTfA-zhzbv9-2" value="&lt;span style=&quot;font-family: Helvetica; font-size: 11px; font-style: normal; font-variant-ligatures: normal; font-variant-caps: normal; font-weight: 700; letter-spacing: normal; orphans: 2; text-indent: 0px; text-transform: none; widows: 2; word-spacing: 0px; -webkit-text-stroke-width: 0px; background-color: rgb(248, 249, 250); text-decoration-thickness: initial; text-decoration-style: initial; text-decoration-color: initial; float: none; display: inline !important;&quot;&gt;SAP Master Data Integration&lt;/span&gt;" style="text;whiteSpace=wrap;html=1;align=center;container=0;fontSize=11;verticalAlign=middle;fontColor=#074d92;" parent="1" vertex="1">
          <mxGeometry x="864.7650000000001" y="389.86" width="157.27" height="22.87" as="geometry" />
        </mxCell>
        <mxCell id="pfRH_Io8xQwYWx8ytzxO-12" value="Master data&lt;br&gt;change request" style="text;html=1;align=center;verticalAlign=middle;resizable=0;points=[];autosize=1;strokeColor=none;fillColor=none;" parent="1" vertex="1">
          <mxGeometry x="709.863" y="380.618" width="102.362" height="47.244" as="geometry" />
        </mxCell>
        <mxCell id="pfRH_Io8xQwYWx8ytzxO-20" value="Master data consumers" style="text;html=1;align=center;verticalAlign=middle;resizable=0;points=[];autosize=1;strokeColor=none;fillColor=none;fontColor=#4f4f4f;fontStyle=1;fontSize=14;" parent="1" vertex="1">
          <mxGeometry x="1431.0919999999999" y="372.612" width="173.22799999999998" height="39.37" as="geometry" />
        </mxCell>
        <mxCell id="P-BTsnygXm_hFObz8tvr-5" value="" style="group" parent="1" vertex="1" connectable="0">
          <mxGeometry x="1335.2220000000002" y="412.51699999999994" width="264.60199999999986" height="98.42499999999995" as="geometry" />
        </mxCell>
        <mxCell id="E51u0FYAALTfA-zhzbv9-45" value="" style="group" parent="P-BTsnygXm_hFObz8tvr-5" vertex="1" connectable="0">
          <mxGeometry x="107.12199999999984" width="157.48000000000002" height="98.42499999999998" as="geometry" />
        </mxCell>
        <mxCell id="E51u0FYAALTfA-zhzbv9-10" value="&lt;p style=&quot;margin-top: 0pt; margin-bottom: 0pt; margin-left: 0in; direction: ltr; unicode-bidi: embed; word-break: normal; font-size: 12px;&quot;&gt;&lt;br style=&quot;font-size: 12px;&quot;&gt;&lt;/p&gt;" style="rounded=0;whiteSpace=wrap;html=1;strokeWidth=2;align=left;verticalAlign=middle;fontSize=12;fontFamily=Arial;container=0;recursiveResize=0;collapsible=0;strokeColor=#595959;fillColor=#FFFFFF;" parent="E51u0FYAALTfA-zhzbv9-45" vertex="1">
          <mxGeometry width="157.48" height="98.425" as="geometry" />
        </mxCell>
        <mxCell id="E51u0FYAALTfA-zhzbv9-11" value="&lt;span style=&quot;font-family: arial; font-style: normal; letter-spacing: normal; text-indent: 0px; text-transform: none; word-spacing: 0px; display: inline; float: none; background-color: rgb(255, 255, 255);&quot;&gt;&lt;font color=&quot;#074d92&quot; style=&quot;font-size: 16px;&quot;&gt;SAP Solution &lt;/font&gt;&lt;font color=&quot;#074d92&quot; style=&quot;&quot;&gt;&lt;font style=&quot;font-size: 12px; font-weight: normal;&quot;&gt;(incl. SAP Master Data Governance)&lt;/font&gt;&lt;br style=&quot;font-size: 16px;&quot;&gt;&lt;/font&gt;&lt;/span&gt;" style="text;whiteSpace=wrap;html=1;fillColor=none;fontStyle=1;fontSize=16;fontColor=#0F828F;align=center;verticalAlign=middle;container=0;" parent="E51u0FYAALTfA-zhzbv9-45" vertex="1">
          <mxGeometry x="17" y="38.712500000000006" width="123.48" height="29" as="geometry" />
        </mxCell>
        <mxCell id="E51u0FYAALTfA-zhzbv9-12" value="&lt;span style=&quot;color: rgb(15, 130, 143); font-family: Arial; font-size: 12px; font-style: normal; font-variant-ligatures: normal; font-variant-caps: normal; font-weight: 700; letter-spacing: normal; orphans: 2; text-align: left; text-indent: 0px; text-transform: none; widows: 2; word-spacing: 0px; -webkit-text-stroke-width: 0px; background-color: rgb(251, 251, 251); text-decoration-thickness: initial; text-decoration-style: initial; text-decoration-color: initial; float: none; display: inline !important;&quot;&gt;Cloud&lt;/span&gt;" style="text;whiteSpace=wrap;html=1;fontSize=12;container=0;" parent="E51u0FYAALTfA-zhzbv9-45" vertex="1">
          <mxGeometry x="4.627999999999929" y="1.4639999999998565" width="70.87" height="23.62" as="geometry" />
        </mxCell>
        <mxCell id="E51u0FYAALTfA-zhzbv9-17" value="REST / SOAP" style="rounded=1;whiteSpace=wrap;html=1;arcSize=50;fillColor=#FFFFFF;fontColor=#000000;strokeColor=#595959;fontFamily=Helvetica;fontSize=11;autosize=1;absoluteArcSize=1;strokeWidth=2;labelBackgroundColor=default;" parent="P-BTsnygXm_hFObz8tvr-5" vertex="1">
          <mxGeometry x="39.36999999999989" y="30.504500000000007" width="86.61399999999999" height="19.685" as="geometry" />
        </mxCell>
        <mxCell id="E51u0FYAALTfA-zhzbv9-27" value="REST / OData / SOAP" style="rounded=1;whiteSpace=wrap;html=1;arcSize=50;fillColor=#FFFFFF;fontColor=#000000;strokeColor=#595959;fontFamily=Helvetica;fontSize=11;autosize=1;absoluteArcSize=1;strokeWidth=2;labelBackgroundColor=default;" parent="P-BTsnygXm_hFObz8tvr-5" vertex="1">
          <mxGeometry y="64.96050000000014" width="125.984" height="19.685" as="geometry" />
        </mxCell>
        <mxCell id="pkRQ50IUbfdO1eF08MyC-8" value="4" style="ellipse;whiteSpace=wrap;html=1;fontSize=14;labelBackgroundColor=none;fillColor=#c0399f;fontColor=#FFFFFF;labelBorderColor=none;fontStyle=1;strokeColor=none;container=0;" parent="P-BTsnygXm_hFObz8tvr-5" vertex="1">
          <mxGeometry x="-20.260000000000446" y="-0.9869999999998527" width="31.496" height="31.496" as="geometry" />
        </mxCell>
        <mxCell id="P-BTsnygXm_hFObz8tvr-30" value="" style="group" parent="1" vertex="1" connectable="0">
          <mxGeometry x="863.645" y="481.08" width="157.48000000000002" height="39.99999999999994" as="geometry" />
        </mxCell>
        <mxCell id="P-BTsnygXm_hFObz8tvr-24" value="&lt;p style=&quot;margin-top: 0pt; margin-bottom: 0pt; margin-left: 0in; direction: ltr; unicode-bidi: embed; word-break: normal; font-size: 14px;&quot;&gt;&lt;br&gt;&lt;/p&gt;" style="rounded=0;whiteSpace=wrap;html=1;strokeColor=#053b70;strokeWidth=2;fillColor=none;align=left;verticalAlign=top;fontSize=14;fontFamily=Arial;container=0;recursiveResize=0;collapsible=0;fontColor=#053B70;spacingLeft=7;dashed=1;dashPattern=1 1;" parent="P-BTsnygXm_hFObz8tvr-30" vertex="1">
          <mxGeometry y="0.1540000000000532" width="157.48" height="39.37" as="geometry" />
        </mxCell>
        <mxCell id="P-BTsnygXm_hFObz8tvr-25" value="&lt;span style=&quot;font-family: Helvetica; font-size: 11px; font-style: normal; font-variant-ligatures: normal; font-variant-caps: normal; font-weight: 700; letter-spacing: normal; orphans: 2; text-indent: 0px; text-transform: none; widows: 2; word-spacing: 0px; -webkit-text-stroke-width: 0px; background-color: rgb(248, 249, 250); text-decoration-thickness: initial; text-decoration-style: initial; text-decoration-color: initial; float: none; display: inline !important;&quot;&gt;Master Data Event Log&lt;/span&gt;" style="text;whiteSpace=wrap;html=1;align=center;container=0;fontSize=11;verticalAlign=middle;fontColor=#4f4f4f;" parent="P-BTsnygXm_hFObz8tvr-30" vertex="1">
          <mxGeometry x="12.07000000000005" width="133.34" height="40" as="geometry" />
        </mxCell>
        <mxCell id="P-BTsnygXm_hFObz8tvr-31" value="" style="group" parent="1" vertex="1" connectable="0">
          <mxGeometry x="842.52" y="639.57" width="212.60000000000002" height="157.48" as="geometry" />
        </mxCell>
        <mxCell id="P-BTsnygXm_hFObz8tvr-20" value="&lt;p style=&quot;margin-top: 0pt; margin-bottom: 0pt; margin-left: 0in; direction: ltr; unicode-bidi: embed; word-break: normal; font-size: 14px;&quot;&gt;&lt;br&gt;&lt;/p&gt;" style="rounded=0;whiteSpace=wrap;html=1;strokeColor=#053b70;strokeWidth=2;fillColor=none;align=left;verticalAlign=top;fontSize=14;fontFamily=Arial;container=0;recursiveResize=0;collapsible=0;fontColor=#053B70;spacingLeft=7;dashed=1;dashPattern=1 1;" parent="P-BTsnygXm_hFObz8tvr-31" vertex="1">
          <mxGeometry x="1.4900027188641917e-14" y="8.98" width="198.13432719325633" height="148.5" as="geometry" />
        </mxCell>
        <mxCell id="P-BTsnygXm_hFObz8tvr-64" value="&lt;span style=&quot;background-color: rgb(248, 249, 250);&quot;&gt;&lt;b&gt;configured integration content&lt;/b&gt;&lt;/span&gt;" style="text;whiteSpace=wrap;html=1;align=center;container=0;fontSize=11;verticalAlign=middle;fontColor=#074d92;" parent="P-BTsnygXm_hFObz8tvr-31" vertex="1">
          <mxGeometry x="4.120590071807688" y="118.22" width="189.89314704964096" height="24.26" as="geometry" />
        </mxCell>
        <mxCell id="P-BTsnygXm_hFObz8tvr-79" value="" style="shape=image;verticalLabelPosition=bottom;verticalAlign=top;imageAspect=0;aspect=fixed;image=data:image/svg+xml,PHN2ZyB4bWxucz0iaHR0cDovL3d3dy53My5vcmcvMjAwMC9zdmciIHZpZXdCb3g9IjAgMCA0MC45NjkwMDE3NzAwMTk1MyA0Ny44MTIwMDAyNzQ2NTgyIiB3aWR0aD0iNDAuOTY5MDAxNzcwMDE5NTMiIGhlaWdodD0iNDcuODEyMDAwMjc0NjU4MiI+PGRlZnM+PHN0eWxlPi5jbHMtMXtmaWxsOiM1OTU5NTk7fTwvc3R5bGU+PC9kZWZzPjx0aXRsZT5wcm9kdWN0PC90aXRsZT48ZyBpZD0iTGF5ZXJfMiIgZGF0YS1uYW1lPSJMYXllciAyIj48ZyBpZD0icHJvZHVjdCI+PHBhdGggY2xhc3M9ImNscy0xIiBkPSJNNDAuOTY5LDEwLjMxMlYzNy41TDIwLjQ4NCw0Ny44MTIsMCwzNy41VjEwLjMxMkwxMC4yMTksNS4xNTYsMzAuNzUsMTUuMzc1VjI1LjU5NGwtMy40NjksMS42ODdWMTcuNDM4TDEwLjI4Niw5LDMuNDY5LDEyLjI4MXYyMy4yNWwxNy4wMTUsOC40MzhMMzcuNSwzNS41MzFWMTIuMjgxTDIwLjQ2MSwzLjg0NCwxNy44MzksNS4xNTYsMTQsMy4xODgsMjAuNDg0LDBaTTYuODU5LDI5LjA2MmwxMC4xNDksNS4wNjN2NC4yMTlMNi44NTksMzMuMzc1WiIvPjwvZz48L2c+PC9zdmc+" parent="P-BTsnygXm_hFObz8tvr-31" vertex="1">
          <mxGeometry x="92.84692579873035" y="84.41000000000001" width="26.9" height="31.496" as="geometry" />
        </mxCell>
        <mxCell id="zU_sP0cB1sATBuBRFiv1-78" value="&lt;b&gt;Cloud Integration&lt;/b&gt;" style="text;whiteSpace=wrap;html=1;align=center;container=0;fontSize=11;fontColor=#074d92;" parent="P-BTsnygXm_hFObz8tvr-31" vertex="1">
          <mxGeometry x="55.12" y="26.59" width="94.43" height="36.4" as="geometry" />
        </mxCell>
        <mxCell id="pkRQ50IUbfdO1eF08MyC-15" value="2" style="ellipse;whiteSpace=wrap;html=1;fontSize=14;labelBackgroundColor=none;fillColor=#4f4f4f;fontColor=#FFFFFF;labelBorderColor=none;fontStyle=1;strokeColor=none;container=0;" parent="P-BTsnygXm_hFObz8tvr-31" vertex="1">
          <mxGeometry x="7.867999999999952" y="26.58800000000001" width="31.496" height="31.496" as="geometry" />
        </mxCell>
        <mxCell id="P-BTsnygXm_hFObz8tvr-62" value="" style="shape=image;verticalLabelPosition=bottom;verticalAlign=top;imageAspect=0;aspect=fixed;image=data:image/svg+xml,PHN2ZyB4bWxucz0iaHR0cDovL3d3dy53My5vcmcvMjAwMC9zdmciIHZpZXdCb3g9IjAgMCA0MC45NjkwMDE3NzAwMTk1MyA0Ny44MTIwMDAyNzQ2NTgyIiB3aWR0aD0iNDAuOTY5MDAxNzcwMDE5NTMiIGhlaWdodD0iNDcuODEyMDAwMjc0NjU4MiI+PGRlZnM+PHN0eWxlPi5jbHMtMXtmaWxsOiM1OTU5NTk7fTwvc3R5bGU+PC9kZWZzPjx0aXRsZT5wcm9kdWN0PC90aXRsZT48ZyBpZD0iTGF5ZXJfMiIgZGF0YS1uYW1lPSJMYXllciAyIj48ZyBpZD0icHJvZHVjdCI+PHBhdGggY2xhc3M9ImNscy0xIiBkPSJNNDAuOTY5LDEwLjMxMlYzNy41TDIwLjQ4NCw0Ny44MTIsMCwzNy41VjEwLjMxMkwxMC4yMTksNS4xNTYsMzAuNzUsMTUuMzc1VjI1LjU5NGwtMy40NjksMS42ODdWMTcuNDM4TDEwLjI4Niw5LDMuNDY5LDEyLjI4MXYyMy4yNWwxNy4wMTUsOC40MzhMMzcuNSwzNS41MzFWMTIuMjgxTDIwLjQ2MSwzLjg0NCwxNy44MzksNS4xNTYsMTQsMy4xODgsMjAuNDg0LDBaTTYuODU5LDI5LjA2MmwxMC4xNDksNS4wNjN2NC4yMTlMNi44NTksMzMuMzc1WiIvPjwvZz48L2c+PC9zdmc+" parent="1" vertex="1">
          <mxGeometry x="998.2440000000001" y="938.9" width="26.9" height="31.496" as="geometry" />
        </mxCell>
        <mxCell id="P-BTsnygXm_hFObz8tvr-66" value="" style="shape=image;verticalLabelPosition=bottom;verticalAlign=top;imageAspect=0;aspect=fixed;image=data:image/svg+xml,PHN2ZyB4bWxucz0iaHR0cDovL3d3dy53My5vcmcvMjAwMC9zdmciIHZpZXdCb3g9Ii0wLjAwMTM1MjUyMDQyNjczNTI4MiAtMC4wMDEzODM3Nzk4MDMyOTA5NjMyIDM2LjAwMzA5MzcxOTQ4MjQyIDQ4LjAwMjUyOTE0NDI4NzExIiB3aWR0aD0iMzYuMDAzMDkzNzE5NDgyNDIiIGhlaWdodD0iNDguMDAyNTI5MTQ0Mjg3MTEiPjxkZWZzPjxzdHlsZT4uY2xzLTF7ZmlsbDojNTk1OTU5O308L3N0eWxlPjwvZGVmcz48dGl0bGU+ZG9jdW1lbnQtdGV4dDwvdGl0bGU+PGcgaWQ9IkxheWVyXzIiIGRhdGEtbmFtZT0iTGF5ZXIgMiI+PGcgaWQ9ImRvY3VtZW50LXRleHQiPjxwYXRoIGNsYXNzPSJjbHMtMSIgZD0iTTMzLDBhMi44NDEsMi44NDEsMCwwLDEsMi4xNTYuODkxQTIuOTYyLDIuOTYyLDAsMCwxLDM2LDNWNDVhMi45MiwyLjkyLDAsMCwxLS44NDQsMi4xNTZBMi44LDIuOCwwLDAsMSwzMy4wOTQsNDhoLTMwYTMuMDcyLDMuMDcyLDAsMCwxLTIuMi0uODQ0QTIuODM3LDIuODM3LDAsMCwxLDAsNDVWMTJMMTIsMFptLjA5NCw0NUwzMywzSDE1djlhMi44NDQsMi44NDQsMCwwLDEtLjg5MSwyLjE1NkEyLjk2MiwyLjk2MiwwLDAsMSwxMiwxNUgzVjQ1Wk0yNS41LDMwQTEuMzI3LDEuMzI3LDAsMCwxLDI3LDMxLjVhMS41MDksMS41MDksMCwwLDEtLjQyMiwxLjAzMUExLjM4MSwxLjM4MSwwLDAsMSwyNS41LDMzaC0xNUExLjYxNCwxLjYxNCwwLDAsMSw5LDMxLjVhMS4zODEsMS4zODEsMCwwLDEsLjQ2OS0xLjA3OEExLjUwNSwxLjUwNSwwLDAsMSwxMC41LDMwWm0wLDZBMS4zMjcsMS4zMjcsMCwwLDEsMjcsMzcuNWExLjUwNSwxLjUwNSwwLDAsMS0uNDIyLDEuMDMxQTEuMzgxLDEuMzgxLDAsMCwxLDI1LjUsMzloLTE1QTEuNjE0LDEuNjE0LDAsMCwxLDksMzcuNWExLjM4MSwxLjM4MSwwLDAsMSwuNDY5LTEuMDc4QTEuNTA1LDEuNTA1LDAsMCwxLDEwLjUsMzZaIi8+PC9nPjwvZz48L3N2Zz4=" parent="1" vertex="1">
          <mxGeometry x="749.0440000000001" y="435.8639999999999" width="25.984199999999998" height="34.65" as="geometry" />
        </mxCell>
        <mxCell id="P-BTsnygXm_hFObz8tvr-70" value="" style="rounded=0;orthogonalLoop=1;jettySize=auto;html=1;fontSize=12;fontColor=#808080;startArrow=none;startFill=0;endArrow=block;endFill=1;strokeWidth=2;strokeColor=#c0399f;exitX=1;exitY=0.5;exitDx=0;exitDy=0;entryX=0;entryY=0.5;entryDx=0;entryDy=0;" parent="1" target="P-BTsnygXm_hFObz8tvr-66" edge="1">
          <mxGeometry relative="1" as="geometry">
            <mxPoint x="717" y="453" as="targetPoint" />
            <mxPoint x="646.644" y="453.36400000000003" as="sourcePoint" />
          </mxGeometry>
        </mxCell>
        <mxCell id="P-BTsnygXm_hFObz8tvr-71" value="" style="rounded=0;orthogonalLoop=1;jettySize=auto;html=1;fontSize=12;fontColor=#808080;startArrow=none;startFill=0;endArrow=block;endFill=1;strokeWidth=2;strokeColor=#c0399f;exitX=1;exitY=0.5;exitDx=0;exitDy=0;" parent="1" edge="1">
          <mxGeometry relative="1" as="geometry">
            <mxPoint x="816" y="454" as="targetPoint" />
            <mxPoint x="779.048" y="454.67800000000005" as="sourcePoint" />
          </mxGeometry>
        </mxCell>
        <mxCell id="P-BTsnygXm_hFObz8tvr-72" value="" style="shape=image;verticalLabelPosition=bottom;verticalAlign=top;imageAspect=0;aspect=fixed;image=data:image/svg+xml,PHN2ZyB4bWxucz0iaHR0cDovL3d3dy53My5vcmcvMjAwMC9zdmciIHZpZXdCb3g9Ii0wLjAwMTM1MjUyMDQyNjczNTI4MiAtMC4wMDEzODM3Nzk4MDMyOTA5NjMyIDM2LjAwMzA5MzcxOTQ4MjQyIDQ4LjAwMjUyOTE0NDI4NzExIiB3aWR0aD0iMzYuMDAzMDkzNzE5NDgyNDIiIGhlaWdodD0iNDguMDAyNTI5MTQ0Mjg3MTEiPjxkZWZzPjxzdHlsZT4uY2xzLTF7ZmlsbDojNTk1OTU5O308L3N0eWxlPjwvZGVmcz48dGl0bGU+ZG9jdW1lbnQtdGV4dDwvdGl0bGU+PGcgaWQ9IkxheWVyXzIiIGRhdGEtbmFtZT0iTGF5ZXIgMiI+PGcgaWQ9ImRvY3VtZW50LXRleHQiPjxwYXRoIGNsYXNzPSJjbHMtMSIgZD0iTTMzLDBhMi44NDEsMi44NDEsMCwwLDEsMi4xNTYuODkxQTIuOTYyLDIuOTYyLDAsMCwxLDM2LDNWNDVhMi45MiwyLjkyLDAsMCwxLS44NDQsMi4xNTZBMi44LDIuOCwwLDAsMSwzMy4wOTQsNDhoLTMwYTMuMDcyLDMuMDcyLDAsMCwxLTIuMi0uODQ0QTIuODM3LDIuODM3LDAsMCwxLDAsNDVWMTJMMTIsMFptLjA5NCw0NUwzMywzSDE1djlhMi44NDQsMi44NDQsMCwwLDEtLjg5MSwyLjE1NkEyLjk2MiwyLjk2MiwwLDAsMSwxMiwxNUgzVjQ1Wk0yNS41LDMwQTEuMzI3LDEuMzI3LDAsMCwxLDI3LDMxLjVhMS41MDksMS41MDksMCwwLDEtLjQyMiwxLjAzMUExLjM4MSwxLjM4MSwwLDAsMSwyNS41LDMzaC0xNUExLjYxNCwxLjYxNCwwLDAsMSw5LDMxLjVhMS4zODEsMS4zODEsMCwwLDEsLjQ2OS0xLjA3OEExLjUwNSwxLjUwNSwwLDAsMSwxMC41LDMwWm0wLDZBMS4zMjcsMS4zMjcsMCwwLDEsMjcsMzcuNWExLjUwNSwxLjUwNSwwLDAsMS0uNDIyLDEuMDMxQTEuMzgxLDEuMzgxLDAsMCwxLDI1LjUsMzloLTE1QTEuNjE0LDEuNjE0LDAsMCwxLDksMzcuNWExLjM4MSwxLjM4MSwwLDAsMSwuNDY5LTEuMDc4QTEuNTA1LDEuNTA1LDAsMCwxLDEwLjUsMzZaIi8+PC9nPjwvZz48L3N2Zz4=" parent="1" vertex="1">
          <mxGeometry x="1116.736" y="435.86799999999994" width="25.984199999999998" height="34.65" as="geometry" />
        </mxCell>
        <mxCell id="P-BTsnygXm_hFObz8tvr-73" value="" style="rounded=0;orthogonalLoop=1;jettySize=auto;html=1;fontSize=12;fontColor=#808080;startArrow=block;startFill=1;endArrow=none;endFill=0;strokeWidth=2;strokeColor=#c0399f;entryX=0;entryY=0.5;entryDx=0;entryDy=0;exitX=1;exitY=0.5;exitDx=0;exitDy=0;" parent="1" target="E51u0FYAALTfA-zhzbv9-14" edge="1">
          <mxGeometry relative="1" as="geometry">
            <mxPoint x="1214.874" y="452.36400000000003" as="targetPoint" />
            <mxPoint x="1144.874" y="452.36400000000003" as="sourcePoint" />
          </mxGeometry>
        </mxCell>
        <mxCell id="P-BTsnygXm_hFObz8tvr-74" value="" style="rounded=0;orthogonalLoop=1;jettySize=auto;html=1;fontSize=12;fontColor=#808080;startArrow=block;startFill=1;endArrow=none;endFill=0;strokeWidth=2;strokeColor=#c0399f;entryX=0;entryY=0.5;entryDx=0;entryDy=0;" parent="1" target="P-BTsnygXm_hFObz8tvr-72" edge="1">
          <mxGeometry relative="1" as="geometry">
            <mxPoint x="1109.368" y="453.36800000000005" as="targetPoint" />
            <mxPoint x="1068" y="453" as="sourcePoint" />
          </mxGeometry>
        </mxCell>
        <mxCell id="P-BTsnygXm_hFObz8tvr-76" value="Master data&lt;br&gt;change event" style="text;html=1;align=center;verticalAlign=middle;resizable=0;points=[];autosize=1;strokeColor=none;fillColor=none;" parent="1" vertex="1">
          <mxGeometry x="1081.4920000000002" y="375.612" width="94.488" height="47.244" as="geometry" />
        </mxCell>
        <mxCell id="zU_sP0cB1sATBuBRFiv1-82" value="" style="shape=image;verticalLabelPosition=bottom;verticalAlign=top;imageAspect=0;aspect=fixed;image=data:image/svg+xml,PHN2ZyB4bWxucz0iaHR0cDovL3d3dy53My5vcmcvMjAwMC9zdmciIGlkPSJoY2lwcm9jZXNzZXMiIHZpZXdCb3g9IjQuMDAwMDAxOTA3MzQ4NjMzIDMuOTk5OTk5MDQ2MzI1NjgzNiA0OCA0Ny45OTk5OTYxODUzMDI3MzQiIHdpZHRoPSI0OCIgaGVpZ2h0PSI0Ny45OTk5OTYxODUzMDI3MzQiPjxkZWZzPjxzdHlsZT4uY2xzLTF7ZmlsbDojMGE2ZWQxO30uY2xzLTJ7ZmlsbDojMDUzYjcwO30uY2xzLTN7ZmlsbDojMDc0ZDkyO308L3N0eWxlPjwvZGVmcz48dGl0bGU+aGNpcHJvY2Vzc2VzX2NpcmNsZTwvdGl0bGU+PHBhdGggY2xhc3M9ImNscy0xIiBkPSJNMzkuMzc0LDMwLjQzOEgzNy43NTFhMS42MjYsMS42MjYsMCwwLDAtMS42MjUsMS42MkwzNC41LDMxLjQyNnYtLjk4N2ExLjU4NCwxLjU4NCwwLDAsMC0uMy0uODkzTDM2LDI3LjE2M2MuMDQyLDAsLjA3OS4wMjUuMTIzLjAyNWgxLjYyM2ExLjYyNywxLjYyNywwLDAsMCwxLjYyNi0xLjYyN1YyMy45MzlhMS42MjYsMS42MjYsMCwwLDAtMS42MjYtMS42MjdIMzYuMTI2QTEuNjI2LDEuNjI2LDAsMCwwLDM0LjUsMjMuOTM5djEuNjIyYTEuNiwxLjYsMCwwLDAsLjcwNywxLjMwNkwzMy41OTMsMjlhMS41OSwxLjU5LDAsMCwwLS43MTktLjE4NkgzMS4yNTFhMS41OSwxLjU5LDAsMCwwLS44MDcuMjQ1TDI5LjM4LDI3Ljk5M2ExLjU3OCwxLjU3OCwwLDAsMCwuMjQ1LS44MDdWMjUuNTY0QTEuNjI1LDEuNjI1LDAsMCwwLDI4LDIzLjkzOEgyNi4zNzZhMS42MjUsMS42MjUsMCwwLDAtMS42MjYsMS42MjZ2MS42MjJhMS42MjYsMS42MjYsMCwwLDAsMS42MjYsMS42MjZIMjhhMS41ODksMS41ODksMCwwLDAsLjgwNy0uMjQ0bDEuMDY0LDEuMDY0YTEuNTc4LDEuNTc4LDAsMCwwLS4yNDUuODA3djEuNTQ0bC0xLjg2NC45MDhhMS42LDEuNiwwLDAsMC0xLjM4Ny0uODI5SDI0Ljc1MWExLjYyNiwxLjYyNiwwLDAsMC0xLjYyNiwxLjYyN3YxLjYyMmExLjYyNywxLjYyNywwLDAsMCwxLjYyNiwxLjYyN2gxLjYyM0ExLjYyNywxLjYyNywwLDAsMCwyOCwzNS4zMTFWMzMuNjg5bDAtLjAxLDEuODIxLS44ODdhMS42MSwxLjYxLDAsMCwwLDEuNDMyLjloLjk3MmwuNjM5LDEuNjI3YTEuNjI1LDEuNjI1LDAsMCwwLTEuNjEyLDEuNjI0djEuNjIyYTEuNjI3LDEuNjI3LDAsMCwwLDEuNjI2LDEuNjI3SDM0LjVhMS42MjcsMS42MjcsMCwwLDAsMS42MjYtMS42MjdWMzYuOTM5QTEuNjI2LDEuNjI2LDAsMCwwLDM0LjUsMzUuMzEyaC0uNzY1bC0uNjUzLTEuNjYzYTEuNiwxLjYsMCwwLDAsMS4zNzUtMS4zNjhsMS42NjkuNjQ4di43NTdhMS42MjYsMS42MjYsMCwwLDAsMS42MjYsMS42MjZoMS42MjNBMS42MjYsMS42MjYsMCwwLDAsNDEsMzMuNjg2VjMyLjA2NEExLjYyNSwxLjYyNSwwLDAsMCwzOS4zNzQsMzAuNDM4Wm0tMy4yNDgtNi41SDM3Ljc1djEuNjIzSDM2LjEyNVpNMjgsMjcuMTg4bC0xLjYyNCwwVjI1LjU2MkgyOHYxLjYyNlptLTEuNjI1LDguMTI0SDI0Ljc1VjMzLjY4OGgxLjYyNFptNC44NzYtMy4yNTFWMzAuNDM4aDEuNjI0djEuNjIzWk0zNC41LDM2LjkzOGgwdjEuNjIzSDMyLjg3NVYzNi45MzhabTQuODc1LTMuMjUtMS42MjQsMFYzMi4wNjJoMS42MjN2MS42MjZaIi8+PHBhdGggY2xhc3M9ImNscy0yIiBkPSJNMjMuMTI1LDI4LjgwNUgxOS41NTZhMi45MTgsMi45MTgsMCwwLDEtLjkwOC01LjdMMTkuOSwyMi43bC0uMTQyLTEuMzA4YTQuMzkyLDQuMzkyLDAsMCwxLC44MTEtMi44NjIsMy41MjIsMy41MjIsMCwwLDEsMi42MTctMS4wOSwzLjI4MiwzLjI4MiwwLDAsMSwzLjE3NywyLjE4NWwuNzA3LDEuNzgyLDEuNjQyLS45OWEyLjEyMywyLjEyMywwLDAsMSwxLjEwNi0uMzIsMi4xNTksMi4xNTksMCwwLDEsMi4xMiwxLjc2bC4wODYuNDU3aDEuNjI1Yy0uMDI2LS4yMzctLjA1OS0uNDktLjExNC0uNzU4YTMuNzU5LDMuNzU5LDAsMCwwLTUuNjYyLTIuNTMsNS4xMiw1LjEyLDAsMCwwLTQuNzE2LTMuMjEyYy01LjMzNCwwLTUuMDE0LDUuNzUzLTUuMDE0LDUuNzUzYTQuNTQzLDQuNTQzLDAsMCwwLDEuNDE1LDguODY1aDMuNTY5WiIvPjxwYXRoIGNsYXNzPSJjbHMtMyIgZD0iTTI4LDZBMjIsMjIsMCwxLDEsNiwyOCwyMi4wMjUsMjIuMDI1LDAsMCwxLDI4LDZtMC0yQTI0LDI0LDAsMSwwLDUyLDI4LDI0LDI0LDAsMCwwLDI4LDRaIi8+PC9zdmc+;strokeColor=#053b70;imageBackground=#FFFFFF;" parent="1" vertex="1">
          <mxGeometry x="922.3199999999999" y="622.8000000000001" width="48" height="48" as="geometry" />
        </mxCell>
        <mxCell id="P-BTsnygXm_hFObz8tvr-80" value="" style="group" parent="1" vertex="1" connectable="0">
          <mxGeometry x="863.645" y="430.60400000000004" width="157.48000000000002" height="40" as="geometry" />
        </mxCell>
        <mxCell id="P-BTsnygXm_hFObz8tvr-81" value="&lt;p style=&quot;margin-top: 0pt; margin-bottom: 0pt; margin-left: 0in; direction: ltr; unicode-bidi: embed; word-break: normal; font-size: 14px;&quot;&gt;&lt;br&gt;&lt;/p&gt;" style="rounded=0;whiteSpace=wrap;html=1;strokeColor=#053b70;strokeWidth=2;fillColor=none;align=left;verticalAlign=top;fontSize=14;fontFamily=Arial;container=0;recursiveResize=0;collapsible=0;fontColor=#053B70;spacingLeft=7;dashed=1;dashPattern=1 1;" parent="P-BTsnygXm_hFObz8tvr-80" vertex="1">
          <mxGeometry y="0.3149999999999977" width="157.48" height="39.37" as="geometry" />
        </mxCell>
        <mxCell id="P-BTsnygXm_hFObz8tvr-82" value="&lt;span style=&quot;font-family: Helvetica; font-size: 11px; font-style: normal; font-variant-ligatures: normal; font-variant-caps: normal; font-weight: 700; letter-spacing: normal; orphans: 2; text-indent: 0px; text-transform: none; widows: 2; word-spacing: 0px; -webkit-text-stroke-width: 0px; background-color: rgb(248, 249, 250); text-decoration-thickness: initial; text-decoration-style: initial; text-decoration-color: initial; float: none; display: inline !important;&quot;&gt;Master Data Orchestration&lt;/span&gt;" style="text;whiteSpace=wrap;html=1;align=center;container=0;fontSize=11;verticalAlign=middle;fontColor=#4f4f4f;" parent="P-BTsnygXm_hFObz8tvr-80" vertex="1">
          <mxGeometry x="8.134999999999991" width="141.21" height="40" as="geometry" />
        </mxCell>
        <mxCell id="P-BTsnygXm_hFObz8tvr-84" value="&lt;span style=&quot;background-color: rgb(248, 249, 250);&quot;&gt;&lt;b&gt;Integration content&lt;/b&gt;&lt;/span&gt;" style="text;whiteSpace=wrap;html=1;align=center;container=0;fontSize=11;verticalAlign=middle;fontColor=#074d92;" parent="1" vertex="1">
          <mxGeometry x="945.0240000000001" y="977.644" width="133.34" height="24.26" as="geometry" />
        </mxCell>
        <mxCell id="P-BTsnygXm_hFObz8tvr-86" value="" style="rounded=0;orthogonalLoop=1;jettySize=auto;html=1;fontSize=12;fontColor=#808080;startArrow=none;startFill=0;endArrow=block;endFill=1;strokeWidth=2;strokeColor=#595959;exitX=1;exitY=0.5;exitDx=0;exitDy=0;edgeStyle=orthogonalEdgeStyle;entryX=0;entryY=0.617;entryDx=0;entryDy=0;entryPerimeter=0;" parent="1" edge="1">
          <mxGeometry relative="1" as="geometry">
            <mxPoint x="842.52" y="730.1745000000001" as="targetPoint" />
            <mxPoint x="646.644" y="488.184" as="sourcePoint" />
            <Array as="points">
              <mxPoint x="678" y="488" />
              <mxPoint x="678" y="730" />
            </Array>
          </mxGeometry>
        </mxCell>
        <mxCell id="P-BTsnygXm_hFObz8tvr-87" value="" style="rounded=0;orthogonalLoop=1;jettySize=auto;html=1;fontSize=12;fontColor=#808080;startArrow=none;startFill=0;endArrow=block;endFill=1;strokeWidth=2;strokeColor=#595959;entryX=0;entryY=0.5;entryDx=0;entryDy=0;exitX=1;exitY=0.25;exitDx=0;exitDy=0;edgeStyle=orthogonalEdgeStyle;" parent="1" source="P-BTsnygXm_hFObz8tvr-20" target="E51u0FYAALTfA-zhzbv9-25" edge="1">
          <mxGeometry relative="1" as="geometry">
            <mxPoint x="1241.144" y="902.004" as="targetPoint" />
            <mxPoint x="1057.94693" y="685.0429917125191" as="sourcePoint" />
          </mxGeometry>
        </mxCell>
        <mxCell id="P-BTsnygXm_hFObz8tvr-88" value="" style="rounded=0;orthogonalLoop=1;jettySize=auto;html=1;fontSize=12;fontColor=#808080;startArrow=block;startFill=1;endArrow=none;endFill=0;strokeWidth=2;strokeColor=#c0399f;exitX=0.25;exitY=1;exitDx=0;exitDy=0;" parent="1" source="P-BTsnygXm_hFObz8tvr-18" edge="1">
          <mxGeometry relative="1" as="geometry">
            <mxPoint x="879" y="646" as="targetPoint" />
            <mxPoint x="1336.0819999999999" y="953.432" as="sourcePoint" />
          </mxGeometry>
        </mxCell>
        <mxCell id="P-BTsnygXm_hFObz8tvr-98" value="" style="rounded=0;orthogonalLoop=1;jettySize=auto;html=1;fontSize=12;fontColor=#808080;startArrow=block;startFill=1;endArrow=none;endFill=0;strokeWidth=2;strokeColor=#c0399f;exitX=1;exitY=0.5;exitDx=0;exitDy=0;entryX=0;entryY=0.5;entryDx=0;entryDy=0;" parent="1" edge="1">
          <mxGeometry relative="1" as="geometry">
            <mxPoint x="1363.244" y="603.234" as="targetPoint" />
            <mxPoint x="1301" y="603.6160000000001" as="sourcePoint" />
          </mxGeometry>
        </mxCell>
        <mxCell id="NJ394Nd6UQCw56CF_P2n-37" value="&lt;p style=&quot;margin-top: 0pt; margin-bottom: 0pt; margin-left: 0in; direction: ltr; unicode-bidi: embed; word-break: normal; font-size: 12px;&quot;&gt;&lt;br style=&quot;font-size: 12px;&quot;&gt;&lt;/p&gt;" style="rounded=0;whiteSpace=wrap;html=1;strokeWidth=2;align=left;verticalAlign=middle;fontSize=12;fontFamily=Arial;container=0;recursiveResize=0;collapsible=0;strokeColor=#595959;fillColor=#FFFFFF;" parent="1" vertex="1">
          <mxGeometry x="1442.344" y="546.1475" width="157.48" height="98.425" as="geometry" />
        </mxCell>
        <mxCell id="NJ394Nd6UQCw56CF_P2n-42" value="&lt;span style=&quot;font-family: arial; font-style: normal; letter-spacing: normal; text-indent: 0px; text-transform: none; word-spacing: 0px; display: inline; float: none; background-color: rgb(255, 255, 255); font-size: 16px;&quot;&gt;&lt;font style=&quot;font-size: 16px;&quot;&gt;Third-Party Solution&lt;br style=&quot;font-size: 16px;&quot;&gt;&lt;/font&gt;&lt;/span&gt;" style="text;whiteSpace=wrap;html=1;fillColor=none;fontStyle=1;fontSize=16;fontColor=#4f4f4f;align=center;verticalAlign=middle;container=0;" parent="1" vertex="1">
          <mxGeometry x="1464.46" y="585.86" width="123.48" height="29" as="geometry" />
        </mxCell>
        <mxCell id="Mxk8btfSiK8cYpv8Hb3W-125" value="" style="rounded=0;orthogonalLoop=1;jettySize=auto;html=1;fontSize=12;fontColor=#808080;startArrow=none;startFill=0;endArrow=block;endFill=1;strokeWidth=2;strokeColor=#595959;exitX=1;exitY=0.5;exitDx=0;exitDy=0;" parent="1" source="Mxk8btfSiK8cYpv8Hb3W-128" edge="1">
          <mxGeometry relative="1" as="geometry">
            <mxPoint x="1395" y="602" as="targetPoint" />
            <mxPoint x="1324.9920000000002" y="602.3820000000001" as="sourcePoint" />
          </mxGeometry>
        </mxCell>
        <mxCell id="Mxk8btfSiK8cYpv8Hb3W-128" value="REST / OData /..." style="rounded=1;whiteSpace=wrap;html=1;arcSize=50;fillColor=#FFFFFF;fontColor=#000000;strokeColor=#595959;fontFamily=Helvetica;fontSize=11;autosize=1;absoluteArcSize=1;strokeWidth=2;labelBackgroundColor=default;" parent="1" vertex="1">
          <mxGeometry x="1362.5980000000002" y="586.5175" width="102.362" height="19.685" as="geometry" />
        </mxCell>
        <mxCell id="E51u0FYAALTfA-zhzbv9-6" value="&lt;span style=&quot;color: rgb(15, 130, 143); font-family: Arial; font-size: 12px; font-style: normal; font-variant-ligatures: normal; font-variant-caps: normal; font-weight: 700; letter-spacing: normal; orphans: 2; text-align: left; text-indent: 0px; text-transform: none; widows: 2; word-spacing: 0px; -webkit-text-stroke-width: 0px; background-color: rgb(251, 251, 251); text-decoration-thickness: initial; text-decoration-style: initial; text-decoration-color: initial; float: none; display: inline !important;&quot;&gt;Cloud&lt;/span&gt;" style="text;whiteSpace=wrap;html=1;fontSize=12;container=0;" parent="1" vertex="1">
          <mxGeometry x="1447.088" y="546.0529999999998" width="70.87" height="23.62" as="geometry" />
        </mxCell>
        <mxCell id="P-BTsnygXm_hFObz8tvr-101" value="" style="rounded=0;orthogonalLoop=1;jettySize=auto;html=1;fontSize=12;fontColor=#808080;startArrow=block;startFill=1;endArrow=none;endFill=0;strokeWidth=2;strokeColor=#c0399f;entryX=0;entryY=0.75;entryDx=0;entryDy=0;edgeStyle=orthogonalEdgeStyle;" parent="1" edge="1">
          <mxGeometry relative="1" as="geometry">
            <mxPoint x="1247" y="604" as="targetPoint" />
            <mxPoint x="1042" y="740" as="sourcePoint" />
            <Array as="points">
              <mxPoint x="1042" y="740" />
              <mxPoint x="1173" y="740" />
              <mxPoint x="1173" y="604" />
            </Array>
          </mxGeometry>
        </mxCell>
        <mxCell id="P-BTsnygXm_hFObz8tvr-104" value="Master data providers" style="text;html=1;align=center;verticalAlign=middle;resizable=0;points=[];autosize=1;strokeColor=none;fillColor=none;fontColor=#4f4f4f;fontStyle=1;fontSize=14;" parent="1" vertex="1">
          <mxGeometry x="218.80600000000013" y="379.016" width="165.35399999999998" height="39.37" as="geometry" />
        </mxCell>
        <mxCell id="tMTpP-bfXrOysWSU5IBY-1" value="" style="shape=image;verticalLabelPosition=bottom;verticalAlign=top;imageAspect=0;aspect=fixed;image=data:image/svg+xml,PHN2ZyB4bWxucz0iaHR0cDovL3d3dy53My5vcmcvMjAwMC9zdmciIHZpZXdCb3g9IjAuMDAwMDU2MzM2NDAxMDMwNDIxMjYgLTAuMDAxMTM5NDUwMzUyNjM4OTU5OSA0MC43ODA5NDQ4MjQyMTg3NSA0Mi4wMDM2NDY4NTA1ODU5NCIgd2lkdGg9IjQwLjc4MDk0NDgyNDIxODc1IiBoZWlnaHQ9IjQyLjAwMzY0Njg1MDU4NTk0Ij48ZGVmcz48c3R5bGU+LmNscy0xe2ZpbGw6IzU5NTk1OTt9PC9zdHlsZT48L2RlZnM+PHRpdGxlPmNoYWluLWxpbms8L3RpdGxlPjxnIGlkPSJMYXllcl8yIiBkYXRhLW5hbWU9IkxheWVyIDIiPjxnIGlkPSJjaGFpbi1saW5rIj48cGF0aCBjbGFzcz0iY2xzLTEiIGQ9Ik0xOC4xODgsMzIuMzQ0aDQuMjE4bC03LjMxMiw3LjMxMkE3Ljg5LDcuODksMCwwLDEsOS4yODEsNDJhOC43NTMsOC43NTMsMCwwLDEtMy4wOTMtLjU2Miw3LjU4Miw3LjU4MiwwLDAsMS0yLjcxOS0xLjc4MkwyLjQzOCwzOC41MzFhOC4xNDgsOC4xNDgsMCwwLDEsMC0xMS42MjVsOS4zNzQtOS40NjhhNy42LDcuNiwwLDAsMSwyLjcxOS0xLjc4Miw4LjczNiw4LjczNiwwLDAsMSwzLjA5NC0uNTYyLDguMjEzLDguMjEzLDAsMCwxLDUuOTA2LDIuMzQ0bDEuMDMyLDEuMTI0LjE4Ny4xODgtMi4wNjIsMi4wNjJMMjAuMjUsMTguNzVhNC44MTMsNC44MTMsMCwwLDAtMi42MjUtLjY1Niw0Ljc4NSw0Ljc4NSwwLDAsMC0zLjY1NiwxLjVMNC41LDI4Ljk2OWE1LjQzOCw1LjQzOCwwLDAsMCwwLDcuNUw1LjYyNSwzNy41QTQuOTY5LDQuOTY5LDAsMCwwLDkuMjgxLDM5YTUuNTA5LDUuNTA5LDAsMCwwLDMuNzUtMS41Wk0zOC40MzgsMy40NjlhNy42MjMsNy42MjMsMCwwLDEsMS43ODEsMi43MTksOC43MzksOC43MzksMCwwLDEsLjU2MiwzLjA5Myw5LjEyMSw5LjEyMSwwLDAsMS0uNTYyLDMuMTQxLDcuNTI2LDcuNTI2LDAsMCwxLTEuNzgxLDIuNzY2TDI3LjM3NSwyNi4xNTZhNy45MzIsNy45MzIsMCwwLDEtNS44MTIsMi40MzgsOC4xNDcsOC4xNDcsMCwwLDEtNS44MTMtMi40MzhsLTEuMDMxLTEuMDMxYTMuNjUyLDMuNjUyLDAsMCwxLS40NjktLjU2M2MtLjEyNi0uMTg3LS4yNS0uMzc0LS4zNzUtLjU2MmwxLjk2OS0xLjk2OUwxNy44MTIsMjRsLjA5NC4wOTRhNC45NzMsNC45NzMsMCwwLDAsMy42NTcsMS41LDUuNTE0LDUuNTE0LDAsMCwwLDMuNzUtMS41TDM2LjI4MSwxMy4wMzFhNS4xLDUuMSwwLDAsMCwwLTcuNDA2TDM1LjI1LDQuNUE1LjA5Miw1LjA5MiwwLDAsMCwzMS41LDNhNC45NzYsNC45NzYsMCwwLDAtMy42NTYsMS41bC03LjAzMiw3LjEyNUgxNi41OTRsOS4wOTQtOS4xODdBOC4xMzEsOC4xMzEsMCwwLDEsMzEuNSwwYTguMDQ2LDguMDQ2LDAsMCwxLDUuOTA2LDIuNDM4WiIvPjwvZz48L2c+PC9zdmc+" parent="1" vertex="1">
          <mxGeometry x="863.315" y="941.9" width="30.75" height="31.496" as="geometry" />
        </mxCell>
        <mxCell id="tMTpP-bfXrOysWSU5IBY-2" value="&lt;span style=&quot;background-color: rgb(248, 249, 250);&quot;&gt;&lt;b&gt;Adapters&lt;/b&gt;&lt;/span&gt;" style="text;whiteSpace=wrap;html=1;align=center;container=0;fontSize=11;verticalAlign=middle;fontColor=#074d92;" parent="1" vertex="1">
          <mxGeometry x="847.5250000000001" y="977.644" width="62.33" height="24.26" as="geometry" />
        </mxCell>
        <mxCell id="tMTpP-bfXrOysWSU5IBY-8" value="" style="rounded=0;orthogonalLoop=1;jettySize=auto;html=1;fontSize=12;fontColor=#c1399f;startArrow=none;startFill=0;endArrow=block;endFill=1;strokeWidth=2;strokeColor=#4f4f4f;exitX=1;exitY=0.5;exitDx=0;exitDy=0;entryX=0;entryY=0.75;entryDx=0;entryDy=0;edgeStyle=orthogonalEdgeStyle;" parent="1" edge="1">
          <mxGeometry relative="1" as="geometry">
            <mxPoint x="1247.124" y="593.4639999999999" as="targetPoint" />
            <mxPoint x="1042" y="708" as="sourcePoint" />
            <Array as="points">
              <mxPoint x="1087" y="708" />
              <mxPoint x="1087" y="709" />
              <mxPoint x="1165" y="709" />
              <mxPoint x="1165" y="594" />
            </Array>
          </mxGeometry>
        </mxCell>
        <mxCell id="tMTpP-bfXrOysWSU5IBY-11" value="" style="rounded=0;orthogonalLoop=1;jettySize=auto;html=1;fontSize=12;fontColor=#808080;startArrow=none;startFill=0;endArrow=block;endFill=1;strokeWidth=2;strokeColor=#595959;exitX=1;exitY=0.5;exitDx=0;exitDy=0;entryX=0.5;entryY=1;entryDx=0;entryDy=0;dashed=1;" parent="1" target="zU_sP0cB1sATBuBRFiv1-3" edge="1">
          <mxGeometry relative="1" as="geometry">
            <mxPoint x="1072.304" y="882.7840000000001" as="targetPoint" />
            <mxPoint x="962.3040000000001" y="868" as="sourcePoint" />
          </mxGeometry>
        </mxCell>
        <mxCell id="pkRQ50IUbfdO1eF08MyC-1" value="1" style="ellipse;whiteSpace=wrap;html=1;fontSize=14;labelBackgroundColor=none;fillColor=#c0399f;fontColor=#FFFFFF;labelBorderColor=none;fontStyle=1;strokeColor=none;container=0;" parent="1" vertex="1">
          <mxGeometry x="511.814" y="413.3900000000001" width="31.496" height="31.496" as="geometry" />
        </mxCell>
        <mxCell id="pkRQ50IUbfdO1eF08MyC-3" value="2" style="ellipse;whiteSpace=wrap;html=1;fontSize=14;labelBackgroundColor=none;fillColor=#c0399f;fontColor=#FFFFFF;labelBorderColor=none;fontStyle=1;strokeColor=none;container=0;" parent="1" vertex="1">
          <mxGeometry x="665.194" y="413.3900000000001" width="31.496" height="31.496" as="geometry" />
        </mxCell>
        <mxCell id="pkRQ50IUbfdO1eF08MyC-4" value="&lt;font style=&quot;font-size: 14px;&quot;&gt;&lt;b style=&quot;font-size: 14px;&quot;&gt;Option A&lt;/b&gt;&lt;/font&gt;: Synchronize master data&lt;br&gt;&amp;nbsp; &amp;nbsp; &amp;nbsp; &amp;nbsp; &amp;nbsp; &amp;nbsp; &amp;nbsp; &amp;nbsp; &amp;nbsp; &amp;nbsp; &amp;nbsp; &amp;nbsp; &amp;nbsp; &amp;nbsp; &amp;nbsp; using SAP Master Data Integration" style="text;html=1;align=center;verticalAlign=middle;resizable=0;points=[];autosize=1;strokeColor=none;fillColor=none;fontSize=14;fontColor=#c0399f;" parent="1" vertex="1">
          <mxGeometry x="267.70799999999997" y="334.74600000000004" width="354.33" height="55.117999999999995" as="geometry" />
        </mxCell>
        <mxCell id="pkRQ50IUbfdO1eF08MyC-6" value="&lt;b style=&quot;font-size: 14px;&quot;&gt;&lt;font style=&quot;font-size: 14px;&quot;&gt;Option B&lt;/font&gt;&lt;/b&gt;: Replicate master data&lt;br&gt;&amp;nbsp; &amp;nbsp; &amp;nbsp; &amp;nbsp; &amp;nbsp; &amp;nbsp; &amp;nbsp; &amp;nbsp; &amp;nbsp;using Cloud Integration" style="text;html=1;align=center;verticalAlign=middle;resizable=0;points=[];autosize=1;strokeColor=none;fillColor=none;fontSize=14;fontColor=#4f4f4f;" parent="1" vertex="1">
          <mxGeometry x="327.70799999999997" y="530.24" width="228.346" height="55.117999999999995" as="geometry" />
        </mxCell>
        <mxCell id="pkRQ50IUbfdO1eF08MyC-10" value="5" style="ellipse;whiteSpace=wrap;html=1;fontSize=14;labelBackgroundColor=none;fillColor=#c0399f;fontColor=#FFFFFF;labelBorderColor=none;fontStyle=1;strokeColor=none;container=0;" parent="1" vertex="1">
          <mxGeometry x="840.516" y="589.3660000000004" width="31.496" height="31.496" as="geometry" />
        </mxCell>
        <mxCell id="pkRQ50IUbfdO1eF08MyC-14" value="1" style="ellipse;whiteSpace=wrap;html=1;fontSize=14;labelBackgroundColor=none;fillColor=#4f4f4f;fontColor=#FFFFFF;labelBorderColor=none;fontStyle=1;strokeColor=none;container=0;" parent="1" vertex="1">
          <mxGeometry x="511.814" y="498.7440000000001" width="31.496" height="31.496" as="geometry" />
        </mxCell>
        <mxCell id="pkRQ50IUbfdO1eF08MyC-17" value="3" style="ellipse;whiteSpace=wrap;html=1;fontSize=14;labelBackgroundColor=none;fillColor=#4f4f4f;fontColor=#FFFFFF;labelBorderColor=none;fontStyle=1;strokeColor=none;container=0;" parent="1" vertex="1">
          <mxGeometry x="897.482" y="842.5220000000002" width="31.496" height="31.496" as="geometry" />
        </mxCell>
        <mxCell id="pkRQ50IUbfdO1eF08MyC-18" value="4" style="ellipse;whiteSpace=wrap;html=1;fontSize=14;labelBackgroundColor=none;fillColor=#4f4f4f;fontColor=#FFFFFF;labelBorderColor=none;fontStyle=1;strokeColor=none;container=0;" parent="1" vertex="1">
          <mxGeometry x="1314.9560000000001" y="546.0560000000002" width="31.496" height="31.496" as="geometry" />
        </mxCell>
        <mxCell id="gbwkDzLEDeNJJxxzxuom-2" value="" style="shape=image;verticalLabelPosition=bottom;verticalAlign=top;imageAspect=0;image=data:image/png,iVBORw0KGgoAAAANSUhEUgAABrcAAANTCAYAAAAE5kbVAAAACXBIWXMAAC4jAAAuIwF4pT92AAAgAElEQVR4nOzda3SV930v+B9iSxuEtDfmZjAgsAEnNog0TpteLLlOeklriZxzepnEgM9MZ85pAvZMz1xOTOw3fdM6Tl+e+NbLmlmrsZO0s9ZpYjuH9Ewb1+AkvSQpYDuuHbdF2DEGjC2BMZJAzAsJAkZgSey9/8/z7M9nra5ishx9sxB6nv18n9/vPyt2Dv5uAAAAAAAAQPY9NSt2Dp5JnQIAAAAAAADew56IuLUldQoAAAAAAAB4D3si4tYzH6u8VQpzWwAAAAAAAGTXeLH1K5W3IiJMbgEAAAAAAJBVFxRbEcotAAAAAAAAsumiYisiohT2EgIAAAAAAJAtE8VW9a13/wcmtwAAAAAAAMiSSxZbEcotAAAAAAAAsuOyxVaEcgsAAAAAAIBseM9iKyKiNMuRWwAAAAAAAKS1JyJuHfvVyxdbESa3AAAAAAAASGvKxVaEcgsAAAAAAIB0plVsRSi3AAAAAAAASGPaxVaEcgsAAAAAAIDGm1GxFaHcAgAAAAAAoLFmXGxFRJTizJka5wEAAAAAAIBJjRdbt82fUbEVYXILAAAAAACAxrjiYitCuQUAAAAAAED91aTYilBuAQAAAAAAUF81K7YilFsAAAAAAADUT02LrQjlFgAAAAAAAPVR82IrQrkFAAAAAABA7dWl2IqIKMWZWv9XAgAAAAAA0MTGi62+2hdbESa3AAAAAAAAqJ26FlsRyi0AAAAAAABqo+7FVkREKewlBAAAAAAA4MpMFFtX1bXYijC5BQAAAAAAwJVpWLEVodwCAAAAAABg5hpabEUotwAAAAAAAJiZhhdbERGlWY7cAgAAAAAAYHr2RMStp/sbW2xFmNwCAAAAAABgepIVWxHKLQAAAAAAAKYuabEVEVEKawkBAAAAAAB4b+PF1qZ0xVaEyS0AAAAAAADeWyaKrQjlFgAAAAAAAJeXmWIrIqIU9hICAAAAAAAwuYlia0Emiq0Ik1sAAAAAAABMLnPFVoRyCwAAAAAAgItlstiKUG4BAAAAAABwocwWWxERJUduAQAAAAAAMGG82Pp4NoutCJNbAAAAAAAAjMt8sRWh3AIAAAAAACAnxVaEcgsAAAAAAKDZ5abYilBuAQAAAAAANLNcFVsRyi0AAAAAAIBmlbtiKyKiNOvMmdQZAAAAAAAAaKw9EXHrqX+zMFfFVoTJLQAAAAAAgGaT22IrQrkFAAAAAADQTHJdbEUotwAAAAAAAJpF7outCOUWAAAAAABAMyhEsRWh3AIAAAAAACi6whRbEcotAAAAAACAIitUsRURUYozqSMAAAAAAABQB+PF1r8tTrEVYXILAAAAAACgiApZbEUotwAAAAAAAIqmsMVWREQp7CUEAAAAAAAoiolia1Ehi60Ik1sAAAAAAABFUfhiK0K5BQAAAAAAUARNUWxFKLcAAAAAAADyrmmKrYiIkiO3AAAAAAAAcmu82Pp3zVFsRZjcAgAAAAAAyKumK7YilFsAAAAAAAB51JTFVkREaVbqBAAAAAAAAEzHnoi4dbQJi60Ik1sAAAAAAAB50tTFVoRyCwAAAAAAIC+avtiKiCjFmTOpMwAAAAAAAHB548XWry1u6mIrwuQWAAAAAABA1im2zqPcAgAAAAAAyC7F1rsotwAAAAAAALJJsTUJ5RYAAAAAAED2KLYuQbkFAAAAAACQLYqty1BuAQAAAAAAZIdi6z2U4kzqCAAAAAAAAMTZYuvXFVuXY3ILAAAAAAAgPcXWFCm3AAAAAAAA0lJsTUMpzthLCAAAAAAAkMh4sfUbSxRbU2RyCwAAAAAAIA3F1gwotwAAAAAAABpPsTVDyi0AAAAAAIDGUmxdAeUWAAAAAABA4yi2rpByCwAAAAAAoDEUWzWg3AIAAAAAAKg/xVaNlGadSR0BAAAAAACg0PZExK0jv6nYqgWTWwAAAAAAAPWj2Kox5RYAAAAAAEB9KLbqoBRhLyEAAAAAAECNTRRbVyu2aszkFgAAAAAAQG0ptupIuQUAAAAAAFA7iq06U24BAAAAAADUhmKrAUqO3AIAAAAAALhi48XW/6DYqjeTWwAAAAAAAFdGsdVAyi0AAAAAAICZU2w1mHILAAAAAABgZhRbCSi3AAAAAAAApk+xlYhyCwAAAAAAYHoUWwmV4syZ1BkAAAAAAADyYrzY+sRSxVYiJrcAAAAAAACmRrGVAcotAAAAAACA96bYygjlFgAAAAAAwOUptjJEuQUAAAAAAHBpiq2MUW4BAAAAAABMTrGVQcotAAAAAACAiym2Mqo060zqCAAAAAAAAJmyJyJuHf6kYiuLTG4BAAAAAAD8mGIr45RbAAAAAAAA4xRbOaDcAgAAAAAAUGzlhnILAAAAAABodoqtHFFuAQAAAAAAzUyxlTPKLQAAAAAAoFkptnKoFGfOpM4AAAAAAADQaOPF1u3LFFs5Y3ILAAAAAABoNoqtHFNuAQAAAAAAzUSxlXPKLQAAAAAAoFkotgpAuQUAAAAAADQDxVZBKLcAAAAAAICiU2wVSCnOpI4AAAAAAABQN+PF1mbFVlGY3AIAAAAAAIpKsVVAyi0AAAAAAKCIFFsFpdwCAAAAAACKRrFVYKVZDt0CAAAAAACKY09E3Hpy8zWKrYIyuQUAAAAAABSFYqsJKLcAAAAAAIAiUGw1iZKthAAAAAAAQM6NF1tbFFvNwOQWAAAAAACQZ4qtJqPcAgAAAAAA8kqx1YSUWwAAAAAAQB4ptpqUcgsAAAAAAMgbxVYTU24BAAAAAAB5othqcsotAAAAAAAgLxRbRCnOnEmdAQAAAAAA4L2MF1tblyu2mpzJLQAAAAAAIOsUW5yj3AIAAAAAALJMscUFlFsAAAAAAEBWKba4iHILAAAAAADIIsUWk1JuAQAAAAAAWaPY4pJKcSZ1BAAAAAAAgHPGi607FFtMzuQWAAAAAACQFYot3pNyCwAAAAAAyALFFlOi3AIAAAAAAFJTbDFlpVkO3QIAAAAAANLZExG3vnPHCsUWU2JyCwAAAAAASEWxxbQptwAAAAAAgBQUW8xIyVZCAAAAAACgwcaLrX+v2GL6TG4BAAAAAACNpNjiiii3AAAAAACARlFsccWUWwAAAAAAQCMotqgJ5RYAAAAAAFBvii1qRrkFAAAAAADUk2KLmlJuAQAAAAAA9aLYouZKcSZ1BAAAAAAAoIDGi63/UbFFbZVSB4Aiq7a1xAcWtF70+6s6SrGqY3Zdvuaeo6MxODI25d8HAAAAAKgDxRZ1o9yCKdq4oDXmt41v8rxlafnc75//61XzStFVp9Kq1gZHxmLvm6Pn/nn/8dOx//ipc//89MHhSX8NAAAAAPAeFFvU1aw5/8+AxYQ0vbPF1cYFbTG/rSVWdcyOVR2lqLa2xMZJJq+a1fmF2J6jIzE4cibeGhmLvUdHIkIJBgAAAACcLbZWKraoG+UWTeOWpeWJNYFt58qrjVe1RnViGova2Xt0NAZHx2L/8VPnJsLO/zUAAAAAUEiKLRpCuUXh3LK0PHGmVWn81/NmR1eHDZxZcrb8Ojvp9fTBkxMTYKPv8W8CAAAAABml2KJhZs35v5Vb5NN4gTU7blk6JzYuaI0PLGhVYhXA3qOjMTgyXnydnfjaM/F7AAAAAEAmjRdb/5Nii8ZQbpEL4+sEW+OWpXPilqXl2LjAOsFmMzgx2bXn6EjsP3469h4dUXoBAAAAQHqKLRpOuUUmbZwossYLrbKJLC5pYOIsr6cPDk8UX6esNwQAAACAxlBskYRyi0y4ZWnZVBY1tWtireGeo6Ox9+jIufO9AAAAAICaUGyRzKy5yi0SODuZtalrbvQuLaeOQ5PYN7HWcK/CC3LnDz48PzYuaEsdgwL47d1HY//xU6ljUAB3rJ0XW9fOSx3jPbnfYaZ2HTx52f/cinAAaHp7IuLWE4otErHrjYZY1VGKW5aWY1PX3LhlaTkqJrNIoHtBa3QvaL3g93YdHI69E4XX0xPTXkC2rOooxZ03dqaOQUFsXTsvfu8fB1PHoAC6Okq5eEkrDxnJqsqM/q19R0fjrXeVXu8uWc8vzt6aOFsXAMgVxRbJKbeomx+XWXMuKhQgK3qXli946DM0MhZ7JoquXQdPetsZMmBT19zUESiQO9a2K7cA6miyz34Xl6yXLs52nXf/ff69+NlCbP/x015IA4C0FFtkQinO2EpIbVTbWsYLrVXt8fGuuaazyKVKW8t5hdf4h+59EysMn37tZOw9OurDNDTYXTd2pI5AgXR1lGLjVa2x9+hI6ijkns9RUA/nF2EXlmIXF2Jni7D9x0/F/uOnYnBkLPa+MToxDebnPADUwXix9Vtdii2SM7nFFam2tcTHV82NTV3t0e/Negqqe0FbdC9oO7cWbeD4qR9Pdr1mlSHU08YFbdHV4XaF2rprfWf89q43UscA4AqdLb9649LrN88WYE8fPKn8AoAro9giUzwtYtoUWjS7ro5SbF1bOneIvLIL6ueu9c7aovY+3jU3fjt1CAAa4lwBNsn5cwPHT8X+46dj79GR2H/8VOx9Y/TcFBgAcAHFFpmj3GJKFFpwacouqJ+Pu+ZQB5W2lrhj3bz405feTh0FgIS6OkrR1VGatPjadXD4XNG167VhpRcAzUyxRSYpt7isTV1znaEF0/Tusuv8M7uePjgcgyNjiRNCPtyxbp5rD3WzqatduQXAJfUuLf943eFP/Pj3dx0cvmDS6+mDJ9MEBIDGUGyRWcotLrKqoxRb182LO9bOc84J1MC7z+zadXA4Hh84EU+/NmzXP1zGpq721BEosP6uuVFta/HCAQDT0ru0fNGk176jI7Hn6GjsPTqi8AKgSBRbZJrmgnPuWDcvtq7tmHQlA1A7538gHhoZi68NvBO7Dp6Mr+1/x0NWmLCqo2QNLnV3x7p58YXnjqWOAUDOnX2ZLWLeud87W3jtOngy9rwx6qU2APJGsUXmzZr7J/vPpA5BOqs6SnHX+k6rnyAjdh0cjsf3m+qCu9Z3xud/+qrUMSi4fUdH4qf/4mDqGOTUvR+sxr0frKaOAeTE0MhY7Dk6Gk+/djJ2TawsB4CMGi+2/mfFFtlmcqtJbVo1N+5aXzGlBRlz/lTXwPFT8fj+d+Lpgyfj8f3vJE4GjXXX+s7UEWgC3QvaYlVHKfYfP5U6CgAFV2lruWil4dmSS9kFQIYotsgN5VYTqba1xB3r5sVd6zudpQU50NVRijvXd8ad6zvH1xfut76Q5rBxQZvrFA1z1/rO+M9/+2bqGAA0IWUXABmj2CJXZs39k3+1lrDgxlcPVqwehAJ5YuDE+FTXaydNHFA4f9i7MLau60gdgyYxcPxUvP/PXk0dgxy694PzrSUE6mZoZCyePngynn5tfG25e34A6myi2Fql2CI3lFsFtnFBW9y1vtMDQii4fUdH4k9fetuHXgrj4NaVXsagoT7xV4fj8f0nUscgZ5RbQCNduLLcNQuAmlJskUvKrQK6ZdmcuPeD1ehdOid1FKDBFF3k3R3rOuKR3oWpY9BkvvjS8fjtXW+kjkHOKLeAVMZXlp+IXQeH42v7T1hZDsCVUGyRW7Pm/rFyqyhuWTYn7r1JqQWM23d0JP70RUUX+fJnv7g4+le1p45BkxkaGYv3feVVDweZlntvUm4B2fDE/vGV5YouAKZpvNj6XxRb5JNyqwCUWsB72XXwZHzxxbd94CXTVnWU4gefWJ46Bk3qU0+/EX/60vHUMcgR5RaQRYouAKZIsUXulVIHYOaUWsBU9S6dE71L58QjsfDcB14PccmaTSa2SGjr9fP8XAQg9/pXtUf/qvYL7vsVXQC8i2KLQjC5lUNKLaAWzu7q/+JLb8fTr51MHQfihU8sj64O792Qzg1fedUaV6bM5BaQJ1986Xg8vv+deHz/idRRAEhLsUVhlGalTsCUreooxed/5ipnkQA1UWlria3rOmLruo4YOH4qvvjS2/HFF497sEsSvcvmKLZI7uOr2uMLzw2ljkFO+BwF5Mn59/2P738nHnh2yH0/QPPZExG3vq3YoiBmtZvcyrxqW0v8wc9cFVvWdaSOAjSBs+dzPW59CQ30h7csdJ0juYHjp+KGr7yaOgY5ce9N8+Mek1tAjp297/+itbwAzUCxReEotzLu3pvmx13rO6PS1pI6CtBkhkbG4vH9J+ILzx2LvW+MpI5DgVXbWuKFTyx3rSMTfvYvXvMzjylRbgFFMTQyFn/60tumuQCKS7FFIc1u3fSffjd1CC62aVV7fPVXlkT/qvYoz7b0BGi88uxZsXFhW/yH93fGx1e3x5zZLfFPb43G8GnvRFBbv7lmXvzGdfNSx4CIiBg+FfHfX3kndQxy4JZlc6J3mTNwgfwrz54VH15Sjjs3VOKWZXNicPhMvPjWaOpYANTGeLH1HxRbFI9XpDNmVWcpdvZdHV/+pcXOHgEyo3tBW9z/M1fFj/79yvjDn18YGxe2pY5EgWxdp9giO+643vcjAM2rd9mc+PIvLY4ffHJ5bL2+I6om6wHyTLFFoblLyYhqW0vce9P8eP4Ty70BCmTalnUd8e1/tyy+82vLfODliq3qLLnukSmVtpbYtKo9dQwASKqroxSP3LIwXvjk8rj3pvmxqtPLtwA5o9ii8Ga3fvx3fjd1iGbXu2xOfPVXr45+D1KAHLl67uzYtKo9/uMNnXH13Nnx4uBoDI6MpY5Fzty1oaLcInPmlGbF//vPb6eOQcZZSwg0g/LsWdG7bE7cuaESqztLsffoiHt+gOybKLZWK7YoNK/bJ1Rta4mv/NKS2Nm31ApCILcqbS1x54ZKPP+JFbGzb6mJB6Zl6/UdqSPARfpXtZtKBYB32bKuI57/xIr4w59fZJILILsUWzQNn9oT2Xp9R7zwyRWmtYBCGd/RvyR+8MkVVhbynnqXzfFyB5m1abV7NACYjJILILMUWzQVTx0bbFVnKXb2LY1HblkUFQ99gYIa39G/KF745Ir4/M8s8KGXSd1haosMu2tDJXUEAMg0JRdApii2aDqz2v/wX86kDtEstl7fEX/wswuUWkBTevTF4/GFZ4di7xsjqaOQAdW2lnjh9hWuiWTajV9+JfYfO5U6Bhl174fmxz03zU8dAyAzHn3xePze995y7QRovPFi6z8qtmgunig1QLWtJb7yy0vikZ83rQU0ry3Xd8S3f+2a2Nm/NHqXzUkdh8Q2rW53TSTz7jS9BQBTtuX6jnj+kyvi3g/Nt54coHEUWzQtdxt1tml1e7xwu7O1AM7qXTYndvYvje/82jWx1Vq6puXPnjxw7hYATN89N82PF25fYcUvQP0ptmhqyq06qba1xOd/dkF8+ZeWeDMdYBLdC9vikZ9fFD+4fYWio8ms6iyZ3iMXujp8rwLATFTaWuL+n10QP7h9hWspQH0otmh6Wpc62LiwLb7Rv9QqG4Ap6OooKbmajD9n8uQO368AMGNdHaXY2b80dvYvjVWdpdRxAIpCsQWh3Kq5rdd3xDf6l0b3wrbUUQByRcnVPPz5kidWEwLAletdNsd5XAC1odiCCbNb+3/nd1OHKIJqW0v8l95Fcc+H5kd59qzUcQByq9rWEptWt8cd7+uIweHTsfeNkdSRqKHea+bEnRuqqWPAlJVnz4qBY6N+FnGRW5bNjd5rrNoCmI7eZXPiN9fOi71vDMfAsVOp4wDkzXix9dvXKrYgTG7VxKrOUnxj07LY4k10gJrp6ijFLdfMTR2DGrvj+s7UEWDaNq2elzoCABTG+KrCZfGVX77aFBfA1Cm24F3cRVyhTavb4zu/vtwaQoAaGxoZi9/77pupY1BDZ6fyIG/6V7c7JwQAaqx/dXu8sHml+0OA96bYgkkot67AvR+6Kr78y1dHxZtGADX3hX1Dsd+qkkLZtLrdNZPc8uANAGqv0tYSX/7lq01xAVyaYgsuoeR0qOmrtrXE539uoTWEAHUycPxUPLBvMFyjiuWO91lJSH5tvb4zHtg3lDoGABTS2SmuTz11OB7/1xOp4wBkxZ6IuPW4Ygsm5bWYaaq2tcRO52sB1NXd33ojBkfGUseghlZ1lqJn2ZzUMWDGuhe2xUZrqAGgbiptLfGlX746Pv9zC01xASi24D25W5iGjQvb4gebVzpfC6COdr920tuaBbTlelNb5N9W04cAUHfbN1Ri56ZlXioBmpliC6agFGdSR8iHTavb45GPLHZWCECdfeaZN8K1qXi2mnimALZe3zH+MwoAqKvuhW3xrV9fHnd/6w1rgYFmM15sfUqxBe9FUzMFW9/XEV/62NWKLYA6e/TF47H3jZHUMaix3mvmRFdnKXUMuGKVtpbYtLo9dQwAaBr3/9zC+PLHrramEGgWii2YBncH7+Gen7wqHr51ceoYAIU3NDJmIqKgrHKjSPqvnZc6AgA0lf7V7fHt31huTSFQdIotmKaS3U+X9shHFjsjBKBBvrBvMAZHTqeOQY1VTbpQMFuu74jPPHMkBkfGUkchOZ+jABqlq7MUOz++LD7zrTfii/90LHUcgFqbKLauU2zBNJjcugTFFkDjDBw7Fb//D2+mjkEdbLp2nrW+FM4m01sA0HCVtpZ4+NbF8fmfW5g6CkAtKbZghjxtepdqW0t8+WNXK7YAGujub1lHWFRWElJEd3ZXU0cAgKa1vbvqHC6gKBRbcAXcCZyn2tYSOz9+TfSv9jYuQKPsfu1kPP6vb6eOQR2s6ixFz7I5qWNAzXUvbItVnaXUMQCgafWvnhc7P36N6zGQZ4otuEIlq+LHVcvjxVa3A0oBGuozzxxxbElBmYKmyLZc32mdarNz7QJIqnthW3z7N1bEr3ztR7H3yEjqOADTMV5sfVqxBVfC5FYotgBSefSfjvkgWmBWElJkvr8BIL3KxAYe52ECOaLYghpp+nJLsQWQxtDIWHzGWVuF1XvN3OiyJoYC6+osxcZF7h8BILVKW0t86WNXe/EEyAPFFtRQU5dbii2AdH7vH96MweGx1DGok63v60gdAeruzu5q6ggAwISHP7JYwQVkmWILaqypy63P/9xCxRZAAgPHTsUDewdTx6BOquUWq2FoCr7PASBbHv7I4njkI4tTxwB4N8UW1EHTlluPfGRxbPFGD0ASn/rm4dQRqKNNq+dFpa1pbzFoIpW2Fm+IA0DGbHlfp4ILyBLFFtRJKc6kjtB4j3xUsQWQyu4fnYxdr76TOgZ15GE/zaR/dXt88YVjqWMAAOc5+8znU3/tpTogqfFia5tiC+qh6V6rvnNjVbEFkNCn/vpQ6gjU0arOUvRcMyd1DGiY/mvnRbXcdLfUAJB5W97XGY981AQXkIxiC+qsqT6Jb31/Z9x/88LUMQCa1oN7B2P/sVOpY1BHW97vBRKaj2lFAMgmBReQiGILGqBpyq2Ni9riYTuXAZIZGhmL3/uHN1PHoM485KcZbVXqAkBmKbiABlNsQYOUogkO3dq4qBw7/801qWMANLXf+/ujMTh8OnUM6qj3mrnR1VlKHQMarnthW2xc1BZ7jwynjgIATGLL+zpj75HheGDvYOooQLFNFFtrFFvQAIWf3KqWW+KRjy6JSlvh/6cCZNbAsVM+SDYB0ys0M1OLAJBt99+8yP0qUE+KLWiwwjc+X/mVpdG9sC11DICm9qm/PpQ6AnVWLbfEpmvnpY4ByfT7/geAzHv4I0sUXEA9KLYggdKsAm8lvL9nUfRcMzd1DICmtvtH78TuV9+JWamDUFebVs8zJU1T6+osxabV8+KJf3k7dRQapMifowCK7OGPLIl9h0esEwZqZU9E3Hpsu2ILGq2wT6G2vL8ztm+spo4B0PQ+9VemtpqBN2Ahov8601sAkAf/7d9eExsXlVPHAPJPsQUJFbLc2rioHJ/vWZQ6BkDTu+/v34yBY6dSx6DOujpLJqUhIjZdOy+q5ULeXgNAoVTaWuLhjy5x3QauhGILEivcVbxaHr9BsRoJIK2hkbF4YK97vGaw9f2V1BEgEyptLc7eAoCc6F7UFl/+1aWpYwD5pNiCDChcA/TIR5dE96K21DEAmt5ndh+JweGx1DFogC1WEsI5VnQCQH70XDM3Hv6FJaljAPmi2IKMKFS5teX9ndHnbVmA5PYdGYlHXziWOgYN0Lt8bnR1llLHgMzoucbfCQDIky3v6/SyFjBVii3IkMKUW87ZAsiOu585kjoCDeJBAFxs03VetgKAPHn4o0ti46Jy6hhAtim2IGMKU245ZwsgG578l7dj16vvpI5BA1TLLbHJxDRcZPvG+akjAADT9KVfXRrVsudKwKQUW5BBhbhq39+zyDlbABnxmd2mtppF/7XzvFgCk+jqLHn7GwBypquzFI981PlbwEUUW5BRuX8i1bt8bmzfWE0dA4CIuO/v34yBY6dSx6BBtlpJCJe0/QPuTwEgb/qunRd3uoYDP6bYggwrxZkzqTPMWLXcEg97qwYgE4ZGxuKBPW9Gnq8rTF1XZ2v0XDM3dQzIrE3XzotP+3lYcP58AYroczcvil2vvBN7jwynjgKkNV5s3blWsQUZlevJrXt+akF0dZZSxwAgIj6z60gMDo+ljkGDbL3B1BZcTqWtJfqvcyYdAOTRl25b5vwtaG6KLciB3F6pe5fPje0fcFg3QBbsOzIcj74wlDoGDbTl/ZXUESDztvp7AgC51NVZint+akHqGEAaii3IidyWW/f3LEodAYAJd+8+kjoCDdS7fK7JaZiCvmvneesbAHJq+wfmm8KG5qPYghzJ5aftez68ILoXlVPHACAinvyXt2PXq++kjkEDmdqCqeu/tiN1BABghh75hau9qALNQ7EFOZO7K3RXZ2t81mg4QCYMjYzFZ3aZ2mom1XJLbPIGK0zZnR+opo4AAMxQpa0lHvmFq1PHAOpPsQU5lLty65FfXJI6AgATHtjzVgwcG00dgwbqv7YjKm25u32AZLoXlaOrszV1DABghvqunWc9IRSbYgtyqhRnUkeYuv7r5kXPNXNTxwAgIkk/3bIAACAASURBVAaOnYoH/vGtyNN1hCu39f2dqSNA7tz5gWrcbcq1eFz/AJrG/T2LY9cr78Tg8FjqKEBtjRdbdym2II9y9er1/b2LU0cAYMLv/91RH+6aTFelNXqWe8kEpqv/OuduAUCedXWW4p4POyIDCkaxBTmXm3Lrng8viK7OUuoYAETE7lffiUd/MJQ6Bg1magtmpquzFL2KYQDIte0fmB8bF5VTxwBqQ7EFBVCalYN9GtVyS9z5E/NTxwBgwn1/90bk4fpBbW29oZI6AuTW1hs6Y/erJ1LHAACuwP29i+K2//pK6hjAldkTEbcO3bVOsQU5l4vJrXs+vNDh9QAZ8dgLQ7Hr1XdSx6DBepfPjZUmqGHG+q/riGrZ/SwA5FnP8rmxxQtfkGeKLSiQzH/C7qq0xrYPmNoCyIKhkbH4/b87mjoGCfgQD1em0tbi7C0AKID7exd7YQXySbEFBVPK+lape37KgZ0AWfHAP74VA4OjqWPQYNWyh/JQC/3XdsSjzzuvEADyrNLWEts/cFXc97dvpI4CTN14sfW/KragSDL9qklXpTU2e1McIBMOHDsVD/7jm6ljkED/dR3WA0MN9F03L7oqraljAABX6M6fmO+aDvmh2IKCyvSTqns+bGoLICt+/2/fiMHhsdQxSMBKQqid/uvmpY4AAFyhSluLZ1aQD4otKLDMllumtgCyY/er78SjP7BKqxl1VVqjZ/nc1DGgMJTFAFAMm2+omN6CbFNsQcFlttzyBgxAduzYdTh1BBLxIB5qq3tROTYuLqeOAQDUwMO/eHXqCMDkFFvQBDJZbpnaAsiOx34wFHsPD6eOQSJbXY+h5pTGAFAMPcvnRq8tB5A1ii1oEpkst0xtAWTD0MhY3G1qq2n1Lp8bKztLqWNA4Si3AKA4PvvTC1NHAH5MsQVNpBRnUke4kKktgOx44PtvxeDJsdQxSMQDeKiPSltL9F/XEU+8fDx1FK5Exj5HAZDG2emtXa+8kzoKNLvxYut/U2xBs8jc5JYHaQDZcODYqbjvb99IHYNEquWW6F/TkToGFFb/dfNSRwAAasT0FiSn2IImlKlyq1puiTs/OD91DAAi4u6nrSNsZv3XdUSlLVO3CVAom2+oRLXs7xgAFEHP8rmxcXE5dQxoVootaFKlLO3T6L9ungdpABmw+9V34omXj6WOQUJbbjRJDfXWf928ePQHQ6ljMGPZ+RwFQHrbf2J+fPq/H0wdA5rNRLF1vWILmlCmmqR7fsYYN0AW7Hj6UOoIJNRVaY2e5XNTx4DC2/7Bq1JHAABqZPMNleiqtKaOAc1EsQVNLjPlVu+K9ljZ6SYAILXHfjAUew8Pp45BQs6/hMboXlT2EAwACuQeZ29Boyi2gOyUWx6kAaQ3NDIWd5vaanpbrSSEhnEPDADF0b+mw5maUH+KLSAiIkpZWBVfLbfEZh/sAZJ74PtvxuDJsdQxSMgkNTTW1hsrcd933kgdAwCogUpbS2y5oRoPfv/N1FGgqMaLrd9RbAEZmdzacmM1dQSApnfg2KgHrMQWU1vQUCs7W2Pj4nLqGABAjdz5wfmpI0BRKbaAC2Sk3PIgDSC1u//mcOoIJFYtt0T/dR2pY0DT2f7Bq1JHAABqZGVna/SvcU8NNabYAi6SvNzauLgc3Yu8rQqQ0u5X34knXj6eOgaJ9a/piIozAqDhlMoAUCxe4oaaUmwBk0r+BMsFHyC9T//lwdQRyABrgiGNSrnFPTEAFEjfdR3RVXGOLdSAYgu4pFLqAEa1IWLfkeEYHB6b9r+3qlKKlZ1umLkyD/3jmzEwNJo6Bol1VVqjZ/nc1DGgafWv6YhHnx9KHQMAqJEtN1acaQxXRrEFXFZpVpxJ9sW7F5c9mKeQDhwbjf1DozE4PBb7Dg9HRMSuV06c+893n/frWuuqtF7whtj8ckt0L55z7p+r5ZboPu/g+o2L5lhD1sSGhsfivu8ciZTXArJhq6kRSKrvuo6YX541o5ddSGNW6gAAZNrWGyvxue8cSR0D8mpPRNw6+DvvU2wBl5R0csv6I/Lu2SPDsX9oNPYdHo59h0+e+3VKA0OjF03hTPUspe7F5aiWZ0fE+Hl41fLsC8qwnuXttQ1Lcvf97REPUokIa4IhC7bcWI0Hv/9m6hgAQA2s7GyN/jUdzjaG6VNsAVOStNyykpA8OXBsNPYeHo7dr5w49/+L5vxi7nL/+86WYGcLsJ4V46vMlF/5cuDYqIeoREREz4p2k9SQAcotACiWPuUWTJdiC5iyZOWWlYRk3dDwWDzxz8di9yvvxK5XTjiT6DxnS7DJCrCzaxE3Li5HV6U1uheXrT7MqE//5cHUEcgIU1uQDRsWlaN7cTn5FDgAUBubb6jGjr85ZFsGTI1iC5iWUqpjVrbcYCUh2XNgaDSeePl4PPr8oAdLMzQwOBoDg6Ox+8CFxVd14uyv3hXt0b24HKsqrbHhvLO/aKzdr5y46M+I5lQtt0T/dZ2pYwATttxQjR2HDqWOwVQ4rhKAKei/rjMefX4wdQzIuvFi6z8ptoCpSza51bvC+jKyQaHVGIPDY+OFynnTXu8uvDYuLsfKionORthmaosJ/Ws6TVZChvSv6Ygdf6PcgqJ69vBw3J3xv+PzJ+7RJ3P+ebwREasqre7f4T30relQbsHlKbaAGUlSbnWZ2CADnnz5eDz2/KD91wlNVnh1VVrPlV29K9r9rKiDh77/pjWbnLPZSkLIlJUVh89Dkb01fDoXZ/fO5GfQ2fXkET9+mXX8rN6W6PFyK02sb01HVMstVhPC5BRbwIwlKbf613Sk+LIQQ8Nj8eD334xHnx/0cD+jBoZGL3irrVpuid4V7dGzol3ZVQNDw2Nx33eOpI5BRnRVWj1sggxy+DyQRwNDo+c+Y01W4J3d2rBqogTrWTHX5BdNo3+N1YQwCcUWcEWSlFsepNFoZ0utB79/1NtSOTM4PBZPvHz83EO+arkl+td0Rs+KudG7ot2H4Wm67ztH/B3gnC03Ov8Ssqh/TWfsKDt8HiiWc1sb3vX7715V3rui3cpkCsdqQriIYgu4YknKLedt0ShKreIZHB6LR58fPPfB4OwH4L41HYrz9/Ds4eF48Ptvpo5BhmyxkhAyqTLxIoeHYEAzuNyqci+0URRWE8IFFFtATZTiTGO/YI+3sGiQx54fjB1Peeu56PYdGo59h4bjwe+9eW6FYd/ajuhf0+lnzbvc/dShaPTPfLKrx4MiyLTNN1bi0eeUW1BI7sfe08DgaDw6OHju52D34nL0rvRCG/nWv6bTtR3OFlv/u2ILuHINn9zqXelGlPo6MDQan/7GwVwc1Extnb/CcFscjJ4V7dG/tiP613Q0/UP8J18+7u8EF9iy3tQWZFnPivboqrQ6IxQgIvYdHo59h3/8Qlv/2s7oW9MRfc7zJkd6VsxVbtHsFFtATTV8rKFnxdxGf0mayEPffzM2/Mk/e4hPRIwfZL3jqUOx4U/+OXq++K/x0PffjANN+pBwx1OHUkcgQ86eXQdkW/9aD20B3m1weCwefW4wNn/t1eh68KXY/pdebCQf3H/T5BRbQM0lKLdMblF7Q8Nj0ffnBzzA55L2HR5u2qLrc995w5v/XKB/rbWdkAfbP3hV6ggAmXa26Or78wPR/Sf/HA99/80YspaejKqUWzwTo1kptoC6KDVy4Xf34jkN+1o0j2cPD8ftX3vFw3umbN/hk7HjqZOx46nXo3vxnNiyvhpbbqwW8mH/0PBYPPi9o+FwB863+UYrCSEPVlZao3txOfYdPpk6CpNybWWmfO/Uw8DQSOx46vXY8dTrsWV9NbZ/cEFsWFxOHQsu0L+2I3a/8nbqGNBIE8XW+xVbQM019Emu87aotceeH4zb/nxAscWMjRddr8fKB1+MLV97NR57frBQb3vu+JvXY3D4dOoYZEhXpdUbo5Aj228yvQUwXY8+Nxg3f/Ffou/PB6wsJFN63YfTXBRbQF01tNzyMI1aeuz5wdj2jdc8uKdmnnj5WGz7xmux4U9eju1/+VruPwg/e3jYgcVcZMv6auoIwDQ4nwNg5na/ciL6/nxAyUVmbFhcjq5Ka+oY0AiKLaDuSo3ciLDRSgBq5LHnB2PbztdSx6CgBk+ejkefHYxHnx2Mrkrr+NrC9dVYmbMPIXc/9bqtN1xky43KLciTSrkl+td0xhM/PJY6Cu/mGstM+d5puN0HTkTfgYHoWdkeD39sWe7u6ymW3hXtXkKk6MaLrf9DsQXUV8Mmt6rl2W4gqQnFFo00MDQa9337SGz445fPrS3MgydfPh67D3g7lQv1rGx3LYYc2mziEqAmdh84ERv++OX47FOHCrWKnHzpcWQHxabYAhqmYeVW9xJTW1y5Zw8Px45vHkodgyb1xA+Pxbadr0XXAy/FZ586FAcyfNbbjm++njoCGWQlIeRT35qOqJZnp44BUBgPfu9obPjjl+PJl4+njkITcu4WBabYAhqqNKtBX8jFmys1NDwWm7/6SgwNn45Gfd/CZIaGT8dD3zsaD33vaPSsbI8t66txe4ZWvX3u20fiwNCovydcoFqe7eweyLH+tR3xmBVGkHuzJv6P9IaGT8eWr74SfWs746GPLYtKuaFHktPEVlZaY1WlNQYy/LIkzMCeiLj1LcUW0EANu3tbVbUGiSuz7Ruvufkjc3YfOBHbdr4Wqx546VyplNLQ8Fg89L03k2Ygm/rWdnhoAzm2/aYFqSMAFNKTPzwW3X/8cnzdFBcNZDUhBaPYApJo2FOuLmd8cAW+/vLxeNJB6mTY4PDp+Ny3j0T3xNlcz7yS5ryrHU+9HoPDp5N8bbLNSkLItw2Ly+6nAepkcPh0bP7qK/HZp6zApzF6lVsUh2ILSKZh5dbN1hIyQ0PDY7Ft52upY8CUPfnDY9H3ZwOx8Y9fji89P9iww6qfeeWElVVMqqvS6joMBWB6C6C+Hvre0ej9039t2P07zavHvTnFoNgCkirFmfp/EW+ZciUe/N7RGDxpEoX8GRgcjW3/7bWolg/F5g3V2H7TVbGyjj8P7/vWkWjEz3TyZ7OpLSiEvrUdseObr6eOAVwp92uZtu/Qyej+o5fjyU90xYbF5dRxKKiVldaots22dYM8Gy+2/k/FFpBOQya3upy3xQwNDY/FQ991fhD5Njh8Oh767tHo/qOXY/vO1+qysvBLzw3G7gNpViGSfVYSQjGsrLQ6owOgAQaHT0ffVwaSrRqnObimk2OKLSATGlJuuWAzU489N+hNJgrlsecGo+8rA9H/ZwPxpRqtEBwaHhuf2oJJ9Kxsr+vEINBYymqAxjhbcNXqnh3erXuJyUBySbEFZEapETsR5pcbdrQXBfPoc2+FvR0U0e4Db8fuA2/Hfd86HNs/tCA2r58flRn+rHzwe0djYGikxgkpCg/CoVj61nZGtfy6l38g13y+yZNtO38UERG3u6eixnpXtsfn/DwgXyaKrRsUW0AmNKR16l4ypxFfhoI5MDQa+w6dTB0D6mpgaDR2fPP16P6jH8bnvn0kDgyNTuvfPzA0Gg9992id0pF31fLs6FvbmToGUEOVckv0re1IHQOgqWzb+SMTXNRc92LPysgVxRaQOQ0pt6omt5iBJ394LHUEaJjB4dPxuW8dju4/+mFs3/mjKZdc933rsLf3uaS+tR0znggEsqtfaQ3QcNt2/sgZXNRUpdwSXdaHkw+KLSCTGvLEa4O3UZiBXQd8cKA5PfbcYHT/0Q9jy1dfuewH6GdeORGPeYOUy9iyYX7qCEAd3La208MwgAQ2/8Ur8exh20WoHZuOyAHFFpBZXucms6wkpNk9+cNj0feV/dH/Z/snLbnu+9bhBKnIi65Ka9y8oj11DKBO+taZ3gJotMHh07H5L16JoeGx1FEoCOUWGafYAjKt7uVWz0oP1piZgWmePQRFtfvAiXMl19ld/196bjB2m27kMjab2oJC237TgtQRAJrSwNBobP7qgdQxKIhez8zILsUWkHkmt8gkqx7gYrsPnIhtO38UG//oh7Hjm6+njkPGbVlfTR0BqKOVlVZvewMksvvAifjct4+kjkEBWDNMRim2gFwoxZn6fgEXamZi8ORY1Pt7E/JqYNBUI5fXs7I9Vrr+QuFtWV+NHa97ISgZ96rMxJnwvVMQn3vmcPSuaI+bTd5wBVZWWqPaNjsGh0+njgJnjRdb/5diC8i+uk9udVXa6v0lAIDzbLGSEJrC5vX+rgOktG3nj5y/xRXrXlJOHQHOUmwBuWItIQAUSLU8O/rWdqaOATRApdzi7ztAQgODo3Hftw6njkHOWTNMRii2gNype7k1f47+jOmz2gFgZvrWdUSl7NoLzaJ/nXILIKWHvns0njlwInUMcqxanp06Aii2gFyq+9Ov7sXeQGFmuqrOiwGYri3WlEFTuX191UMxgMR2fPP11BHIsV4v95KWYgvILa92k1k9bvAApqWr2mryFZpQ37qO1BEAmtq+QyfjS88Npo5BTnmxl4QUW0CuleLMmdQZYFK9K9rjsX2urwBTtXl9NXUEIIHtNy1wz5SEz1HMkM/ghXTfM4fidvdizMDKSqufC6QwXmz95xvdRAK5ZXKLzOpbV0kdASBXtmywkhCa0YYlc7z1DZDYwOBofOlZz4iZme4ljvSgoRRbQCHUvdyqOtSeGaqUW2KzB7UAU9Kzct74W59AU3LPBJDefd86nDoCOeX8TBpIsQUURt2bpw3ePuEKbP/QgtQRAHJhywZrcKCZmdwESM/0FjPVvaScOgLNQbEFFEppVuoEcBkblsyJ3pXzYveBt1NHAcisanm2Va7Q5FZWWt0zNZjPUcyU751ie+i7R+N2LxwwTfPnzPazgXrbExG3vqnYAgrEzkAy78HbrkkdASDT+tZ1RsUaYGh6m01wAiS379DJePbQydQxyBlnblFnii2gkDwJI/NWVlpjx82LU8cAyCxn7QARYYITICMe+u7R1BHIGWduUUeKLaCwSnEmdQR4b9s+tDCefPFY7PMGHMAFuqqtcfPK9tQxgAyolFti8/r58ZjzXhrD5yhmyvdO4T354rF44FdTpyBPupfM8bOBehgvtj6j2AKKyeQWuVApt1hPCDAJU1vA+frWdaaOAND0BodPx9dfOpY6BjlixTh1oNgCCs/Vk9zYsGSOggvgXTZ3K7eAH7ttXafVRgAZ8KRyi2nqqramjkBxKLaApqDcIldu3zDflALAhJ6uebGy4kMwcKHN3dXUEQCannKL6eqqtqWOQDEotoCmodwidx647RoFF0BEbN7gATZwMfdJAOkNDp+OZw6cSB0DaC6KLaCpKLfIpQduu2b8wFWAJlUtz46+dZXUMYAM2rBkjvskgAzYPfB26gjkSPeScuoI5JtiC2g6yi1y64nbV3twAzStvnWdDp4GLsl5fADp7Ta5xTQ4M5MroNgCmlIp4kzqDDAjlXJLPHH7qtjyXw94Iw5oOs7UAS6nb11nfPavXksdA7jImfAZvHnsHjieOgK54+cD0zZRbK1XbAFNxyvf5FqlPDse/+RqZ0sATaWr2ho3r5yXOgaQYSsrrdG3rjN1DICm98wBL2IyNT1d7akjkD+KLaCp1b3cevbQyXp/CYgHblse235yYeoYAA2xecNVqSMAOeBcPoD09nkmAtSHYgtoeqV6TzwPDp+u7xeACb//0aXRvWRObH/y1dRRAOrKWTrAVNy+YX589v876H4cssbWsaay73XlFtPg5wNTM15s3a3YApqbtYQUyu0b5seu31rjIFagsHq65sXKSmvqGEBO9F1vNSFASsotpqqr2pY6Avmg2AKYoNyicDYsmRN7t62Lni7n0QDFY2oLmA4/MwDSspaQqfICG1Og2AI4j3KLQqqUZ8fjt6+OHT1LUkcBqJlqeXb0rTOFwcXuf+awA+uZ1M0r50VX1cMygJQODI2mjgDkn2IL4F3qXm4NDLqJI527b14cT2xe7aEOUAh913dGxdpVJvHQ378Rj+3zOZfJ9a2rpI4A0NQGBkdSRwDyTbEFMAnlFoV388p5seu31ljLA+Sen2NM5pkDb8fg8Ol48sVjqaOQUdt+amHqCABNzblbTJUXc5mEYgvgEqwlpClUyrPjgduWx6O/1hVVUw9ADnVVW+Pmlc4S5GJnS63B4dPx9ZcUXFxsZaU1upfMSR0DoGkNDo+ljkBOdFXbUkcgWxRbAJdRijNn6voFBk+equt/P0zHbes6Y++2dfG53Yfiob9/I3UcgCnbvMHUFpN78sWhOHs/t3vgeNzmXDYmse0nF8b2J19JHaNY6vw5ioI6E753mpDnIkzZmTN+RnDWeLG1Y4NiC+AS6j65ZfyerKmUZ8fv/8KyeGLztd6KAnJjc/dVqSOQQc8eOnnBOR5WE3IpfdcrPQFS8VwEmCbFFsAUWEtI07q5a17s2XZ97OhZEtU5VhUC2dXTNS9W2r/PJB7b9+YF/zwwOBLPHvIAjYtVyrOj7/pK6hgAAFyeYgtgikqz6vwFDgyO1vkrwJW5u2dJbO6+Ku7ffeiih4QAWWBqi0v5+ovH4t33ck++OBQbnK/EJDZ3z4+vvziUOgY0vXp/Bid7/JkzVbPC90uT2xMRtx5VbAFMSd0nt85flQNZtbLaGl/oWx6Pb742errmpY4DcE51zmzrxJjUgcHRSe+zvv6S8oLJ3bauYlodIIEBL/0yRa7TTU2xBTBNDVlLODR8uhFfBq7YzV3z4mubr40H+lY4jwvIhL51laiUfcjlYk9eosTa9/pJk/Nc0ubu+akjADQdL/0yVabvm5ZiC2AGGlJuOTyVvLm9e37847br427ncQGJ3e5BNJfwpcus0r1U8QW3W3MKAJAlii2AGWpIuQV5dXfPktij5AIS6aq2xc1WpTKJA4Ojl315yLlKXMqGJXNMpwMAZINiC+AKNKTc2j3wdiO+DNRFpTxbyQUkYWqLS3mvyazdA29bC80lffqnFqaOAADQ7BRbAFfImVswRUouoNE2Wx/GJTwzhReHnnzxWAOSkEd96yqpIwAANLP/n717D4+6vvP+/9KJyYTDTCacIRMQOSeICmpNtNJ2V5O49dB2JbH3Vnf3RuxB3d+Ftfe9Hro92G3FvVuL3VXc3d6t3RKsPWjXJLutvbWaaCuowAwCyjEhCQKZzADJhHWu/P4IYRFJMjOZmc/38Hxc11yXJ5I3OJn5zvf1eb/fBFsAkAF56s/+N9nayc4tOMdgyPX5Syfon14/osdfP6JonAAXQGZdWTpWQf95psuABcX6Enp+x8hjBxt2xuj+w1kF/efpyuBYpisApuTgMzgAG+M1wukGgq3/TbAFAKOVk86t/dH/ysW3AXLqVCfXF+bpK1fRyQUgs+oupGsLZ5dsRxbBBYbDawwAAEDOEWwBQAblKNw6kYtvAxhxesj1gz8rYUk7gFHzez26bt5402XAohp2jty1JUnReEINI+zmgntdN288B3MAIEf4jAhABFsAkHF5uep3bt5/XJWlY3PyvQATfAUe1S0uUt3iIq3fGtHjrx/W1oOM5ASQuuvmjZevgJvO+LBYX0LP74wm/d837Iyphv1KOAtfwUCI/tMtEdOlAC7EzDG3KfXnmS4BtsJrhAOdDLYWE2wBQAblpHNLonsL7lK3OKCX/mqufv3Z2bpuHjcVAaSmbjHjwnB2qY4afD7JLi+4Uw3XKAAAANlGsAUAWZLDcIu9W3CfytKxeurTM7X5Cwv0+UsnMv4HwIhK/fl0OmNIyY4kHBSNJxR6jy5inF3NXB+jsgAAALKHYAsAsigvV93OzfuOSVdOzs03Aywm6D9PD/3JNH3lqsl6fmdM3/n9e3QzAjgrurYwnOd3xFKeVLN+S0QP/cm07BQE27tunk//9MfDpsuwJ6ZGIV08d1yHgwRIWr94jXCOgWDrbwm2ACBbcta5xe4hYHAvV0BvfXG+fv0/ZuuWC7mJDeCDeF3AUBp2xhSNJ1L+dc/vYDQhhnbHpRNNlwAAjhck3ALchmALAHIgZ+FWNJ5QK6MJgVMqS8fqsT8r0eYvLtBXrprCaT4AunLmWAX955kuAxaV6kjCQfujJxhNiCEF/edp8RSv6TIAAACcgmALAHIkZ+GWJG092JvLbwfYQtB/nr5y1WS99cX5+slnZuo6lrsDrlVH1xaG8cq+46P4tccyWAmchtceAMiuK2eyTxVwCYItAMihnIZbzfvTvykDuEHNPJ+e+sxMurkAF/J7PYTbGFLovfiodjWu3xLJYDVwGsahAgAAjBrBFgDkGJ1bgAWd3s3Fbi7AHa6b55OvwGO6DFjUaMOprQfjjIfGkHwFhOsAkE2VpXRuITmxvtT3q8ISCLYAwICchlujGacDuNXgbq69qxfpB58sYS8G4FCMBcNwnt+R3r6t072yn9GEGFrNfMItAMgGpnEgFRwKtyWCLQAwJE/9uf2GzfuPc2oJSIOvwKO6xQHVLQ6oNfpf+umWiNZvjoxqTBUAayj15/PeiCGFDsa1v3v0r/UNO2KqW0yIirOrWxzQ3/5nh6JxTowDWZfjz+Awq9R/nukSYCf94jXCXgaCrfsItgDAhJx2bkl0bwGZcGps4Zfm6/f/c65uuTAgv5dxZoBd1S0hcMDQnt85+q4taaD7i1E3GA6jCQEg8ypnjjNdAoDsINgCAMNyHm4172MkDpBJ5VO8euyTJdqzepF+8ucz2c8F2BA/txhOw45oxr5WJsYbwrnuuGyi6RIAwHEYKw84EsEWAFgAnVuAg9TM8+mxT5Zo7z0D+7muY38GYHlXzhyrIONqMITW6H9p68F4xr5eM9dhGEb5FC+7YQAgwxZPKTRdAoDMItgCAIvIebglSQ0ZGq8D4Ox8BR7VXRjQU5+ZSdAFWFwdXVsYxvMZ7NqSMjfiEM7FmFQAyBy/18MhJqQkk4eakBUEWwBgIUbCLU4NA7lD0AVYl9/r4ecRw1q/JZLRrxeNJzhkhGExJhUAMufKeVjMbgAAIABJREFUmWNNlwCbicbZj2phBFsAYDFGwi32PQBmEHQB1nLdPJ98BR7TZcCiYn2JrJze5ZARhhP0n8fNWADIkMpSXk8BhyDYAgALyjtH/Tn/pq3RPoUOxlXOYlXAmMGgq+7CgGJ9CTXsiOn5nVE1ED4DOcP4LwynYUdM2bhOa9gR1UN/Oi3jXxfOccuFATXvO2a6DMsz8TkKzsBzxz04SIhU8fpgSZslLT9y34UEWwBgMXmmvnHzvmOEW4BF+Ao8qr0woNrTgq5X9h1Tw84YYxGALCn153OaF8N6fmdm920N2h89wSEjDKtmvk/6tekqAMDeSv35CvrzTZcBGwmxb8uKCLYAwMKMjCWUMr9DAkBmDAZdj30yqN2ry/STP5+lugsD8nsZnQZkEl1bGM7gQYNsWb+lK2tfG/Y32N0NAEhfDV1bSFG0j4OlFkOwBQAWl2eq43lrZ69aoyc4yQRYXPU8n6rnDXwwa9wZ0/M7omred1z7u08YrgywN24cYzgNO2LK5jVa8172bmF41833a/1mDqMNi8lRSEe/eO64RN2FxaZLgN3w+mAlA8HW/QRbAGBlxsYSSgM3blZdNtFkCQBScHrQFToY1/rNXWrYGSPoAlJUOXMchzswrOd3ZGck4aCtBzlkhOFVz/PJ7/UwnhgA0lBalM/4X6QsdLDXdAkYQLAFADZhbCyhJE6DAjZWPsWrh66Zrje/tEAvrZynOy6bqNIibpICybiFkYQYQfO+7HdWZXPsIZyBDlMASA+vn0gHB0osgWALAGzEaLg1eGoYgL0RdAHJ83s97GDAsBp3xnJyc+N5wi2MoG4JI7UAIB3sVkU6CLeMI9gCAJsxGm5J0uN/OGy6BAAZRNAFDK9mvk++Ao/pMmBh2R5JOKh53zHFWFyOYZRP8WrxlELTZQCArdTM9zH2F2nZejBuugQ3I9gCABsyHm417OTUMOBUBF3Ah7FcHCPJ5bhARhNiJHQfAEBqbqHrFbAbgi0AsCnj4db+7hNqJOACHI+gCxhYLl45c6zpMmBhzfuO53QkTa66xGBfjFEFgOSVFuWreh6vm0hP6GCv6RLciGALAGwsT/2mS5Ce3x7lAhBwkcGg66Frpit0MK71m7vUsCOm/d3s4IOzsVwcI2nYEVUur80atnPACMML+vNVM89Hlx+QSRb4DI7s+MpVU0yXABuL9jIuOscGgq0HCLYAwK6Md25J0vrNEXY+AC51qqPrzgV67nMXqG5JQH4v+4jgTIz3wkhMBAiNhBYYwXXz/aZLAADLKy3KVy3XekhTiH1buUawBQAOYIlwS5Ie/8Nh0yUAMKxy5lg9dn1Qu79cpp/cPIsgAI5SOXMcy8UxrNDBuJEOVkYTYiS1HDwBgBF95aN0bSF9uRxLDYItAHCKPKvMRFi/uUv3cjEI4KTq+T5Vz/fpW9dOV8P2qJ7fERsY1wXY1C1LikyXAItbv7lLJq7LBl5bgzn/vrCXmvm+k89RAKPTL6t8BkfmLJ5aSNcWRmVg3xavDTlwMthaQrAFAA5gmc6t/d0nVM8HZgBn8BV4VLukWE/dPEtv3bVQ37p2hhZPLTRdFpASv9ejmgWM9cLwmvcdM/J9o/EEC8wxIrqpAWBoD10z3XQJsDk6t3KCYAsAHMYy4ZYk/XRzxHQJACws6M/Xqssm6sWV8/TS7fN0x+WTGJMEW6iZ75evgOcqhtYaPaGtneYCpvVcg2EElTPHqbSI0aoAcKa6JcWqnDnOdBmwuVf2mjnk5CIEWwDgQJYKt5r3HTN2ahmAvZRPKdRD10zX7i+X6yc3z1INy+5hYXQ8YCQNO2KGvz9jXzEy3msB4IP8Xo++dS1dWxi9WB+dW1lEsAUADmWpcEuSvvPSQdMlALCZ6vl+PXXzLO25t1zfunYGJ8thKaVF+ZzmxYhM7zLa332C0YQY0R2XTzRdAgBYyg+uD9Kdj4ww2cHvcARbAOBglgu36N4CkC5fgUerLpuoN+9cqJdun6e6JcWMLYRxdUuKTZcAizM9knBQ877jpkuAxQX9+ey9BICT6pYUq5qOVmQAB4yyhmALABzOcuGWxN4HAKNXPqVQj10f1Ft3LdQPrg9yMw7GMJIQIzE9knCQ6e4x2MMdl9G9BQCLpxYyjhAZE40zkjALCLYAwAXy1G+6hA9b/1aX7rh8osqncDMawOj4CjyqXVKs2iXFCh3s1eOvHVbDjigfIJATlbPGKehnTCaG98reY7LC9djWjl61Rk/wnMWwahb4pWdbTZdhDRb4uYVN8dyxNb/Xo8cYR4gMat57nNeFzBoIth4k2AIAp7Nk55Yk/e1/tJsuAYDDlE8p1GM3BPXW3Qv1gxvo5kL23ULXFkYQ60uoYXvUdBmnNGy3RhcZrMtX4BkIuADApb517XQO4iKjtjKWMJMItgDARSwbbjXvZfcWgOwY7OZ68fZ5eu7WC9iJhKzwe7kBjJFZKdiSpFe49kISCO4BuNW3rp2hWj47IMNau0+YLsEpCLYAwGXyzjFdwTAefumgnv3cONNlAHCwypnjVDlznL5VNV2Pv3ZY9Zu7tJ8PF8iA6+b7GVeDETXsiMlK12KN26OK9SV47mJY1fP9KvJ6GPELpOGckw/YT92SYq26nL2DyLxQZy+vC6O3WdLywwRbAOAqlu3ckga6txp3WOtEMwBn8hV4dO/VU/TGXQv12A1BVc4iWMfo1F1EZwNGZrXOLcmaNcF66HoG4CZ1S4q19oag6TLgQC10zWcCwRYAuJSlwy1Juo/dWwByrHZJsZ793AWMLETaSovyVTGTgBTDs+oBnua9x02XABsgwAfgFgRbyCamhowawRYAuFie1G+6hmHt7+7Twy916t6rp5ouBYDLVMwcp4qZ43Tv8il64rVDWr+5ixFMSEot+2iQhIEOKetdhzXs6NZacRMPwyubUqjSovNcflPOej+/sAueO3ZBsIVsC3X2iteEtJ0Mti4i2AIAl7J855YkPfGHQ4r1cUMZgBlBf76+ee0MvXn3It179VSVFuWbLgkWV3cRHX8YWYNFO7ei8YRlu8pgLasun2S6BADImnuvnqq1N5SaLgMO9wpjCdNFsAUAsEe4FY0ndF/TAdNlAHC5gb1cU/XGXYv02A2lhFw4q8pZ4xT089zA8Bp3RC3dCcreLSSjZoHfdAkAkBWP3VDK9BjkxEDnFlJEsAUAkGSTcEuS1m/uYtEmAMuoXVJ8KuQqn1pouhxYCHvakAyrh0fNXHMhCUF/vipnsV8QgHP4vR69tGq+armeQw5wjystBFsAgFPy7DTa90u/2q837l5kugwAOKV2SbFqlxSrZd8xfefFTjXv5QOKm/m9HjoZkJTmvccsvV5hf+SEwgd7VTaF8B7Dq1tSrOY9vPcBKbHw67+bVc4ap6dqz5evwGO6FLjE1s5eXg9SMxBsfZVgCwAwwDadW5K0v/uEHn6p03QZAPAhFTPH6dlb5+i52+Zwit3Fahb4uSGCEYUP9mp/9wnTZYxo/VtdpkuADdQs8Mvv5XUPgL3du3yqnr11DtdxyCkORqaEYAsA8CG2Crck6eEXOxU+yExiANZEyOVudRcxwgYjs0to9Ao3XJAEXwEdqwDsq3xqoV66Yz77tWAE4VbSCLYAAGdlu3BLkr74q/2mSwCAYRFyuU9pUb4qZvL/GiOz+r6tQaHOXrVGrd9hBvMItwDYjd/r0b3Lp+rFVfMZwQsjwgd7FY0nTJdhBwRbAIAh2TLcCnX2Mp4QgC2cHnKVFuWbLgdZVEvXFpJgl5GEg+wSxMGs6vl+3uMA2EbNAr9epFsLhtEhnxSCLQDAsGwZbkkD4wlb9nExAMAeKmaO0xt3L9JjN5ZyA9ChGEmIZNjtRoZdRijCPLq3AFhd5axxeu62OfrxivMV9HM9DrMYSTgigi0AwIjy1G+6hPR96Zf79eId8+VjiTUAm6hdUqzaJcV64rVDevjFTkZROETlrHHcJEFS1r/ZJTtde4U6ehWLJ7jWwohWXT5Jj796yHQZuWWjn2VYSL947uRYaVG+HqqaoWpCeFhI855jvBYMbSDY+juCLQDA8GzbuSVJ+7tP6Evs3wJgQ6s+Mklv/s0i3bt8qvzcNLY9uraQjNbuEwp19pouI2WMJkQygkX5Kp/K3hoA1jHYqfXG3ywi2IKlhDvZtzUMgi0AQNJsHW5JAzdcnnjNZadEATiCb3CR9R3zCUdszO/1MI4LSbFrSGTXupF7vJcBsIK6i4r13G1z9Oxtc1Qxa5zpcoAPsduY6hwi2AIApMT24ZYk3dd0QGEbnoQGAGngtPvaG0v13G1zVMkHcNupWeBnZBuSYtf9VYRbSBbhFgBTBkcP7v5fi7X2xlJCLVga11ZnRbAFAEhZnlOG/P5F/W69eMcCbjACsK2KWeP07G1zVP9Wl+5ramNUhU1wMxfJiMUTCnX2mC4jbY3bo4x0woh8Xo9qFvi4aQeMyBmfwU0b7J6/4yOTVcZYVNhELJ5Q896jpsuwmpPB1sUEWwCAlDiic0sa2L/1F/W7TZcBAKNWe1Gx3vybMt3xkcmmS8EISovyORmMpNj9Zn/Ddu41IDl1F00wXQIABystylfdRcV6qna2dv2vC7X2xpkEW7CVZkYSnolgCwCQtjzTBWRS895jur/pgL5ZNcN0KQAwKj6vR9+smqG6i4r1t01tfAiyqFpu4iJJdg+HGrZHtdZ0EbCF6gV++b0euo8BZEzlrHGqnDVe1y3wE2TB9ux+TZhhBFsAgFFxVLglSY+/9p7KpxaqljFRABygbGqhnr1tLqMKLYqRhEhGLJ6wfedWNJ5Qy95jdCoiKTUL/LbdMQfAvMEwa/HUQlXOGsfqATiK3a8JM4hgCwAwao4LtyTpvqY2LZ5ayKkuAI5Re1Gxahb49aVf7eMDkUVUzhqnYFG+6TJgA075mW3YHiXcQlLu+Mhkwi0ASamcNU6lRfkqnzpGi6cW8j4DRwt39nJYcQDBFgAgIxwZbkXjCV3/f9/Ri3cs4MYjAMfweT36ce1stew9pi/9ap/2d58wXZKrsVcGyXLK0vCG7d2MfkZSyqYWqrQon/cpAJIkv9ej8pOvC8GiAi0++dccRoXbcPBDEsEWACCD8tRvuoTsiPYm9Bfrd+u5v5zLGAMAjlIxa5xevGOBHn6xU4+/+p7pclzJ7/WoZoHfdBmwiYa3o3LC9db+yAmFO3u5GYmk1F40QQ//vw7TZQDW5ID3hEGVp3VaLZ42Rj6vR36vR4unFsrv9fCeAZym4e1uR/38p2Eg2PoawRYAIDMc2bk1KNTZq+t/+A4BFwDH8Xk9+mbVjIFRhb+kiyvXahb6eV9BUhq3Rx01fuaVvce4UYmk1F1UTLgFnEWwKF/3fmya6TLOqrQoX6UjTD5hbCCQnnBnr9s/sxFsAQAyztHhljQQcN3X1Ka1N840XQoAZFzFrHF68fN0ceUaIwmRrIbtzvr8vv7NI1r1kUmmy4ANBIvyVTlrnJr3HjNdCmApwaJ83bt8qukyAOSYy0cSEmwBALLiXNMF5ML6N7t056/2mS4DALJisIvrqbrZ8tNNlHWlRfmcWkbSGt6Omi4ho0KdvWp196ljpKDuYg4CAAAgnRxJ6E4EWwCArDn3HElueNQTcAFwuOoFfr35/5XpugV+46+5Tn5wsxbJatl7TLF4wvhzNtOPxu3OCuyQPTUueD8CAGAk4ZOHg0y/Zxl4bD6HYAsAkEWu6NwaRMAFwOl8Xo9+VDdbD1WXmC7FsWovKjZdAmyiwaEhUPOeo6ZLgE34vB7VXsxrJgDA3R5/zZXj4zdLWn6IYAsAkEWuCrekgYBrzYudpssAgKy6/SOT9OLnF6h8aqHpUhylctY4BUdYtA4Mcur4mYbtUcXiCdNlwCZqFhSZLgEAAKMaHTamOgkEWwCAnMhTf7/pGnLu4d+1K1h0nmovYrQUAOcqm1qoZ/9yru5rbFP9m0dMl+MIdCAgWeHOXrVG+kyXkTUN27u5jkJSqhf4FfSf58xdbS78HAUASE39W0cU7X3fdBm5NBBsff0Sgi0AQNa5rnNr0J2/2Kc7f8mIQgDO5vN6tPammVr7qZmmS7E9v9dDBwKStt7hgXLznmOmS4CN1CzktRMA4E4u69oi2AIA5JRrwy1Jqn/zCAEXAFeovWiCXvzCQkbqjUL1wiL5vB7TZcAmnL6XqtGhIxeRHXUX0+UHAHCf1u4Tjh1TfRYEWwCAnHN1uCURcAFwj7KphXrxCwtVef5406XYEjdnkazW7hMKdfaaLiOrovGEGre76iQyRqFsaiE7IAEAruOi0fAEWwAAI1wfbkkEXADcw+f16Fd/OVe1BDUpCRblq2LWONNlwCbc0tXkopPIyAAOCAAA3MbpY6pPItgCABhDuHVS/ZtHdOv63YrFE6ZLAYCsYw9Xargpi1S45EaG40cvIrOq2bsFAHCRxu1RtXafMF1GthFsAQCMItw6TcPb3brhX3cScAFwhcE9XH72SI2ITjckyw0jCQe1dp9Q2CW/V4xesChfNQRcAACXeOLV90yXkG0EWwAA4wi3zhDq7NUN/7qTmzUAXKFsaqGe/at57EIZRuX54xUsyjddBmyiea+7upnc0qWGzKhe6DddAgAAWdfafcLpHe4EWwAASyDcOgsCLgBuQsA1vNqLi02XABtpfDtquoScYu8WUlF70QS6hQEAjvfw/+swXUI2EWwBACyDcGsI0XhCy//xbdW/xYlkAM7n83r07F/NY/zeGfxej2oWMEYLyYnFE64Le1q7T7hhnwQyiN1bAAAni8UTanTu9SDBFgDAUs5Vv8Rj6MedP9+n+xvbRvFHDAD24PN6tPammaq9aILx116rPKoXFMlHlwGS1PB2t/HnrImHg2/gIAvqLnbQewwAAGd44tX3FO1NmH+Pyvxjs/oJtgAA1kLnVhKeaHlPt/50t2LxhOlSACDr1n5qJh1cJ9Vdwp8Dkue2kYSD2LuFVFTMGsceQwCAYz3R8p7pErJhoGPrGwRbAABrIdxKUsPb3ezhAuAaaz81Uw/VlJguw6hgUb4qZo0zXQZsxG0jCQeFOno5AISUcHAAAOBE9W8eUdR510QEWwAAyyLcSkGoo1c3/MtO157MBuAut18xWWs/NdN0GcZw8xWpcPu1gVuDPaSH7mAAgBM9/LsO0yVkGsEWAMDSCLdSFI0n9Lmf7mIPFwBXqL14gmsDLm6+IhVuD3fcHu4hNcGifJVPKzRdBgAAGVP/5hG1dp8wXUYmEWwBACyPcCtNT7S8pxv/9R3G8ABwPDcGXJXnj2cnDFLS6PJwq+Htbq6JkJJVV0w2XQIAABnjsK4tgi0AgC0Qbo1C856juuQfQmrZe8x0KQCQVW4LuGovLjZdAmyk8e2oE/crpKx5D9dDSF7NwiLTJQAAkBEO69oi2AIA2Ma5Ur94pP+Ixt/XDf+yQ/c3tqbxxw8A9vHfAZf5195sPvzec7npipQ0743J9PPWCo+GtyOj/rOEe/i8HtUs9Mv083Z0DwAApId/1y7z70kZeWyW+gm2AAC2QedWhjzR8p4+9o9vO+m0DgB8SO3FExy/i6p6YZF8Xo/pMmAjDdv4/C8xmhGpc/r7CQDA+RzUtXWyY2spF3QAANsg3MqgUEePPvaDbap/84jpUgAga9Z+apajb0jWXeLc3xsyL9zZ65QbGqMWjSfUsveo6TJgI9ULi+TnMAEAwKZi8cTJri3bI9gCANjSuea7np31iPYmdOfP9+rWf9vFYnUAjnUq4LLA624mH8GifFXMGp/hPy042fo3Dht/3lrpQRcbUmX79xIAgGs90fKeWiMnzL8Xje6xWf0EWwAAe6JzK0sa3u7WJY9sZUQPAMd6qCao8mljTJeRUXUXTzRdAmymgff5D+DPA6mqu4TXXQCA/cTiCT3RctB0GaM10LH1TYItAIA9EW5lUTSe0Of+bRddXAAcyef16Nm/nueogKuWkYRIQbizd+C0Lk5pjZxQuLPXdBmwkbKphQoG8k2XAQBASh7+Xbui9r7PQ7AFALC9c8+RxCO7j8a3u7X0ka1q4jQzAIfxeT167NOzVOT1GH+tHe3jyvPHK1jEDVYkr3nPUePPWys+GE2IVN1RMcX48zadBwDAndq6T2hdy3vG34dG8dh8DsEWAMAB6NzKEbq4ADhV2dRC/eizF5guY9To2kKq6t84YroES2IkM1JVs7DIdAkAACTtzp/vNV3CaGyWtPw9gi0AgAMQbuXYYBfXhje5IQbAOSrOH6+1n55luoy0+b0eVXNzFSlo6z6hUEeP6TIsKdTRo7ZuxjUieSVF+bwGAwBsoentbjXvOWq6jHQRbAEAHIVwy4BoPKE7f75XN/3LTm7+AHCMFRdPsG33U/WiIvm8HtNlwEYa6E4aFn8+SFXNIsItAIC1xeIJ3dfQarqMdBFsAQAch3DLoOY9R/Wxx7Zpze86TJcCABnx/U/NUvm0MabLSFntxfYM5WBOI3ulhtW827YnmmFI9cIi+TlkAACwsCda3lNrxJYHlAm2AACORLhlWDSe0JrftWvpP2xVi31b2wHglB9/9gJb3aAMBvJVcf5402XARmLxhJ3H0eRE49vd7BhFSnxej6rp3gIAWFS4s1drftduuox0EGwBAByLcMsiWiMndOO/7NSt/7aLUYUAbK2kKN9W+7dqL55ougTYTCMj95LCnxNSVcPeLQCARd3/vC3HERJsAQAcLU/9/aZrwGkat0XUsjum2yun6Msfn266HABIS9XCIq26YrKeaDloupQR1dl0TxjMadgWEddPI2vYFtEKRn4iBVULixQsyldrpM90KUnidQAA3GBdy0E1746ZLiNVA8HWQ8sItgAAjkXnlgVF4wmteaFdSx/ZqiZOPQOwqW9cF7T8/q3K88erpCjfdBmwkVg8wb6tJLWwdwtpoHsLAGAlbd0ntOYF240jJNgCALgC4ZaFtUb69LmfvKub/nmHwh09pssBgJSt/fQsS+/fqr2EkYRIDcFW8qLxBId0kLJVlVNMlwAAwCl3PrNHUXvtESXYAgC4BuGWDTTvOaqPPbZNd/18L/u4ANhK2bQx+vInrDli1e/1qHoRHQJITfMeupFS0UAYiBSVFOVbvusXAOAO61oO2u3aj2ALAOAqhFs2Uv/GYX1sbVhrfteumL1ODgFwsdsrpqjy/PGmy/iQ6kUB+SzcVQZratwWMV2CrdjshhAsopZdiAAAw2w4jpBgCwDgOoRbNnNqH9eaLVrXctB0OQCQlLWfOd9y4wm5eYpUNb3dbbexNMa1RvoYrYyUMTIWAGDa537yrp2u+wi2AACuRLhlU9F4Qvc/36qlj2zVhjeOmC4HAIZVUpRvqfGEwUCBKizYTQZrY8Reeuq5TkGKfIyNBQAYtOZ37QrZ53AOwRYAwLXOVb/Ew76P1q4+3fnMHi1dQ8gFwNpOjSe0wGtn7cV0bSF1jeGI8eeuHR+EgkhH3cUTjT93k3oAABylZc9Rrfltu/n3l+Qem9VPsAUAcC86txyiNTIQct30zzvUwn4LABb1zeuCpkuQJNUtZeQVUhPu6LHTaBpLaY30qa37hOkyYDNVi4osN84WAOBssXhCtz71rukykjXQsfUtgi0AgHsRbjlM8+6juvHJHYRcACypbNoY4+MJK2ePV0lRvtEaYD+M1hudhm0R0yXAhqoXBUyXAABwkVvts2eLYAsAABFuORYhFwCrWlU5RcFAgbHvX3sJXVtIHaP1Rqd+E+EgUreqcrLpEgAALrHmhXY177bFvROCLQAATiLccjhCLgBW4/N6dK+h7i2/16PqRUVGvjfsK9zRo9ZIn+kybC3U0cNoQqSsbNoYo4chAADu0LStW2teaDddRjIItgAAOA3hlksMhlxL12zVBkYrATBsxSUTVDl7fM6/b/WigHzscEGKGEmYGTY5DQ2Lqb1kgukSAAAO1tZ9Qnc+s8d0Gckg2AIA4AyEWy7TGunTnc/sIeQCYJyJ3Vu1S7lJitQRymQGe7eQjrqljJIFAGRHLJ7Q556yxZ4tgi0AAM6CcMulTg+51rzQrpj1L+YAOEzF+eNzOiIwGChQxfm57xaDvbV1n1Coo8d0GY7QuK2b6w2krKQo30inLwDA+e58Zo8drvMItgAAGALhlsu1Rvq05oV2LX14i9a80M4+DAA59dCflebsezHaCumg2yizWuiCQxpqL6F7CwCQWQ8836rGbZbPiwi2AAAYBuEWJEnReEJrXmjXJQ9v0V3P7FXY+qeXADhASVF+zm5aMtoK6ajfxAjfTGqw/k0kWFAuu3wBAM634Y0jeqL5oOkyRkKwBQDACPLU32+6BlhM/aZDqt90SJWzx2tV5VRVcUMBQBbd+yfTVb/pUFa/R+Xs8Sopys/q94DztHWfUKj9uOkyHKUx3CV9ZpbpMmAzPq9HtZdMUP2mw6ZLAQDYXMueo7rzZ7tNlzGSgWDr7y8l2AIAYBh0bmFIzbuP6nNPvaOlD2/RuuaD7MkAkBUlRfmqzXJXVba/PpypeXfMdAmOE40n1ET3FtJQsyhgugQAgM2FO3p064/fMV3GSAi2AABIEuEWRtQa6dP9/75fS7+zWXc9s4e9XAAy7t4/mZG1r+33elTNTVGkoSHMPYVsIDREOqoWFSkYKDBdBgDAptq6T+jGddsVtfahXYItAABScO45knjwSOYRiye0YdNhLf3OZt305HZOXgPImJKifNUtnZiV166asoB8Xk9Ofz+wv1g8oaZtEePvvU582GB5OyyqZlGR8efvmQ8AgPXF4gnd+uN3FIsnjL9vDPPYfA7BFgAAKaFzC2lp2X1Utz71jpY9vEWPvNDOyEIAo3Z75ZSsfN0VjCREGhq3RUyX4FitkT6FO3pMlwEbYsQsACBVsXhCN63brpC1rz02S1p+kGALAICUEG5hVFojfVrz2wOa+7U3dPcze9Sy56jpkgDYVNm0MaqYPT6jXzMYKFA21QLsAAAgAElEQVTF+Zn9mnCHRkYSZhXdW0hH2bQxKp82xnQZAACbINgCAMDZCLeQMfWbDuumddu17OEterL5IN1cAFK2qnJqRr8ep/yRrhb2QmVVY5jOOKSH13UAQDIItgAAcD7CLWRca6RP9//7/lPdXOzmApCsqkVFCgYKMvb1uAmKdDRt67b6snHbC3X0qK37hOkyYEPVZQHTJQAAbOCBf99PsAUAgMMRbiGr6jcd/sBuLm5kARjJqgzt3qqYPV4lRfkZ+VpwF/Zt5QbdW0hHSVG+qhcRcAEAhnb3M3tUv+mw6TKGQ7AFAEAGEG4hJwZ3cy39zmbd9OR2bXjD0heaAAxakaFuK7q2kC5Cl9xoIEREmqrLikyXAACwoFg8oZue3E6wBQCAS5yrfokHj1w+WnYd1V1P79G8r72hu3+2R2FrjwoAkGM+r0e1l0wc1euM3+vhZD/S0rStW9HehPH3Sjc8WnYdZT8n0rLikonyez3Gn8Pqz/7vFQCQnMEdWy27jpp/bxj6sVn9BFsAAGQKnVswJtqbUP2mw/r4o2Et+84WPfLbdrVFGFsIYPTdW9WLAvJ5PRmqBm7SvDtmugRXoUsO6eIAAwBg0GCwFWq39MHZgY6tbxNsAQCQKYRbsITTxxZ+4vthbdh0mNPcgItVzB6vYKAg7V+fqdGGcJ/GMPcbcqlxG3/eSA+v8wAAiWALAAA3I9yC5YTae3TXz/Zo7t+9odueelcbrD0vG0CWpLszKxgoUMXs8RmuBm4Q7uhRa6TPdBmu0kKnHNI02kMQAAD7C3f06OOPhgm2AABwKcItWFpjOKK7fvbf+7maOOENuEa64daqK6dkuBK4hcWXjztStDfBezvSlu77BADA/sIdPbpp3XarH0wi2AIAIIsIt2ALg/u5bv3xO6eCrnCHpU9nARilkkC+yqePSfnXsYcF6WIkoRns3UK6CLcAwJ02bDqsm9ZtV7TX0qsMCLYAAMiyPKnfdA1ASqK976t+0yHVbzqkYKBA1WUB1S6dqLJpqd8EB2BttUsn6P7240n/99VlAZUE8rNYEZyqLdKn1kjcdBmu1LitS4/qfNNlwIYGDkEUGhxHxecoAMi1J5s7df+v95suYyQng63LCLYAAMgiOrdga62RPq17pVMffzSkZd/ZrAf+fT8dXYCDpNqFRdcW0tW4je4hU6K9Cd67kbbbK6eaLgEAkCN3/2w3wRYAADiFcAuOQdAFOE9JoCDp0YT+Qo9WMKIKaWLflln8+SNd1WUcagAAp4vFE/rE90N2uF4g2AIAIIcIt+BIZwu6WnYfNV0WgDQk241F1xbS1RbpMzjWDBJ7t5A+n9dDwAUADhbu6NHHHw3Z4VqNYAsAgBzLY1Q8nK61q0/rXu7Uupc75S8cuAFSXRZQFTfCAVuoLgtozW8OjPjf3X4lo6mQnsZwhNU5hrV29akt0qeSQIHpUmBDtUsnqjFEQAoATrNh02E98Ot9ivYmTJcykoFg6zsEWwAA5FKe6QKAXIr2JlS/8bDqNx4+FXRVzPapuiwgn9djujwAZ1E2bYz8hZ5hP9QGAwUqm5bc+ELgTA1h7kNYQWM4opWE1EhD1aLAiO8TAAB7eeDX+7XulU7TZSSDYAsAAEMYSwjXGgy67np6t+Z+dZNu+/E72rDpsNoifaZLA3CGkUZOrbpySo4qgdPE4gm17I6ZLgNi7xZGZ8XSSaZLAABkQFukT594NESwBQAARkS4BZzUGI7orqd3a+m3N+sTj4b05CudBF2ARVTM9g3779m3gnSx68k6Qu09vO8ibbXLJpouAQAwSk3bInbZryURbAEAYBxjCYGzCLX36P72/br/1/sVDBSouiyg2mUTGXsGGFI5e/yQ/666LMCeHqSNcMtamncf1Yql/DwjdWXTxigYKFArASkA2E4sntCa3xywS7eWRLAFAIAl0LkFjKA10qd1r3Tq498Ladm3N+vun+1W0zZuhgK5VBIoUHCIAIuuLaQrFk8QblkM/z8wGoyoBQD7CXf06KYn3ibYAgAAKSPcAlLQGulT/cbDuvVH72je323S3T/brQ2bDisWZ4E5kG2VF3y4e8tf6NGKpYyiQnrYtWU9jeEI76lIG4cdAMBeHvntAX38e7YZQygRbAEAYCmEW0Caor0J1W88rLue3q25X92k2378DkEXkEVn27vFjUyMBl1C1kToiHSVnBwlDQCwtrZInz7xaEhrfnPAdCmpINgCAMBi2LkFZEhjOHLqRml1WUDVZQFVzh7PLiAgQ862d+v2K6caqAROQbhlTY3hiKoWEVAgPdVlAX62AcDCnnylU2t+e0DRXlsdCiXYAgDAggi3gCw4Pegqnz5GtUsnqrosQNAFjEJJoED+Qs+pD8LBQIHKpo0xXBXsqmlbxG43VVyjMRzRo39uugrYVXVZ4APvFQAAawh39Oiup3fbaQThIIItAAAsKk/9pksAnC10oEf3H9iv+5/bPxB0LSPoAtJVNm2sWnYNjCxbdeUUw9XAzhpDEXENZE3RnoSawhFVMV4OafB5PapeFFD9xsPZ/2a8hgDAiGLxhNa93Gm3EYSDBoKthwm2AACwInZuATkUau/R/c/t19K/36xPfC/Eji4gRaePJmSvCkaDsWXW1rz7qOkSYGMrlk0yXQIAQFLL7qP6+Hdtt1trEMEWAAAWx1hCwJBQe4/u2rBb0skdXeUDe7p8Xo/hygDrKp8+MIaQ7keMRrijh5FlFtcYiugbnyw1XQZsqmL2eAUDBWqN9JkuBQBcqS3Sp/uf22/nw0QEWwAA2EDeOczTAIxrCnepKdyluzVw2ri6LMA4JuAsyqeP0TnqV005Px9I34aNh8T1j7W1ReIKd/SwVw9pqykv0rqXO02XAQCu88hvDujJVzoU7U3oHNPFpGezpOWdD19OsAUAgMUxlhCwmA0bD+m2H+3U/K9u1N1P71a4w3YLd4GsKQkUyF/o0c1LJ5ouBTbWGLLtKWJX2bDxkOkSYGO3XznVdAkA4CpN4Ygu/fu39Mhv2uzcIU+wBQCAjTCWELCoaG9CGzYe0oaNhxQMFOj2q6Yyig2Q9I3rZ5kuATb3jetnasPGQ3YelQNgBCWBApVPH6NQO4eEACCbXt0d05rfHFDLrpjpUkaLYAsAAJs5Z8qXX2MuD2Aj1WUBrVg2ibGFADBKsXhCTeGIGkNdBF0WMbCDslhV7KBEBjz5SqceeG5f1r7+PX9aonv+dEbWvj4AWFlbpE9rfnPAKZ3WBFsAANgQ4RZgU/5Cj1Ysm6Tbr5xKNxcAjBJBlxn+Qo8qZvsItJAVsXhC8x7cmLWvT7gFwI0cFmpJBFsAANgW4RbgAHRzAUDmxOIJteyKqTEcUcuumFojfaZLcpRgoEDV5QFVzPbxvoWs+8sf7cxaYE24BcBNYvGEHvlNm9a93Gm6lEwi2AIAwMbYuQU4QGM4osZw5NRurhXLJnH6HQDS5PN6VFUWOBW8hDt61LIrNvDYHbPzknQjgoECVVzgU+UFPlXMHk+3MXJqxbJJdGMCwCjE4gmte7lTT77S4bRrIIItAABs7pwp99C5BTiNv9CjqrJiffmaGdxEBIAMC7f3nAq6Qgd66Ow6Q/n0MSqbPnYgzLqAMAvmzX9wY1ZuyN5zDZ1bAJyrLdKnNf/pqPGDpxsIttYQbAEAYGd0bgEOFO1NaMPGQ9qw8ZBWLJuk2ksn6orZPtNlAYAjlE0fo7LpY7TyqqmSBm7+hNp7FDoZeoXbjzvtZPOQBoOsYHGBKi8Yz3sNLKmqrNipN2cBIOMcHmpJBFsAADgGnVuAS1Rc4NOXr5nBjUcAyIFYPKFw+/FTnV2h9h61dvXZtsurfPoY+QrzVHGBT6WBAgWL83k/gW2E23v0ie9uzfjXpXMLgJO8ujumNf95QC27YqZLySaCLQAAHITOLcAlWnbFdNM/xQi5ACAHfF6PrpjtO+trbbi9R7H4+wod6FH0ZAgW7U0o1vu+Qu09Oa/VX+hR2fSxkv47xBoMsIKBAsYKwvbKpo9RMFBg23AZALLp6Y2Hte7lDiPXIDlGsAUAgMMQbgEuQ8gFAGaVTR8jSSO+/r66+4Mnp5t3HU37e/q9HpXPGHPq733evFN1AG5w+1VT9cBz+0yXAQCW0BbpU/3Gw3ry5Q63jFIm2AIAwIEItwCXGgy5qssD+sb1MzmZDwAWc2b4xWEEIH3V5QHCLQCu1xSOaMPGQ2oMRUyXkksEWwAAOBThFuByjaGIGkMR3X7VVN1zTYl8Xo/pkgAAADKqJFCgigt8Tt8lAwAfMtilteH1Q24cz0qwBQCAgxFuAZAkrXu5Uxs2HtI3rp+lm5dNNF0OAABARtUum0S4BcA1nt54WI3hLrd1aZ2OYAsAAIcj3AJwSrQ3obs27FL9xkP6/orZjCoEAACOUVUekDaYrgIAsufV3THVv35YTeEut+zSGgrBFgAALkC4BeBDWnbFtOxbb+mea0p0z5/OMF0OAADAqPm8Hq1YNkkbNh4yXQoAZEy4vefUHi0Xjh08G4ItAABcIk/9/aZrAGBRj/xHq5q2dun//uU8urgAAIDtVZcHtOH19zLzxfgcBcCQcHuPNrx+SI3hLrV2EWidZiDYeuQjBFsAALgAnVsAhhVqP65P/J+t+sYNM3XzskmmywEAAEhbVVlAweICbgYDsJ1Xd8XUGIoQaA2NYAsAAJch3AIwomjv+7qrfpdCB3r09Rtmmi4HAAAgbdVlxVr3cofpMgBgWLF4Qk2hLjXviqkpFFG0933TJVkZwRYAAC5EuAUgaete7lDLrph+8YVF8nk9pssBAABI2YpLJxFuAbCkcHuPWnbF1BjqUsuumOly7IJgCwAAlyLcApCSUPtxfeoft+nR2gtUNn2M6XIAAABSUjZ9jMqnj1Wo/bjpUgC4XFukTy27YnRnpY9gCwAAFyPcApCyUPtxfeqftukXn19EwAUAAGxnxaWTFHqWcAtAbp0eZrXsirE7a3QItgAAcDnCLQBpifa+T8AFAABsacWlk/TAs3tNlwHA4QbHDLbsiinUfpwwK3MItgAAAOEWgPQRcAEAADvyeT2qLi9WY6jLdCkAHKIt0qdQe49a3h0IstiZlTUEWwAAQBLhFoBRiva+r7vrd+kXX1gkn9djuhwAAICkVJcHCLcApCXc3qNw+3Ht7xoYMxhu72FfVm4QbAEAgFMItwCMWqj9uG774Q794vOLTJcCAACQlJuXTdIDz+7jhjSAIbVF+tTa1afmXTG1RvoUPtCjUDv7+gwh2AIAAB+Qp37TJQBwgpZ3Y3rw2X36+g0zTZcCAACQlKqygDa8fsh0GQAMisUTCh8Y2Ie1/2SA1RrpU+gAIZaFDARb/0CwBQAA/hudWwAyZt3vO1RdHtAVF/hMlwIAADCi2ksnEW4BDjcYXkV7E6e6rlreHdiHxV4sWyDYAgAAZ0W4BSCj7qrfpRdWX8j+LQAAYHlXXOBTsLhArV19pksBkKJXTwummk/+daw3carjij1YjkCwBQAAhpR3jukKADhKW1efnvx9h1ZfU2K6FAAAgBHVXjpJj/xHW8q/js9RQHJeTaI7KtTeo9gZQVRrV98HgufWSF/KQTQ/p7a2WdLyDoItAAAwBDq3AGTcut93auVHp9G9BQAALG9FmuEWkI5Xd8X0qX/cZroMwOoItgAAwIjONV0AAOeJ9b6vJ3/fYboMAACAEZUEClQ2Y6zpMgAAAwi2AABAUvKkftM1AHCgdb/voHsLAADYwu1XTdXd9e+aLgOuwWdwYAgng60rCLYAAMCI6NwCkBWx3vfVtLXLdBkAAAAjqlpcbLoEAHA7gi0AAJASwi0AWdMYItwCAADW5/N6tOLSSabLAAC3ItgCAAApI9wCkDVNoS7F4gnTZQAAAIyoqpzuLQAwgGALAACkJY9x3wCyKXzguK64wGe6DAAAgGFVlRfL581TrPf95H4Bn6OQLp47wKCBYOv/EGwBAIDU0bkFIKta3o2ZLgEAACApjCYEgJwh2AIAAKNCuAUgq0Ltx02XAAAAkJQVlxFuAUAOEGwBAIBRI9wCkFVJj/YBAAAwrGz6WAWLC0yXAQBORrAFAAAygnALQFaFDvSYLgEAACBpKz86zXQJAOBUBFsAACBjCLcAZBWdWwAAwE6qFxebLgEAnIhgCwAAZBThFgAAAACcVBIoUBUBFwBkEsEWAADIOMItAAAAADhNdTnhFgBkCMEWAADICsItAFnFUnYAAGA3VYuL5SvMM10GANgdwRYAAMgawi0AWUW4BQAA7Mbn9ai6PGC6DACwM4ItAACQVYRbKXq0bo7KZow1XQZgG5x6BgAAdrTissmmSwAAuyLYAgAAWUe4lYIVl07SzZdO0m9XX6iv3ziLm/ZAEsqnEwYDAAD7ueICHx3oAJA6gi0AAJAThFspuKcqeOqvV350ml5/4BKt/Og0gxUB1sdNIQAAYFdV5cWmSwAAOyHYAgAAOZOn/n7TNdjCissmqyTwwZv0Pq9HX79xllZcNkkP/nKvWt6NGqoOsK6yGWNMlwAAAJCW26+epidfah/i3/I5CmniMzicaSDY+m4FwRYAAMgJOreSdHrX1pnKpo/Vz79Yph/+9QK6VIDT+ArzVMZYQgAAYFMlgQL27QLAyAi2AABAzhFuJeFsXVtnU1VerD8+sFRfv+l89nEBkirm+EyXAAAAMCorLptsugQAsDKCLQAAYAThVhKG69o6m5UfnabXH1yqlVezjwvuVjHHb7oEAACAUSHcAoAhEWwBAABjCLdGkGzX1pkG9nGdr9cfXKqqxSyihjtV89wHAAA25/N6uJ4HgA8j2AIAAEYRbo0g1a6tM5UECvTDv1qgX3ypnC4WuErZjLFpBcMAAABWQ/cWAHwAwRYAADCOcGsY6XZtnc0VF/j08y+W6Yd/vUDBYm74w/m4CQQAAJyiqryYnboAMIBgCwAAWALh1jBG27V1NlXlxfrjA0v16C1zCLngaIRbAADASRi3DAAEWwAAwDoIt4aQya6ts7n50sn64wNLdU9VkFOgcJwVl02Wz+sxXQYAAEDGrLx6mukSAMAkgi0AAGAphFtDyEbX1tmsvjao1x8k5IKz5OrnBwAAIFfKpo9l8gIAtyLYAgAAlpOnftMlWE+2u7bO5PN6tPraoFZePV1PvtiudS91KNb7fs6+P5BJuf75AQAAyJWVH52uB3+5Z+Bv+ByFdPSL5w7sZiDY+h7BFgAAsBY6t87CVNeJz+vR6qqgXv8qnVywL7q2AACAU7F3C4DLEGwBAADLItw6w4rLJqvE8LgRQi7Y1cqrpxn/+QEAAMiWkuICVczxmy4DAHKBYAsAAFha3jmmK7AYK3WdDIZcK5cPjCt8knGFsDBfYZ7uqS41XQYAAEBWrbhskl59N2q6DNgYn8FhA5slLW8n2AIAABZG59ZprNC1dTaDIdcfv7pUq+nkgkU9essc+bwe02UAAABkVdWFE0yXAADZRLAFAABsgXDrNKst1LV1NqeHXN+7ZY6CFgzi4E5Vi4t1LTsoAACAC/i8Hq24bLLpMgAgGwi2AACAbRBunWTVrq2z8Xk9uvmyyfrDg4RcMC9YXKDvfXau6TIAAABypopDPQCch2ALAADYCvPtTrJ619ZQbr5ssm6+bLJefTemf2hqVQvz/5FDvsI8/fCvFzCOEAAAuMq1i4sVZRcuAOcg2AIAALZD55bs1bU1lCvm+PTMl8r0xweXMiYFOfPoLXO0aMZY02UAAADkHLu3ADgEwRYAALAlwi3Zt2vrbEqKC/TdW+Zo+7cv1+qqICMLkTXfu2UOe7YAAIBr0bkOwAEItgAAgG3lqb/fdA1Grbjc/l1bZ+PzerS6KqjVVUE9/cf39PQf3mNkITLme5+dq5vpEAQAAABS1C+3fwaHZQwEW49WEmwBAABbcv3OrdVVpaZLyLrBvVxtXX168qV2bfjDe4qxIwBpItgCAAAAAFsj2AIAALbn6rGETu3aGkpJcYG+dtP52v7ty/W9z85VxRy/6ZJgMwRbAAAAAGBrBFsAAMARXN255YauraGc2c3VtOWIWrv6TJcFi/IV5ukXd5Zr0YyxpksBAAAAAKSHYAsAADiGazu33Na1NZTBbq4/fHWZfvg/F2rF5XTl4IPKZozVb++9iGALAAAAAOyLYAsAADiKazu33Ny1NZRrFxfr2sXF+tpNs9W09YiatnSpaesR02XBoNXVpVpdFTRdBgAAAAAgfQRbAADAcVwZbq2uLqVraxi+Qs+psYWx3gRBlwuVzRirRz87l24tAAAAALA3gi0AAOBIrgu3fIV5Wnn1dNNl2AZBl7v4CvO0cvl0urUAAAAAwP4ItgAAgGO5LtxauXy6fIUe02XY0plB16vvRtW09Ygat3Qp1vu+6fIwSisun6yv3TSbnw8AAAAAsD+CLQAA4GiuCrfo2socX6Hn1I6u794ibTtwXI1bu9S05YjCB46bLg8pWHH5ZK2uYlQnAAAAADgEwRYAAHA8V4VbdG1lz6IZY7Voxlitrgp+oKur5Z2oWrv6TJeHMwSLC3Tz5VO08mp+JgAAAADAQQi2AACAK7gm3KJrK3dO7+qSpLauPrW8G9Wr70YVajtOZ5dBVYsnaMXlk0/9vwEAAAAAOAbBFgAAcA3XhFt0bZlTUlxwaleXJMV6EwofOKaWd2N69Z2oQgeOs7Mri6oWT1DVhcWqWjyBnwEAAAAAcCaCLQAA4Cp56jddQvbRtWUtvkKPrpjj1xVz/FJVUNJAd1f4wHGF2o7r1Xejaj0SZ5xhmspmjFXFXL8q5g78GRNoAQAAABbigs/gyLmBYOv7BFsAAMA9XNG5RdeW9ZUUF6ikuODkuLyBwGuwwyvcdlzRk3u8CL0+rGKu/1SgRZgFAAAAAK5CsAUAAFzJ8eGWrzBPK5fTtWVHH+jwkjQYeknStgPHFe19/1TwFT452tCp4ZevME/lJWMVLC5QSbFX5SVjVTZjrEqKC0yXBgAAAAAwg2ALAAC4luPDLbq2nGnRjLGSdFrw9UGDXV+S1NrVp9YjfSf/+fsKHzh+6r+L9nzw73MtWFyg4ATvqb8f/P34Cz0qKxn+9wgAAAAAcC2CLQAA4GqODrfo2nKvwa4vSboijV/f1tWn1q54RmsqmzGOoBUAAAAAMFoEWwAAwPUcHW7RtYV0De4AAwAAAADAQgi2AAAAJJ1ruoBsoWsLAAAAAAA4CMEWAADASXlSv+kasmLl8ml0bQEAAAAALMaZn8GRdSeDrSsJtgAAAOTQzi26tgAAAAAAgEMQbAEAAJzBkeHWwK4tR68TAwAAAAAAzkewBQAAcBaOC7fo2gIAAAAAAA5AsAUAADAEx4VbdG0BAAAAAACbI9gCAAAYhqPCLbq2AAAAAACAzRFsAQAAjMBR4RZdWwAAAAAAwMYItgAAAJKQd06/6RIyw1eYp9vp2gIAAAAAWJhTPoMjKzZLWn5gLcEWAADASBzTubXyY9M1nq4tAAAAAABgPwRbAAAAKXBEuMWuLQAAAAAAYFMEWwAAAClyRLhF1xYAAAAAALAhgi0AAIA02D7comsLAAAAAADYEMEWAABAmmwfbtG1BQAAAAAAbIZgCwAAYBRsHW7RtQUAAAAAAGyGYAsAAGCUbB1u0bUFAAAAAABshGALAAAgA2wbbtG1BQAAAAAAbIRgCwAAIENsG27RtQUAAAAAAGyCYAsAACCD8tRvuoTU0bUFAAAAALCd/pMPuM1AsPUYwRYAAECm2LJzi64tAAAAAABgAwRbAAAAWWC7cMtXmKeVH6NrCwAAAAAAWBrBFgAAQJbk2W0mAl1bAAAAAAD7stdncKTtZLB1FcEWAABAFtiqc4uuLQAAAAAAYHEEWwAAAFlmq3Br5cdm0LUFAAAAAACsimALAAAgB2wTbgUneOnaAgAAAAAAVkWwBQAAkCO2CbdW15TStQUAAAAAAKyIYAsAACCHbBFuBSd49eeXTzFdBgAASNE/v3hA13z7Df3ziwfU1tVnuhwgLTx3AQAjINgCAADIMVu0Qq2uKTVdAgAASMPTrx1UuO24vvrMbn31md0qKxmrmz8yRRVzi7RoxljT5QFD2nbguJo2H1HTlsMKtx3Xb/73JTxnAQBnQ7AFAABggOXDLbq2AACwp7auPoXbjn/gnw0GXdLAe3zVhRN07YUTdMVcv4kSgQ/4jy1H9Oo7UTVtOaLWI/EP/LunXzuov/v0bEOVAQAsimALAADAEMuHW3RtAQBgT01bDg/77///9u4nNs77PPD442KAUIqtECYBCwiJ7GFNo/EC5i0aHXbzZ2Fpuzn0IPEaoHHvtXKLCziH9FjuqY13be/GOZJHawEySBz0EFIqYIQjZASLdgG5M0IpLEelSEqk0Sm4h+FQFEVS/DPvvP8+H8CQAcqcHwzOcPh++Txvo7UZ7//uXrz/u3tx7kwlLr76jbj8xlBUXx2MkZe/1qdTUmbNB1/F/OcrMVNrxdznD2N1o33g35251RK3ANhN2AIASFGm45apLQDIr6kb94/8d1c32jFzqxUzt1oREfH6yNfj4quDprroqbWNdsx9/vDA6azDNFqbcfveI6sJAYgQtgAAUleJrbSPcLCf/DdTWwCQR80HX0W98ej5f/EA9cajqDcexfuf3IuIiOqr34iLY4NRffUbYhfHMr8ds+YWV2L+84en+lxT8/fjZ1dMbwGnlOGfwTmSTtj6O2ELACBNmZ3cGh0aiKsXTG0BQB7N1A5fSXhc3UDRJXaxn53JrMWH8cfm+qlj1l4zt1riFkC5CVsAABmR2bjlXlsAkF/HWUl4EntjV3eN4esjX4/qmHt2lcXte4+i3liPuc8fRr25HvXmyacFj6LR2ozmg698fQGUk7AFAJAhmYxbprYAIL+aD75KPDLsVW8+euoxz52pdILXWCd4vT7yoiCRc92QVW8+SmQq66hmasvx1ve+mcpjA5AaYQsAIJbR4qIAABdySURBVGMyGbdMbQFAfvV6JeFJrG60n5nu2h28Rl/+WowMDVhpmFHz25NYzdZXqYas/UzduC9uAZSLsAUAkEGZi1umtgAg35JeSXhS+wWviM5Kw3NnKqJXn61ttOOPzUdRb67H6sa/x9ziSjQffBWN1mbaRztUvfnIakKA8hC2AAAyKnNxy9QWAOTX2ka77ysJT6t73r3RqzvpNTo0EKNDAzsR7D+NfD1eOpO5t1CZ1I1VzdZmNB58FfXmejx83M7UJNZJWE0IUArCFgBAhmXqyoypLQDIt5laK+0j9MxBk15d3djVjV8RsTPxNTo0UPjJntv3HsXDx+2IeBIGu/EqDxNYp2E1IUDhCVsAABmXqbhlagsA8m3mVnHi1vMcNPG1VzeCRcRTIWzvx7r6uRKxuxpwt+6UVVc3WEVE4aPVUdWbj2Jto22CD6CYhC0AgBzIzE/kprYAIN/WNtqFmtzqld1rGk+7jq+7KvE48r4CMKtmai3vXQGKR9gCAMiJSsRW2meICFNbAJB3nbCVjfcVRbW68W8x/7nrbVkwc2tZ3AJOyPfKjNoOW//ZN1oAgBz4k7QPEGFqCwCKYObWctpHgL6ZqbVibaOd9jEA6A1hCwAgZzIRt37yZ99K+wgAwClYSUgZ+ZoHKARhCwAghyovpLwRwdQWAOTfTK0Vab+ngH6brVlNCBzPCxG+X2ZLLSK+2/x7YQsAIG9Sn9y69t9NbQFA3s3WrCSkfExuAeSasAUAkGOpxi1TWwCQf1YSUmazt3ztA+SQsAUAkHOpxi1TWwCQf8IWZTa7YGoRIGeELQCAAkgtbpnaAoBisJKQMhN3AXJF2AIAKIjU4papLQDIPysJKbvVjbbVhAD5IGwBABRIKnHL1BYAFIOwBVYTAuSAsAUAUDCpxC1TWwBQDFYSgsgLkHHCFgBAAfU9bpnaAoBisJIQOlY32nG7+SjtYwDwLGELAKCg+h63TG0BQDEIW/DE1I2ltI8AwNOELQCAAutr3DK1BQDFYSUhPDEr9gJkibAFAFBwfY1bprYAoBisJISnNVqbVhMCZIOwBQBQAn2LW6a2AKA45j5/mPYRIHOsJgRInbAFAFASfYtbprYAoDhmF6wkhL2sJgRIlbAFAFAildhK/kFMbQFAscwstKIf7yEgTxrLm9F8sBkjLw+kfRQgy3z/TEInbP1C2AIAKIu+TG5d+6GpLYB+aj7YTPsIFNhsrRWrG+20jwGZNLtgegugz4QtAIASSjxumdoC6K/pG/djftH9kEjObM1KQjjI1Pz9tI8AUCbCFgBASSUet/7Hj15L+iEA2HbtV3fi3al/istvDKV9FApsxmQKHKjeXDc9C9AfwhYAQIklHrfmFr3PBEja2kY73nqvHlPz9+Py+FC8dKaS9pEoKCsJ4fmsJgRInLAFAFByicetyetfRvWv/zGmb1jRApCE5oPNuDJ5K2ZqnYupE9XzKZ+IIrOSEJ7PakKARAlbAABEJWIr8QdptDbi7Y8+i6n5pfjJD78VF14dTPwxAcrgxucr8Re/qO9M0owODcSFV7+R8qkospmF5ejHewfIs3pzLdY22qZogX1she+jp7Idtv6LsAUAUHKJT27tNr+4Elcma/HWe3X3IgA4pQ8/uRdXJmtPrYi7amqLBM3Wlq0khCPqTtMC0DNfhrAFAMC2vsatrpnaclx452Zc+9UdkQvgmNY22nHtV3fi3ekvnvnYRPWVFE5EWcy6WA9HNrtghSdADz2MiD8XtgAA6EolbnVNzS/Fmz//NCb/75ex5jfBAZ7rdnM9rkzWYmp+6ZmPVccGY+TlgRRORVnMuFgPRzZTW/b+FqA3HkZnYmsh7YMAAJAdqcatiIjVjXZMXr8b33nnpsgFcIjpG/fjymQt6s31fT8+YSUhCbKSEI7PakKAUxO2AADYV+pxq2t35Jq+cT/t4wBkRncN4dsffXZgXDh3phKX3xjq88koEysJ4fisJgQ4FWELAIADZSZuda1utOPtjz6L6l+LXACHrSHc7fL4cLx0ptKnU1FGVhLC8c3UPG8ATkjYAgDgUJXYSvsI+2ssb8bbv/wsJj++G9d++B/iavWVtI8E0FcffnIv/vb63Vh9/PxVcBMXvEaSnNna8pG+DoFnzdaW49Ibw2kfA8iKre1/OEwnbL0nbAEAcLDMTW7t1Whtdia53rkZ0/MmuYDiW9tox1vv1ePdqS+OFBRGhwbiwthgH05GWc0uWEkIJ+X5A3AswhYAAEeS+bjVJXIBZTBbW47vvHPzWCvgrlbPJ3gisFoNTsPzB+DIhC0AAI4sN3Gra3fk+vCTe7G2YU0SkH9rG+249tGd+PEv6sde/zZx0UpCknNjccVKQjiF1cftmBW4AJ5H2AIA4FhyF7e6Gq3NeHfqi/jOOzdj8vqXIheQWzcWV+LNn38aU/NLx/5vq2ODMfLyQAKngo6ZmpVqcFpWEwIcStgCAODYchu3ulYft2Py+t2dyNV8sJn2kQCOpDutdWWyFo3WyV67JqwkJGGzx1iRCezPakKAAwlbAACcSO7jVlc3cl346c249tEdkQvItO69tU4yrdV17mwlLo8P9fBU8LTbzfUTh1fgidXH7bjdXE/7GABZI2wBAHBihYlbu03NL8WFn96Mt96rx43FlbSPA7Cj+WAz3nqvfqJ7a+11+Y3heOlMpUcng2dNzd9P+whQGJ5PAE8RtgAAOJVCxq2umYXluDJZi0t/82lMu6AApOzDT+7Fmz//NGZ6tOZtovpKTz4PHMRKQugdzyeAHcIWAACnVui41VVvrMfbH30W1e37cq1tnG5aAuA4biyuxKW/+TTenfri1NNaXaNDA3FhbLAnnwv2YyUh9FajtWk1IYCwBQBAj5QibnU1Wpsxef1u/Onbv49rH91xgQFI1NpGO659dCeuTNai3ujt683V6vmefj7Yywo16D3PK6DkhC0AAHqmVHFrt6n5pXjz55/G1cmalYVAz01e/zK+887NmJpfSuTzT1y0kpBkWaEGved5BZSYsAUAQE9V0j5A2uYXV2J+cSUmr9+Nq9XzMXHxlRh5eSDtYwE5NVtbjp9N/VOi69yqY4Nep0iUlYSQjEZrM5oPNr2GA2UjbAEA0HOlndzaq7uy8MJPb8Zb79VjtuY3a4Gju7G4Elcna/HjX9QTjwITVhKSMKvTIDmzC620jwDQT8IWAACJKP3k1n5mFpZjZmE5RocGTHMBh2o+2IzJj79MbP3gXufOVuLy+FBfHovysjoNkjM1vxQ//v430z4GQD8IWwAAJEbcOkR3mmvy+t24PD4cV6uvxKU3htM+FpAB/Y5aXZffGI6XznjpJjlWEkKy6o11qwmBMhC2AABIlCukR7R7muvS+HC89YNvuigBJbS20Y73f3svPvikGauP231//InqK31/TMrFSkJI3uxCy/QWUGTCFgAAiau8sLWV9hlypbm8ER/+phEf/qYRr4++GD/+wUhcHjdJAUW3ttGOD37bjA9++yRqvdDnM4wMDcSFscE+PyplM/uH/xfeG0Cypuf+RdyCEiv499mHEfHdxv/8rrAFAECiFJlTqDfW49ovP4trEXH14vm4PD4cb1pbCIWyX9RKy8TF86k+PsV3u7keTSsJIXH1xnqsbbT9chRQNMIWAAB94yfqHpmeW4rpuaU4d7YSE9XzcfXi+fj2yItpHws4oeb2PfdmF5ZTj1pdV6viFsmanuvvPeSgzGYWlr2uA0UibAEA0FfiVo+tPn4y5TEyNBCXx4eFLsiRbtTK2kX+6thgjAy5zx/JmllYTvsIUBqz4hZQHMIWAAB9J24lqNna3Aldr4++GFer5+PS+LAL1JBBNxZXYvLjuzG/uJL2UfZ11UpCEmYlIfTX7MKy1YRAEQhbAACkwk/TfVJvrEe98UX8bOoLoQsyYm2jHTMLyzH58d1MX9Q/d7YSl8fdz49kzZragr6zmhDIOWELAIDUiFsp2Bu6qmODVhdCHzVbm/Hhb5sxNb+UmftpHebS+LDf7Cdx4hb0n9WEQI4JWwAApMrV0pR1Qtf6U/foujQ+HBfGBtM+GhTOr2vL8cFvmpldPXiQCRc+SViztRn1xnrax4DSEZWBnBK2AABInbiVIbvv0XXubCUujQ/H5fHhqI4NmtqAE+pOac0sLGd69eBBRoYGxG4S5wI7pOfXteV48w2rZ4HcELYAAMgExSSjVh+3Y3puKabnliKis5asOjboPl1wBN17aU3PLeVuSmuviYumtkje9PxS2keA0ppZELeA3BC2AADIDHErJ2YXlmN2YTl+NvXFzvrC6muDLobALr+uLcfM9nMlD/fSOgr3YiFpVhJCumYXliN+lPYpAJ5L2AIAIFPErRzavb4wInYmuqqvDca3R15M+XTQX7ebnXvWFSlodVXHBk1qkjgrCSFdq4/bVhMCWSdsAQCQOeJWAcwvruysXuveq6s6NujCOIV1u7ke03NLub2P1lFdtZKQPrCSENJnNSGQYcIWAACZVImttI9AL60+asf075di+vedi5UjQwNRfW2w84/YRY79eqF4KwcPc+5sJS6Pu9BJspqtzaj/s5WEkLbZP1hNCKWSn5/BO2HrfwlbAABkj8mtgmu2NmN6bimm58Qu8mVto92JWX9YjvnFlVIErd0ujQ/HS2e8RJMsKwkhG1Yft+N2c916aSBLhC0AADLNldOS2Ru7zp2tdFYYvjYYr4++GBfGBlM+IWV2Y3El5u+sxOzCctQb5Z4mmbCSkD7ofi8A0jc9txTvTvzHtI8BECFsAQCQAy+M/OXv8rMUgb7ohq5vj75ouotE3W6ux/ydTtAq43TWYaqvCc0kb/7OStpHALadO1uJ10dNbkHRrT5uZ/2XuIQtAAByQdziuboXW6pjT6KX4MVJiFkAAJBZwhYAALkhbnEie4PXyPCA+0TwjO6awXpjXcwCAIDsErYAAMgVcYueqr7WWWM4OjSws97wpTNu7VYGNxY7EaveWI/b238CAACZJ2wBAJA7qgM99dT9Wz7u/NGd8todvUaGBqw2zKm1jfZOxBKyAAAg14QtAAByyeQWqXp99MU4d7YS1bHBnQh27mzFisMM2B2xmq3NnX+3WhAAAApB2AIAILfELTJrZGggRocHdia+RoY7f4pfvdNsbUaztRmN1mY0lzsBa3Wj/fQEHgAAUDTCFgAAuWYtIZnVDS+Hqb42GBGxE8AinkyDRURcGBtM9pAZdrvZmbJafdzeWRvYjVeN5ef/vwUAAApJ2AIAIPfELXLtOBNGu6PXuTOdFYhd3ZWIe6Udx7qBare9qwHnF1cO/BgAAMAuwhYAAIVgLSGcQndy7LhMTgEAAH0mbAEAUBiVCG0LTmr+zr+mfQQAAIDn2Q5b3xO2AAAohD9J+wAAAABAYoQtAAAKR9wCAACAYhK2AAAoJHELAAAAikfYAgCgsCpuuQUAAACF0glb7wtbAAAUk8ktAAAAKA5hCwCAwhO3AAAAoBiELQAASkHcAgAAgPwTtgAAKA1xCwAAAPJN2AIAoFTELQAAAMgvYQsAgNIRtwAAACCfhC0AAEpJ3AIAAID8EbYAACgtcQsAAADyRdgCAKDUxC0AAADID2ELAIDSE7cAAAAgH4QtAAAIcQsAAADyQNgCAIBt4hYAAABkm7AFAAC7iFsAAACQXcIWAADsIW4BAABANglbAACwD3ELAAAAskfYAgCAA4hbAAAAkC3CFgAAHELcAgAAgOwQtgAA4DnELQAAAMgGYQsAAI5A3AIAAID0CVsAAHBElRe20j4CAAAAlNrDiPjuP38gbAEAwFGY3AIAAID0CFsAAHBM4hYAAACkQ9gCAIATELcAAACg/4QtAAA4IXELAAAA+kvYAgCAUxC3AAAAoH+ELQAAOKVKxFbaZwAAAIAy2A5b3xe2AADgFExuAQAAQPKELQAA6BFxCwAAAJIlbAEAQA+JWwAAAJAcYQsAAHpM3AIAAIBkCFsAAJAAcQsAAAB6T9gCAICEiFsAAADQW8IWAAAkSNwCAACA3hG2AAAgYeIWAAAA9IawBQAAfSBuAQAAwOkJWwAA0CeV2Er7CAAAAJBrnbD1obAFAAD9YHILAAAATk7YAgCAPhO3AAAA4GSELQAASIG4BQAAAMcnbAEAQErELQAAADgeYQsAAFIkbgEAAMDRCVsAAJAycQsAAACORtgCAIAMELcAAADg+YQtAADICHELAAAADidsAQBAhohbAAAAcDBhCwAAMkbcAgAAgP0JWwAAkEHiFgAAADxL2AIAgIwStwAAAOBpwhYAAGSYuAUAAABPCFsAAJBx4hYAAAB0CFsAAJAD4hYAAAAIWwAAkBviFgAAAGUnbAEAQI6IWwAAAJSZsAUAADkjbgEAAFBWwhYAAOSQuAUAAEAZCVsAAJBT4hYAAABlI2wBAECOiVsAAACUibAFAAA5J24BAABQFsIWAAAUgLgFAABAGQhbAABQEJXY2kr7DAAAAJCkTtj63z8QtgAAoABMbgEAAFBkwhYAABSMuAUAAEBRCVsAAFBA4hYAAABFJGwBAEBBiVsAAAAUjbAFAAAFJm4BAABQJMIWAAAUnLgFAABAUQhbAABQAuIWAAAARSBsAQBASYhbAAAA5J2wBQAAJSJuAQAAkGfCFgAAlIy4BQAAQF4JWwAAUELiFgAAAHkkbAEAQEmJWwAAAOSNsAUAACUmbgEAAJAnwhYAAJScuAUAAEBeCFsAAIC4BQAAQC4IWwAAQESIWwAAAGSfsAUAAOwQtwAAAMgyYQsAAHiKuAUAAEBWCVsAAMAzxC0AAACySNgCAAD2JW4BAACQNcIWAABwIHELAACALBG2AACAQ4lbAAAAZIWwBQAAPFflha20jwAAAACdsPXl/xG2AACAw5ncAgAAIG3CFgAAcGTiFgAAAGkStgAAgGMRtwAAAEiLsAUAABybuAUAAEAahC0AAOBExC0AAAD6TdgCAABOTNwCAACgn4QtAADgVMQtAAAA+kXYAgAATk3cAgAAoB+ELQAAoCfELQAAAJImbAEAAD0jbgEAAJAkYQsAAOgpcQsAAICkCFsAAEDPiVsAAAAkQdgCAAASIW4BAADQa8IWAACQGHELAACAXhK2AACARIlbAAAA9IqwBQAAJE7cAgAAoBeELQAAoC/ELQAAAE5L2AIAAPpG3AIAAOA0hC0AAKCvxC0AAABOStgCAAD6TtwCAADgJIQtAAAgFeIWAAAAxyVsAQAAqRG3AAAAOA5hCwAASFUlYivtMwAAAJAP22HrvwpbAABAakxuAQAAcBTCFgAAkAniFgAAAM8jbAEAAJkhbgEAAHAYYQsAAMgUcQsAAICDCFsAAEDmiFsAAADsR9gCAAAySdwCAABgL2ELAADILHELAACA3YQtAAAg08QtAAAAuoQtAAAg88QtAAAAIoQtAAAgJyqxlfYRAAAASFknbP1S2AIAALLP5BYAAEC5CVsAAECuiFsAAADlJWwBAAC5I24BAACUk7AFAADkkrgFAABQPsIWAACQW+IWAABAuQhbAABArolbAAAA5SFsAQAAuSduAQAAlIOwBQAAFIK4BQAAUHzCFgAAUBjiFgAAQLEJWwAAQKGIWwAAAMUlbAEAAIUjbgEAABSTsAUAABSSuAUAAFA8whYAAFBY4hYAAECxCFsAAEChiVsAAADFIWwBAACFJ24BAAAUg7AFAACUgrgFAACQf8IWAABQGuIWAABAvglbAABAqYhbAAAA+SVsAQAApSNuAQAA5JOwBQAAlJK4BQAAkD/CFgAAUFriFgAAQL4IWwAAQKmJWwAAAPkhbAEAAKUnbgEAAOSDsAUAABDiFgAAQB4IWwAAANvELQAAgGwTtgAAAHYRtwAAALJL2AIAANhD3AIAAMgmYQsAAGAf4hYAAED2CFsAAAAHELcAAACyRdgCAAA4hLgFAACQHcIWAADAc4hbAAAA2SBsAQAAHIG4BQAAkD5hCwAA4IjELQAAgHQJWwAAAMdQiYh/SPsQAAAAJfZXwhYAAMDR/X9v3RUxC11MjwAAAABJRU5ErkJggg==;aspect=fixed;" vertex="1" parent="1">
          <mxGeometry x="630.3399999999999" y="273.72" width="44.09439999999999" height="21.8" as="geometry" />
        </mxCell>
        <mxCell id="gbwkDzLEDeNJJxxzxuom-4" value="&lt;font style=&quot;font-size: 11px;&quot;&gt;&lt;span style=&quot;font-size: 11px;&quot;&gt;&lt;b style=&quot;font-size: 11px;&quot;&gt;Cloud Foundry&lt;/b&gt;&lt;/span&gt;&lt;/font&gt;" style="text;whiteSpace=wrap;html=1;align=center;container=0;fontSize=11;fontColor=#074d92;" vertex="1" parent="1">
          <mxGeometry x="719.34" y="334.75" width="81.4" height="27.52" as="geometry" />
        </mxCell>
      </root>
    </mxGraphModel>
  </diagram>
</mxfile>
